<svg width="40" height="40" viewBox="0 0 40 40" fill="none" xmlns="http://www.w3.org/2000/svg">
<rect x="0.5" y="0.5" width="39" height="39" rx="5.5" fill="white" stroke="#EEEEEE"/>
<path d="M13.313 21.1481C13.5689 22.7392 13.4927 23.0813 13.2422 23.7276C13.2259 23.771 13.4001 23.9176 13.4655 23.7547C13.6669 23.2334 13.6669 23.228 13.6996 22.7718C13.7323 22.1962 13.3021 21.1046 13.313 21.1481ZM23.779 20.6159C23.7899 20.567 23.0602 22.1256 23.1038 22.7555C23.1419 23.2551 23.1201 23.4072 23.3652 23.9719C23.4414 24.1511 23.6538 23.9882 23.6374 23.9393C23.2944 22.8261 23.2399 22.7609 23.779 20.6159ZM24.928 20.7679C24.9389 20.7191 24.4216 21.9789 24.4651 22.6089C24.5032 23.1085 24.4869 23.0325 24.7319 23.5972C24.8082 23.7764 25.0314 23.6244 25.0097 23.5809C24.7102 22.875 24.6176 22.5057 24.928 20.7679ZM26.2076 21.0232C26.2131 20.9852 25.772 21.9409 25.8101 22.446C25.8428 22.8478 25.8428 22.8533 26.0497 23.304C26.1151 23.4452 26.2948 23.3203 26.2784 23.2823C26.0225 22.7229 25.9408 22.4188 26.2076 21.0232ZM17.7128 20.0783C17.6312 19.9697 17.5005 19.8556 17.5658 19.986C17.7346 20.3444 17.9361 20.5181 18.241 20.5833C18.6004 20.6593 18.8891 20.4313 19.0742 20.0348C19.1341 19.8991 18.7801 20.3607 18.3391 20.3498C18.0722 20.3444 17.8762 20.2901 17.7128 20.0783ZM17.7455 21.702C17.6638 21.5934 17.5332 21.4793 17.5985 21.6097C17.7673 21.9681 17.9688 22.1419 18.2737 22.207C18.6331 22.2831 18.9217 22.055 19.1069 21.6585C19.1668 21.5228 18.8128 21.9844 18.3717 21.9735C18.1049 21.9681 17.9089 21.9192 17.7455 21.702ZM17.7782 23.4506C17.6965 23.342 17.5658 23.228 17.6312 23.3637C17.8 23.7221 18.0015 23.8959 18.3064 23.9611C18.6658 24.0371 18.9544 23.809 19.1395 23.4126C19.1994 23.2768 18.8455 23.7384 18.4044 23.7276C18.1376 23.7167 17.9361 23.6678 17.7782 23.4506ZM17.8653 24.9494C17.7836 24.8408 17.6529 24.7268 17.7183 24.8625C17.8871 25.2209 18.0886 25.3947 18.3935 25.4599C18.7529 25.5359 19.0415 25.3078 19.2267 24.9114C19.2866 24.7756 18.9326 25.2372 18.4915 25.2264C18.2302 25.2155 18.0287 25.1666 17.8653 24.9494ZM19.2593 19.2311C19.1777 19.1225 19.047 19.0085 19.1123 19.1388C19.2811 19.4972 19.4826 19.671 19.7875 19.7362C20.1469 19.8122 20.4355 19.5841 20.6207 19.1877C20.6806 19.0519 20.3266 19.5135 19.8856 19.5026C19.6187 19.4918 19.4227 19.4429 19.2593 19.2311ZM19.2866 20.8548C19.2049 20.7462 19.0742 20.6322 19.1395 20.7625C19.3083 21.1209 19.5098 21.2947 19.8148 21.3599C20.1742 21.4359 20.4628 21.2078 20.6479 20.8114C20.7078 20.6756 20.3539 21.1372 19.9128 21.1264C19.646 21.1209 19.4499 21.0666 19.2866 20.8548ZM19.3192 22.6034C19.2376 22.4948 19.1069 22.3808 19.1722 22.5111C19.341 22.8695 19.5425 23.0433 19.8474 23.1085C20.2068 23.1845 20.4954 22.9564 20.6806 22.56C20.7405 22.4242 20.3865 22.8858 19.9455 22.875C19.6786 22.8695 19.4826 22.8152 19.3192 22.6034ZM19.4118 24.1023C19.3301 23.9937 19.1994 23.8796 19.2648 24.0154C19.4336 24.3738 19.6351 24.5476 19.94 24.6127C20.2994 24.6888 20.588 24.4607 20.7732 24.0642C20.8331 23.9285 20.4791 24.3901 20.038 24.3792C19.7712 24.3684 19.5752 24.3195 19.4118 24.1023ZM20.686 20.1597C20.6043 20.0511 20.4737 19.9371 20.539 20.0674C20.7078 20.4258 20.9093 20.5996 21.2142 20.6648C21.5736 20.7408 21.8622 20.5127 22.0474 20.1163C22.1073 19.9805 21.7533 20.4421 21.3122 20.4313C21.0454 20.4204 20.8439 20.3715 20.686 20.1597ZM20.7133 21.7834C20.6316 21.6748 20.5009 21.5608 20.5662 21.6911C20.735 22.0495 20.9365 22.2233 21.2415 22.2885C21.6008 22.3645 21.8895 22.1364 22.0746 21.74C22.1345 21.6042 21.7805 22.0658 21.3395 22.055C21.0726 22.0495 20.8766 21.9952 20.7133 21.7834ZM20.7459 23.5321C20.6642 23.4235 20.5336 23.3094 20.5989 23.4452C20.7677 23.8036 20.9692 23.9774 21.2741 24.0425C21.6335 24.1186 21.9221 23.8905 22.1073 23.494C22.1672 23.3583 21.8132 23.8199 21.3721 23.809C21.1053 23.7982 20.9038 23.7493 20.7459 23.5321ZM20.8385 25.0309C20.7568 24.9223 20.6261 24.8082 20.6915 24.9386C20.8603 25.297 21.0618 25.4707 21.3667 25.5359C21.7261 25.6119 22.0147 25.3839 22.1998 24.9874C22.2597 24.8517 21.9058 25.3133 21.4647 25.3024C21.1979 25.297 20.9964 25.2481 20.8385 25.0309ZM15.6599 20.6865C16.1827 23.1356 16.1282 23.2062 15.7961 24.4824C15.7797 24.5367 15.9867 24.7213 16.0575 24.5204C16.2916 23.8742 16.2753 23.695 16.3079 23.1302C16.3515 22.408 15.649 20.6322 15.6599 20.6865ZM14.5545 20.8603C14.854 22.8424 14.7615 23.266 14.4728 24.0697C14.4511 24.124 14.6689 24.2923 14.7451 24.0914C14.9793 23.4452 14.9684 23.5321 15.001 22.9619C15.0446 22.2396 14.5436 20.8005 14.5545 20.8603ZM19.4009 14.5772C19.2702 14.5772 19.1668 14.6858 19.1668 14.8161C19.1668 14.9139 19.2811 15.0551 19.3846 15.0605C19.8583 15.0822 19.695 14.8107 19.8039 14.8107C19.8856 14.8107 20.441 14.7999 20.441 15.0334C20.441 15.1257 20.5009 15.142 20.5009 15.0442C20.4954 14.7238 19.646 14.5772 19.4009 14.5772ZM24.5522 16.505C26.1968 16.6788 27.8467 19.7253 27.8304 21.9572C27.8304 22.2939 27.2096 21.74 27.3512 22.0441C27.8031 23.0053 27.5799 24.0968 27.6234 24.6833C27.6561 25.058 27.1769 25.1341 27.1769 25.1341C27.1769 26.307 27.0353 27.1705 26.5453 28.2457C26.1913 29.0331 25.5106 29.94 25.3037 30.7111C24.8409 30.5808 24.4488 29.9292 24.4488 29.6088C24.4488 29.082 25.124 27.8058 25.478 26.8881C25.6413 26.3994 25.7176 26.0138 25.9626 25.7911C25.5106 26.1496 25.4344 26.5351 25.2166 26.9913C24.8953 27.6809 24.3671 28.7507 24.2201 29.4241C23.8716 29.1309 23.5503 28.7236 23.5503 28.338C23.5503 28.1371 24.4706 25.9432 24.7592 25.4762C23.9042 26.1224 23.8008 27.2302 23.3706 28.1751C23.1038 27.9525 22.8261 27.4854 22.8261 27.1488C22.8261 26.8609 23.5394 25.1884 23.7137 25.0254C23.1092 25.3187 22.8315 26.3668 22.6518 26.9641C22.2434 26.5894 22.1835 26.0844 22.1617 25.6771C22.0147 26.3613 21.4212 27.9525 21.4212 28.1914C21.4212 28.376 21.9003 29.6142 22.0528 29.8097C22.1672 29.8206 22.3741 29.6142 22.7444 29.8206C22.9186 29.9998 22.9949 29.864 23.1963 30.293C23.082 30.2984 22.9023 30.141 22.8261 30.1138C22.5919 30.0323 22.6627 30.1192 22.4993 30.2007C22.3196 30.2876 22.1345 30.1084 22.0964 30.1355C22.5211 30.4776 22.7498 30.5048 22.5701 30.9827C22.5375 31.075 22.4177 31.3357 22.3795 31.3845C22.3087 31.3031 22.336 30.9447 22.2652 30.7546C21.7479 30.7492 22.0528 30.2496 21.7697 30.217C21.6607 30.7437 21.1271 30.2767 20.991 30.798L20.8331 30.9664C20.7732 29.9998 21.5464 29.9889 21.5355 29.94C21.2415 28.615 19.8801 27.4692 19.8801 27.4692C19.3301 28.1805 18.7584 28.4575 18.2574 29.94C18.2411 29.9889 19.0088 30.1192 19.1123 31.0913L19.0143 31.0533C18.9871 30.9175 18.8346 30.7383 18.6658 30.7057C18.4044 30.6514 18.0995 30.7383 18.1594 30.2767C18.0614 30.3473 18.0559 30.4505 17.9252 30.6514C17.8218 30.8089 17.5549 31.0044 17.5223 31.2216C17.5005 31.3628 17.6094 31.5203 17.6856 31.6669C17.6312 31.5963 17.2772 31.2814 17.3208 31.189C17.5931 30.5917 17.0431 30.6894 17.6911 30.1355C17.6584 30.1029 17.4678 30.3527 17.2881 30.2659C17.0648 30.1572 17.1356 30.4342 16.6728 30.4233C16.9505 30.2441 17.0049 29.9455 17.2609 29.8368C17.3698 29.7934 17.702 29.7988 17.8163 29.788C17.9688 29.5925 18.3608 28.376 18.3608 28.1914C18.3608 27.9525 17.7673 26.3613 17.6203 25.6771C17.5985 26.0844 17.544 26.5894 17.1302 26.9641C16.9505 26.3668 16.6728 25.3187 16.0683 25.0254C16.2426 25.1884 16.9559 26.8609 16.9559 27.1488C16.9559 27.4854 16.6782 27.9525 16.4114 28.1751C15.9812 27.2302 15.8778 26.117 15.0228 25.4762C15.3114 25.9432 16.2317 28.1371 16.2317 28.338C16.2317 28.7182 15.9104 29.1255 15.5619 29.4241C15.4149 28.7562 14.8867 27.6809 14.5654 26.9913C14.3476 26.5351 14.2714 26.1496 13.8194 25.7911C14.0644 26.0138 14.1407 26.3994 14.304 26.8881C14.658 27.8004 15.3332 29.0766 15.3332 29.6088C15.3332 29.9237 14.9357 30.5808 14.4783 30.7111C14.2659 29.94 13.6397 29.0114 13.2367 28.2457C12.1858 26.2473 12.7249 25.8346 12.5561 24.7811C12.5016 24.4444 12.1858 24.8299 12.2185 24.2272C12.2185 24.2272 11.6521 22.1473 12.6432 20.7136C12.6595 20.4801 12.0714 20.9852 12.0987 20.7679C12.2239 19.8665 13.3838 16.6951 15.2352 16.505C16.3352 16.391 16.2807 17.8409 16.9723 18.3351C17.1302 18.4491 17.3262 18.5143 17.5822 18.5143C18.0505 18.5143 18.3282 18.2102 18.4915 17.8301C18.7148 17.3305 18.7311 16.706 18.7311 16.5213C18.7311 16.0217 18.7801 15.3592 17.8163 15.3863C17.9851 15.2832 18.1703 15.256 18.2683 15.256C18.5514 15.256 18.84 15.3863 19.1123 15.5764L19.1722 15.5112C18.9816 15.1909 18.4806 15.0931 18.2465 15.0931C18.0831 15.0931 17.5604 15.2126 17.4678 15.4135C17.4079 15.3701 17.3643 15.332 17.3643 15.2343C17.3589 15.0062 17.4188 14.713 17.5495 14.6152C18.0015 14.284 18.4262 14.5012 18.6603 14.3437C19.0579 14.0722 19.2267 13.969 19.5697 13.969C19.6677 13.969 20.5172 14.0885 21.0073 14.2134C21.0509 14.2568 21.0563 14.2297 21.0563 14.3328C21.0563 14.436 21.0127 14.4903 20.9746 14.512C21.2523 14.6207 21.3776 15.3538 21.3776 15.609V17.0101C21.3776 17.6563 21.6009 18.3514 22.4394 18.3622C23.8389 18.384 23.327 16.3801 24.5522 16.505ZM17.7619 26.7469L18.1975 28.1371C17.996 28.7127 17.9633 29.2449 17.7455 29.6088C17.6747 29.7228 17.2064 29.6522 17.0812 29.7337C16.9287 29.8368 16.7381 30.1627 16.5639 30.2821L17.7619 26.7469ZM18.0341 31.9602C17.9361 31.9602 17.0213 31.9493 16.9178 31.9493C16.6292 31.9493 16.1881 31.857 16.1881 31.3954C16.1881 31.2922 16.3515 30.8415 16.5312 30.5482C16.5911 30.6406 16.6129 30.5319 16.7109 30.5319C16.8089 30.5319 16.9233 30.5482 17.0104 30.5048C17.0104 30.5048 17.201 30.4288 17.2554 30.4179C17.1792 30.608 17.2827 30.8035 17.25 30.9501C17.1901 31.1999 17.1629 31.2976 17.2228 31.3791C17.3153 31.504 17.4351 31.7321 17.7128 31.7701C17.8435 31.7755 17.6421 31.4443 17.6421 31.2651C17.6475 31.0315 17.947 30.9175 18.0614 30.6406C18.094 30.8415 18.4044 30.798 18.6495 30.8795C18.8346 30.9664 18.7693 31.1836 19.1123 31.2922C19.2866 31.3465 19.2376 31.0044 19.2376 30.9501C19.2376 30.608 18.8455 30.0269 18.4806 29.9129C18.644 28.9734 19.8964 27.7678 19.9346 27.7244C20.3048 28.1208 21.1598 29.006 21.285 29.8368C21.1489 29.9889 20.8331 29.9726 20.6969 30.6786C20.686 30.7329 20.6642 31.1184 20.8331 31.1945C20.9528 31.2488 21.1543 30.9338 21.187 30.7546C21.2306 30.5265 21.5301 30.8632 21.7424 30.5211C21.8132 30.6134 21.8513 30.7003 21.8949 30.8252C21.933 30.9338 22.1399 30.8469 22.1726 30.9501C22.2488 31.1999 22.189 31.5637 22.3414 31.5583C22.5211 31.5203 22.7389 31.151 22.7389 30.9338C22.7389 30.8306 22.8969 30.5048 22.5266 30.3202C22.5701 30.2713 22.837 30.255 22.837 30.255C22.9241 30.2984 23.0711 30.4722 23.327 30.5537C23.5067 30.8469 23.6701 31.2976 23.6701 31.4008C23.6701 31.857 23.2944 31.9547 23.0003 31.9547C22.9077 31.9493 18.9544 31.9602 18.0341 31.9602ZM22.0692 26.6329L23.1909 29.9998C23.0166 29.8803 22.8696 29.7065 22.7172 29.6088C22.5919 29.5273 22.2597 29.7065 22.189 29.587C21.8895 29.0711 21.7697 28.7507 21.5682 28.1751L22.0692 26.6329Z" fill="#3BA6B3"/>
<path fill-rule="evenodd" clip-rule="evenodd" d="M8.88073 31.4387L8.98419 31.3681L8.95696 31.3192C8.87528 31.1998 9.07676 31.0694 9.24557 30.9499L10.1767 30.2983C10.2856 30.2223 10.5143 30.0702 10.596 30.1843L10.6287 30.2277L10.7322 30.1571L10.6777 30.0811C10.6559 30.0485 10.6178 30.0213 10.5851 29.9942C10.5525 29.9616 10.5198 29.9236 10.4926 29.8801C10.4653 29.8421 10.4381 29.7987 10.4218 29.7552C10.3945 29.7118 10.3837 29.6684 10.3564 29.6358L10.302 29.5597L10.1985 29.6303L10.2312 29.6738C10.3129 29.7878 10.0896 29.9507 9.9807 30.0268L9.04954 30.6784C8.88617 30.7925 8.69014 30.9391 8.60301 30.8196L8.57034 30.7762L8.46688 30.8468L8.51589 30.9174C8.53767 30.95 8.57579 30.9825 8.60301 31.0151C8.63569 31.0477 8.66836 31.0857 8.69559 31.1237C8.72281 31.1617 8.74459 31.2052 8.76638 31.2486C8.78271 31.2866 8.80449 31.3301 8.82628 31.3627L8.88073 31.4387ZM8.36886 30.4884L8.33619 30.4395C8.31441 30.4069 8.33075 30.3526 8.39064 30.3254C8.52678 30.2603 8.70648 30.2929 8.84261 30.3092C9.00597 30.3254 9.18022 30.3254 9.43616 30.3363C9.55051 30.0213 9.70298 29.7009 9.76288 29.5706C9.91535 29.2502 9.99703 29.0819 9.87179 28.9081C9.81189 28.8266 9.78466 28.8212 9.67031 28.7397L9.56685 28.8158C9.65942 28.8592 9.6812 28.8918 9.69209 28.9081C9.73565 28.9733 9.65397 29.1144 9.59952 29.2176C9.51784 29.3805 9.43616 29.5543 9.35992 29.7172C9.28913 29.8693 9.20745 30.0159 9.25101 30.2331C9.19656 30.2277 9.16933 30.2223 9.12033 30.2168C8.98964 30.206 9.10399 30.2223 8.77182 30.1788C8.16738 30.1028 8.12382 30.1191 8.03125 29.9942L8.00947 29.9616L7.90601 30.0322L7.93868 30.0811C7.95501 30.1028 7.9768 30.1191 7.99313 30.1408C8.03125 30.1788 8.07481 30.2223 8.10748 30.2657C8.1456 30.32 8.16738 30.3743 8.19461 30.4341C8.21095 30.4612 8.22184 30.4829 8.23817 30.5047L8.27085 30.5481L8.36886 30.4884Z" fill="#3BA6B3"/>
<path fill-rule="evenodd" clip-rule="evenodd" d="M7.39399 29.0656L7.50834 29.0168L7.48656 28.9679C7.4321 28.8213 7.72616 28.7289 7.90585 28.6583L8.83157 28.2836C8.99493 28.2185 9.28898 28.0936 9.34888 28.2402L9.37066 28.2891L9.48501 28.2402L9.46323 28.1913C9.42511 28.099 9.39244 28.0664 9.35977 28.0176C9.31076 27.947 9.31621 27.9144 9.30532 27.8438C9.29987 27.7949 9.28353 27.7515 9.27264 27.708C9.25086 27.632 9.22364 27.5614 9.19641 27.4854C9.01127 27.0292 8.6192 27.0835 8.35237 27.1921C8.06377 27.3062 7.84595 27.594 8.02021 28.0176C8.04743 28.0881 8.08011 28.1533 8.11822 28.2185L7.78061 28.3542C7.53012 28.452 7.3232 28.5552 7.2633 28.414L7.24152 28.3651L7.12716 28.414L7.15984 28.4954C7.17617 28.5334 7.2034 28.5715 7.22518 28.6095C7.24696 28.6529 7.27419 28.6909 7.29052 28.7344C7.30686 28.7778 7.3232 28.8267 7.33409 28.8756C7.34498 28.919 7.35042 28.9625 7.36676 29.0005L7.39399 29.0656ZM8.22169 28.1642C8.21079 28.1425 8.1999 28.1207 8.18901 28.099C8.08555 27.8438 8.21624 27.6211 8.52663 27.4908C8.83157 27.3659 9.04938 27.4474 9.10928 27.594C9.17463 27.7515 9.07661 27.8166 8.88058 27.8981L8.22169 28.1642ZM6.81133 27.6266L6.92568 27.5777L6.9039 27.5288C6.844 27.3822 7.13261 27.2899 7.33409 27.2084L8.2598 26.8337C8.40683 26.774 8.70088 26.6491 8.75533 26.7903L8.77711 26.8391L8.89147 26.7903L8.85879 26.7034C8.84246 26.6654 8.80979 26.6328 8.788 26.5948C8.76078 26.5568 8.739 26.5133 8.72266 26.4699C8.70632 26.4264 8.68999 26.383 8.6791 26.3341C8.67365 26.2907 8.67365 26.2472 8.65732 26.2092L8.6192 26.1223L8.50484 26.1658L8.52663 26.2146C8.57563 26.3395 8.33059 26.4427 8.1509 26.5133L7.19795 26.8989C7.01281 26.9749 6.7351 27.1107 6.6752 26.9586L6.65342 26.9043L6.53906 26.9532L6.57173 27.0346C6.58807 27.0726 6.6153 27.1107 6.63708 27.1487C6.65886 27.1921 6.68609 27.2301 6.70242 27.2736C6.71876 27.317 6.7351 27.3659 6.74599 27.4148C6.75688 27.4636 6.76232 27.5071 6.77866 27.5451L6.81133 27.6266Z" fill="#3BA6B3"/>
<path fill-rule="evenodd" clip-rule="evenodd" d="M8.40128 24.8243L8.27603 24.846L8.29237 24.9166C8.32504 25.0741 7.93842 25.1284 7.74239 25.1664L6.68054 25.3728L6.36471 25.4325C6.35381 25.4054 6.35381 25.3837 6.34837 25.3565C6.29936 25.1067 6.47361 24.9166 6.81123 24.8515C7.20329 24.7754 7.37755 24.9492 7.36121 25.1284L7.47012 25.1067C7.47012 25.0578 7.47012 25.009 7.45923 24.9601C7.38299 24.5799 7.03449 24.4605 6.69143 24.5256C6.49539 24.5637 6.0761 24.7266 6.18501 25.275C6.1959 25.3348 6.21768 25.3945 6.23946 25.4543C6.26669 25.5303 6.29392 25.6063 6.31025 25.6878C6.32114 25.7366 6.32659 25.7909 6.33203 25.8398C6.33203 25.867 6.33748 25.8996 6.34292 25.9267L6.35381 25.981L6.47906 25.9593L6.46817 25.905C6.44094 25.7638 6.75133 25.7041 6.99637 25.6552L7.61714 25.5357C7.7315 25.514 8.01466 25.4651 8.13445 25.4434C8.21069 25.4325 8.40128 25.4054 8.4285 25.5194L8.43939 25.5737L8.56464 25.552L8.5483 25.4543C8.53741 25.4108 8.51563 25.3728 8.49929 25.3348C8.48296 25.2913 8.46662 25.2479 8.46118 25.199C8.45029 25.1501 8.44484 25.1013 8.44484 25.0524C8.44484 25.009 8.45573 24.9655 8.44484 24.9221L8.40128 24.8243Z" fill="#3BA6B3"/>
<path fill-rule="evenodd" clip-rule="evenodd" d="M6.03812 23.8036L6.16336 23.7982V23.7384C6.15792 23.6027 6.44108 23.5918 6.62077 23.5864L7.69896 23.5484C7.87321 23.5429 8.15093 23.5266 8.15637 23.6733V23.7276L8.28161 23.7221L8.27617 23.6244C8.27617 23.5809 8.25439 23.5429 8.2435 23.4995C8.23261 23.4506 8.22716 23.4072 8.22716 23.3583C8.22716 23.3094 8.22716 23.266 8.23805 23.2171C8.24894 23.1736 8.25983 23.1302 8.25983 23.0922L8.25439 22.9619L8.12914 22.9673L8.13459 23.0596C8.14003 23.1954 7.87321 23.2117 7.66084 23.2171L6.17425 23.2714L6.16881 23.0868C6.16336 22.9619 6.1198 22.7827 6.41385 22.7718C6.49553 22.7664 6.57721 22.7827 6.59355 22.7881L6.5881 22.6849C6.43019 22.6469 6.22871 22.6143 6 22.5872C6.02178 22.9456 6.03267 22.9293 6.04356 23.1193C6.04356 23.1791 6.04901 23.3366 6.04901 23.4126C6.04901 23.5809 6.03267 23.5375 6.03267 23.6841L6.03812 23.8036Z" fill="#3BA6B3"/>
<path fill-rule="evenodd" clip-rule="evenodd" d="M6.03833 21.6747L6.16357 21.6965L6.17446 21.6421C6.20169 21.4847 6.49574 21.5553 6.68633 21.5878L7.67194 21.7453C7.8462 21.7725 8.16203 21.8214 8.14025 21.9734L8.12936 22.0277L8.2546 22.0494L8.26549 21.9951C8.28183 21.8974 8.27094 21.8539 8.26549 21.7942C8.26005 21.7127 8.28183 21.6856 8.30905 21.615C8.33084 21.5716 8.34173 21.5281 8.35262 21.4792C8.3744 21.4032 8.39073 21.3272 8.40163 21.2512C8.47786 20.7624 8.11302 20.6104 7.82986 20.5669C7.52492 20.518 7.19275 20.6484 7.11652 21.0991C7.10562 21.1697 7.10018 21.2457 7.10018 21.3217L6.74078 21.262C6.47396 21.2186 6.24525 21.2023 6.26704 21.0502L6.27793 20.9959L6.15268 20.9742L6.14179 21.0611C6.13635 21.1045 6.13635 21.148 6.13635 21.1914C6.13635 21.2403 6.13635 21.2892 6.12546 21.3326C6.12001 21.3815 6.10367 21.4304 6.08734 21.4738C6.07645 21.5118 6.05467 21.5553 6.04922 21.5987L6.03833 21.6747ZM7.20909 21.3272C7.20909 21.3055 7.21453 21.2783 7.21998 21.2512C7.26354 20.9796 7.49225 20.8547 7.82441 20.9036C8.15114 20.9579 8.29272 21.1371 8.27094 21.2892C8.24371 21.4575 8.12936 21.4629 7.92243 21.4304L7.20909 21.3272ZM6.28337 20.1379L6.40862 20.1596L6.41951 20.1053C6.44673 19.9478 6.74078 20.0184 6.95315 20.051L7.93877 20.2085C8.09668 20.2357 8.40707 20.2791 8.38529 20.4257L8.3744 20.48L8.49964 20.5017L8.51598 20.404C8.52142 20.3606 8.51053 20.3171 8.51053 20.2737C8.51053 20.2248 8.51053 20.1759 8.52142 20.1325C8.52687 20.0836 8.53776 20.0402 8.5541 19.9967C8.57043 19.9587 8.59221 19.9153 8.59766 19.8772L8.614 19.7849L8.48875 19.7632L8.48331 19.8175C8.46152 19.9533 8.1947 19.9153 8.00956 19.8827L6.99672 19.7198C6.79524 19.6872 6.49574 19.6655 6.51752 19.508L6.52841 19.4537L6.39773 19.4265L6.38139 19.5134C6.37594 19.5568 6.37594 19.6003 6.37594 19.6437C6.37594 19.6926 6.37594 19.7415 6.36505 19.7849C6.35961 19.8338 6.34327 19.8827 6.32694 19.9261C6.31604 19.9641 6.29971 20.0076 6.28882 20.051L6.28337 20.1379Z" fill="#3BA6B3"/>
<path fill-rule="evenodd" clip-rule="evenodd" d="M8.26515 19.0571L8.3305 19.0843C8.54287 19.1657 8.74435 19.2852 8.96761 19.0028C9.02206 18.9377 9.06562 18.8616 9.09285 18.7856C9.27255 18.324 8.95127 17.9982 8.66811 17.8896C8.28694 17.743 8.02011 17.9928 7.95477 18.1665L7.93843 18.21L7.90576 18.1883C7.93843 18.0091 7.92754 17.7049 7.60082 17.58C7.38845 17.4986 7.0944 17.4823 6.95826 17.8353C6.83846 18.1448 6.88203 18.2263 6.77856 18.3783L6.86025 18.4109C6.94193 18.4435 7.17063 18.5412 7.26865 18.5847L7.30132 18.4924C7.08895 18.3566 6.93648 18.2263 7.01272 18.0253C7.07806 17.8624 7.25776 17.8136 7.48646 17.9004C7.73695 17.9982 7.82952 18.2208 7.76418 18.3892C7.75329 18.4218 7.73151 18.4652 7.70972 18.4978L7.87853 18.563C7.88398 18.5249 7.88942 18.4924 7.9112 18.4435C8.031 18.1285 8.3305 18.1394 8.58643 18.2371C8.9186 18.362 9.02206 18.5901 8.95127 18.7748C8.89682 18.9214 8.72801 19.0734 8.28693 18.9811L8.26515 19.0571Z" fill="#3BA6B3"/>
<path fill-rule="evenodd" clip-rule="evenodd" d="M9.93712 15.9784C10.1168 16.2011 10.1005 16.5215 10.0025 16.6789C9.8391 16.9505 9.33813 17.1188 8.72825 16.755C8.22183 16.4509 7.99856 16.011 8.23272 15.62C8.35251 15.4191 8.61934 15.2833 8.91339 15.4571L8.96784 15.3702C8.94606 15.3593 8.92973 15.3485 8.90794 15.3376C8.79904 15.2725 8.59211 15.1367 8.47776 15.0498C8.46142 15.1041 8.4233 15.1638 8.39063 15.2236C8.3144 15.3485 8.1946 15.4245 8.05302 15.6526C7.69907 16.2391 8.02579 16.7767 8.51043 17.0645C9.11487 17.4284 9.7792 17.3252 10.1005 16.793C10.1876 16.6518 10.2584 16.4563 10.2584 16.2988C10.2584 16.1956 10.2366 16.0979 9.99157 15.897L9.93712 15.9784Z" fill="#3BA6B3"/>
<path fill-rule="evenodd" clip-rule="evenodd" d="M9.59393 13.8819L10.6503 14.8268C10.8137 14.9734 11.0751 15.2123 10.9716 15.3264L10.9335 15.3698L11.0261 15.4513L11.0969 15.3753C11.1295 15.3427 11.1459 15.2992 11.1622 15.2612C11.184 15.2178 11.2167 15.1798 11.2493 15.1472C11.282 15.1146 11.3201 15.0766 11.3582 15.0494C11.3963 15.0223 11.4345 15.006 11.4671 14.9734L11.5325 14.9028L11.4399 14.8213L11.4018 14.8648C11.2983 14.9843 11.037 14.7345 10.8736 14.5933L9.81719 13.6321L9.95877 13.4746C10.0296 13.3986 10.1657 13.2519 10.3617 13.4257C10.3726 13.4366 10.4162 13.4746 10.4652 13.5343L10.536 13.4583C10.3508 13.2465 10.3291 13.1976 10.1439 13.0076C10.0023 13.1868 9.78452 13.4746 9.61026 13.6701C9.53947 13.7461 9.36522 13.9362 9.29988 13.9959C9.22909 14.0665 9.21275 14.0774 9.04395 14.2294C9.17463 14.3652 9.2182 14.4249 9.44146 14.6693L9.5068 14.5933C9.31077 14.3163 9.338 14.1643 9.45235 14.0394L9.59393 13.8819Z" fill="#3BA6B3"/>
<path fill-rule="evenodd" clip-rule="evenodd" d="M12.1207 14.2947L12.1915 14.2404C12.2133 14.2241 12.2296 14.1916 12.2459 14.1698C12.2732 14.1318 12.3113 14.1047 12.3494 14.0721C12.5291 13.9255 12.4038 14.0666 12.5618 13.9363L12.5999 13.9092L12.5182 13.8114L12.4692 13.8494C12.4256 13.882 12.3222 13.9417 12.2242 13.7245L12.0499 13.3444C12.1697 13.2575 12.1969 13.2412 12.2514 13.1978C12.3331 13.1272 12.4256 13.0457 12.4637 13.0077L12.8449 13.2847C12.9375 13.3553 12.9538 13.4476 12.8939 13.4964L12.8449 13.5345L12.9266 13.6322L13.0137 13.5616C13.0518 13.529 13.0845 13.4856 13.1172 13.4476C13.1499 13.415 13.1771 13.3824 13.2152 13.3553C13.2588 13.3172 13.3078 13.2847 13.3622 13.2521C13.4004 13.2304 13.4439 13.2086 13.482 13.1815L13.531 13.138L13.4494 13.0403L13.433 13.0729C13.3786 13.1163 13.335 13.1869 13.1063 13.0403C12.8885 12.8991 13.0791 13.0457 12.0989 12.3506C11.6633 12.0411 11.5598 11.9651 11.4237 11.8564C11.3965 11.9216 11.3583 11.9868 11.3093 12.0465C11.4073 12.2149 11.489 12.3995 11.8321 13.1869C11.9029 13.3498 12.0063 13.5996 12.088 13.844C12.1261 13.9526 12.1643 14.0938 12.0826 14.159L12.039 14.1916L12.1207 14.2947ZM11.636 12.3995C11.7722 12.5298 11.8321 12.5407 12.3494 12.9262C12.3113 12.9751 12.2732 13.0131 12.1969 13.0729C12.1152 13.1435 12.0553 13.1815 11.9954 13.2141C11.6959 12.5624 11.6851 12.519 11.6197 12.4212L11.636 12.3995Z" fill="#3BA6B3"/>
<path fill-rule="evenodd" clip-rule="evenodd" d="M12.9753 10.9115L13.0298 11.0256L13.0788 11.0038C13.1823 10.955 13.2531 11.0744 13.3021 11.1668C13.3456 11.2536 13.4273 11.4111 13.4709 11.498L13.8902 12.3615C13.9501 12.4809 14.0644 12.7307 13.9392 12.7905L13.8902 12.8122L13.9446 12.9262L14.0317 12.8828C14.0699 12.8665 14.1025 12.8285 14.1352 12.8013C14.1733 12.7742 14.2169 12.747 14.2605 12.7253C14.304 12.7036 14.3476 12.6873 14.3966 12.6764C14.4401 12.6656 14.4837 12.6656 14.5218 12.6438L14.609 12.6004L14.5545 12.4864L14.5055 12.5081C14.3966 12.5624 14.2822 12.3723 14.2006 12.204L13.9555 11.6989C14.0263 11.6772 14.108 11.6392 14.2278 11.5849C14.2822 11.5578 14.3421 11.5306 14.3966 11.5035C14.451 11.4763 14.5109 11.4491 14.5654 11.422C14.6852 11.3623 14.7614 11.3188 14.8213 11.2754L15.0664 11.7804C15.148 11.9487 15.2297 12.1551 15.1208 12.2094L15.0718 12.2311L15.1263 12.3452L15.2134 12.3017C15.2515 12.2854 15.2842 12.2474 15.3169 12.2203C15.355 12.1931 15.3985 12.166 15.4421 12.1442C15.4857 12.1225 15.5292 12.1062 15.5782 12.0954C15.6218 12.0845 15.6654 12.0845 15.7035 12.0628L15.7906 12.0193L15.7361 11.9053L15.6871 11.927C15.5619 11.9868 15.4367 11.7424 15.3768 11.6229L14.9575 10.7595C14.8377 10.5205 14.658 10.2164 14.8104 10.1404L14.8594 10.1187L14.805 10.0046L14.7288 10.0427C14.6797 10.0861 14.6416 10.1132 14.609 10.1404C14.5708 10.1676 14.5273 10.1947 14.4837 10.2164C14.4401 10.2381 14.3966 10.2544 14.3476 10.2653C14.304 10.2762 14.2605 10.287 14.2223 10.3087L14.1407 10.3468L14.1951 10.4608L14.2441 10.4391C14.3585 10.3848 14.4401 10.5423 14.4728 10.602C14.5 10.6509 14.609 10.8627 14.6416 10.9387L14.7451 11.1505C14.6797 11.1939 14.5817 11.2645 14.3258 11.3894C14.0699 11.5143 13.9555 11.5523 13.8793 11.574L13.7758 11.3623C13.7377 11.2862 13.6342 11.069 13.6125 11.0201C13.5852 10.955 13.509 10.7921 13.6233 10.7378L13.6724 10.716L13.6233 10.5966L13.5417 10.6346C13.5035 10.6509 13.4654 10.6834 13.4328 10.7052C13.3946 10.7323 13.3511 10.7595 13.313 10.7812C13.2694 10.8029 13.2204 10.8192 13.1768 10.8355C13.1333 10.8464 13.0897 10.8572 13.0516 10.8789L12.9753 10.9115Z" fill="#3BA6B3"/>
<path fill-rule="evenodd" clip-rule="evenodd" d="M18.6659 10.8299C18.6169 11.1123 18.3719 11.3132 18.1867 11.3512C17.8709 11.4109 17.4135 11.1557 17.2774 10.4606C17.163 9.87953 17.3427 9.41794 17.7892 9.33105C18.0234 9.28761 18.3011 9.39079 18.3664 9.72748L18.4699 9.70576C18.4645 9.68404 18.459 9.66231 18.4536 9.64059C18.4318 9.51569 18.3882 9.27132 18.3828 9.13013C18.3283 9.15185 18.263 9.16814 18.1922 9.179C18.0506 9.20615 17.909 9.16814 17.6476 9.21701C16.9724 9.34735 16.7927 9.9447 16.9016 10.4986C17.0378 11.1883 17.5551 11.6119 18.165 11.4924C18.3283 11.4598 18.5189 11.3838 18.6387 11.2806C18.7149 11.21 18.7748 11.1285 18.7585 10.8081L18.6659 10.8299Z" fill="#3BA6B3"/>
<path fill-rule="evenodd" clip-rule="evenodd" d="M19.3086 11.3134H19.3957C19.4229 11.3134 19.4556 11.3025 19.4828 11.2971C19.5319 11.2862 19.5754 11.2862 19.6244 11.2917C19.8531 11.2971 19.6734 11.3242 19.8749 11.3242H19.9239V11.1993H19.864C19.8096 11.1993 19.6952 11.1776 19.7551 10.9495L19.8695 10.5477C20.0165 10.5585 20.0437 10.564 20.1145 10.564C20.2234 10.564 20.3487 10.564 20.4031 10.5585L20.512 11.0147C20.5392 11.1287 20.4902 11.2102 20.414 11.2048H20.3541V11.3297H20.4685C20.5175 11.3297 20.5665 11.3188 20.6209 11.308C20.6645 11.3025 20.7081 11.2971 20.7516 11.3025C20.8115 11.3025 20.8714 11.308 20.9259 11.3188C20.9694 11.3242 21.013 11.3405 21.062 11.3405H21.1274V11.2156H21.1001C21.0293 11.2156 20.9531 11.2428 20.8714 10.9821C20.7952 10.7323 20.8496 10.9713 20.5447 9.80914C20.4086 9.29325 20.3759 9.16834 20.3432 9C20.2833 9.03258 20.2125 9.05974 20.1363 9.0706C20.1036 9.26066 20.0492 9.45616 19.7987 10.2816C19.7497 10.4554 19.668 10.7106 19.57 10.9495C19.5264 11.0582 19.4665 11.1885 19.363 11.1885H19.3086V11.3134ZM20.1581 9.54848C20.1799 9.73854 20.218 9.78199 20.365 10.4065C20.3051 10.4228 20.2506 10.4282 20.1581 10.4228C20.0492 10.4228 19.9838 10.4119 19.913 10.4011C20.1036 9.71139 20.1254 9.66795 20.1363 9.55391L20.1581 9.54848Z" fill="#3BA6B3"/>
<path fill-rule="evenodd" clip-rule="evenodd" d="M21.4868 11.4054L21.5957 11.4272C21.6556 11.438 21.7101 11.4109 21.819 11.4326C21.8734 11.4435 21.9279 11.4652 21.9823 11.4869C22.015 11.4978 22.0422 11.514 22.0749 11.5195L22.1185 11.5303L22.1403 11.4054L22.0804 11.3891C22.0259 11.3783 21.9442 11.3294 22.0586 11.085L22.5214 10.1021C22.5759 9.98265 22.6086 9.91749 22.6303 9.80888L22.6521 9.81431C22.6467 9.89033 22.6412 9.91206 22.6467 9.95007L22.7338 11.0796C22.7447 11.2425 22.7883 11.5249 22.5759 11.4815L22.5432 11.476L22.5214 11.6064L22.6521 11.6335C22.6957 11.6389 22.7338 11.6335 22.7774 11.6281C22.8264 11.6227 22.8754 11.6335 22.9244 11.6444C22.9788 11.6552 23.0279 11.6661 23.0769 11.6933C23.1095 11.7095 23.1477 11.7313 23.1803 11.7367L23.2675 11.753L23.2892 11.6281L23.2348 11.6172C23.1095 11.5901 23.0769 11.248 23.0442 10.9221C22.9788 10.227 22.9462 9.87404 22.9298 9.33643C22.8645 9.34186 22.7937 9.34186 22.7229 9.34186C22.5704 9.71656 22.4234 10.0044 22.271 10.2976C21.9987 10.8352 21.9987 10.8135 21.8952 11.009C21.8353 11.1176 21.7155 11.3294 21.5739 11.2968L21.5086 11.2805L21.4868 11.4054Z" fill="#3BA6B3"/>
<path fill-rule="evenodd" clip-rule="evenodd" d="M24.6559 9.8689L24.6069 9.98294L24.6559 10.0047C24.803 10.0698 24.6559 10.3359 24.5743 10.5151L24.1659 11.4274C24.0951 11.5849 23.9644 11.8782 23.8282 11.8184L23.7792 11.7967L23.7302 11.9108L23.7792 11.9325C23.8664 11.9705 23.9154 11.9759 23.9753 11.9868C24.0569 12.0031 24.0787 12.0302 24.1386 12.0737C24.1767 12.1063 24.2149 12.128 24.2584 12.1497C24.3292 12.1931 24.3946 12.2257 24.4654 12.2583C24.9173 12.4592 25.1624 12.1497 25.2767 11.8836C25.402 11.6012 25.3638 11.2482 24.9445 11.0582C24.8792 11.031 24.8084 11.0039 24.7376 10.9821L24.8846 10.6509C24.9936 10.4065 25.0752 10.1893 25.2114 10.249L25.2604 10.2708L25.3094 10.1567L25.2277 10.1241C25.1896 10.1078 25.146 10.097 25.1025 10.0861C25.0535 10.0753 25.0099 10.059 24.9663 10.0372C24.9228 10.0209 24.8792 9.9938 24.8411 9.96665C24.803 9.94492 24.7703 9.91777 24.7322 9.90148L24.6559 9.8689ZM24.6941 11.0853C24.7158 11.0908 24.7431 11.1016 24.7648 11.1125C25.0208 11.2265 25.0807 11.4763 24.9445 11.7859C24.8084 12.09 24.596 12.1768 24.4545 12.1117C24.2965 12.0465 24.3183 11.9325 24.4055 11.737L24.6941 11.0853ZM26.0826 10.5043L26.0336 10.6183L26.0826 10.64C26.2297 10.7052 26.0881 10.9713 25.9955 11.1668L25.5871 12.0791C25.5218 12.2257 25.3965 12.5135 25.2604 12.4538L25.2114 12.4321L25.1624 12.5461L25.2495 12.5841C25.2876 12.6004 25.3312 12.6059 25.3747 12.6113C25.4237 12.6221 25.4673 12.6384 25.5109 12.6547C25.5544 12.6765 25.598 12.6982 25.6361 12.7253C25.6688 12.7525 25.7015 12.7851 25.7396 12.8014L25.8267 12.8394L25.8757 12.7253L25.8267 12.7036C25.7015 12.6493 25.8104 12.4049 25.8866 12.2257L26.3059 11.2863C26.3876 11.1016 26.491 10.8138 26.6381 10.879L26.6925 10.9115L26.7415 10.7975L26.6598 10.7595C26.6217 10.7432 26.5782 10.7323 26.5346 10.7215C26.4856 10.7106 26.442 10.6943 26.3985 10.6726C26.3549 10.6563 26.3168 10.6292 26.2732 10.6074C26.2351 10.5857 26.2024 10.5586 26.1589 10.5423L26.0826 10.5043Z" fill="#3BA6B3"/>
<path fill-rule="evenodd" clip-rule="evenodd" d="M27.6237 11.3677L27.5474 11.4709L27.591 11.5034C27.7108 11.5903 27.5583 11.7804 27.4385 11.9433L26.7687 12.8611C26.6871 12.9697 26.5237 13.1869 26.4093 13.1054L26.3658 13.0728L26.2896 13.176L26.3658 13.2303C26.3985 13.2575 26.442 13.2683 26.4856 13.2846C26.5291 13.3064 26.5727 13.3335 26.6108 13.3607C26.6489 13.3878 26.6871 13.4204 26.7197 13.4584C26.747 13.491 26.7742 13.529 26.8069 13.5562L26.8831 13.6105L26.9593 13.5073L26.9158 13.4747C26.8069 13.3932 26.9593 13.1706 27.041 13.0566L27.7108 12.1388C27.8306 11.9759 27.9667 11.775 28.0865 11.8618L28.1301 11.8944L28.2063 11.7913L28.1355 11.7424C28.1029 11.7152 28.0647 11.6989 28.0266 11.6826C27.9831 11.6609 27.9395 11.6338 27.9014 11.6066C27.8633 11.5795 27.8251 11.5415 27.7925 11.5089C27.7598 11.4763 27.7326 11.4437 27.6999 11.422L27.6237 11.3677ZM28.4187 12.1008L28.4677 12.1334C28.5004 12.1605 28.5004 12.2094 28.4514 12.2583C28.3425 12.3615 28.1628 12.3886 28.0266 12.4212C27.8687 12.4592 27.7054 12.5135 27.4549 12.5841C27.4494 12.9208 27.4113 13.2683 27.4004 13.415C27.3623 13.7679 27.3405 13.9526 27.5093 14.0775C27.591 14.1372 27.6237 14.1318 27.7544 14.1698L27.8306 14.0666C27.7271 14.0558 27.6945 14.0286 27.6781 14.0177C27.6128 13.9689 27.6455 13.8114 27.6672 13.6919C27.6945 13.5127 27.7108 13.3226 27.7326 13.138C27.7544 12.9751 27.7816 12.8068 27.6672 12.6167C27.7217 12.6058 27.7489 12.6004 27.7979 12.5895C27.9232 12.557 27.8143 12.5787 28.141 12.5135C28.74 12.3886 28.7726 12.356 28.9033 12.4483L28.9306 12.4701L29.0068 12.3669L28.9578 12.3343C28.936 12.318 28.9088 12.3071 28.887 12.2963C28.838 12.2746 28.7835 12.2474 28.74 12.2148C28.691 12.1768 28.6474 12.1334 28.6038 12.0845C28.5821 12.0628 28.5603 12.0465 28.5385 12.0302L28.4895 11.9976L28.4187 12.1008Z" fill="#3BA6B3"/>
<path fill-rule="evenodd" clip-rule="evenodd" d="M30.4225 13.8059L30.3245 13.8874L30.3572 13.9308C30.4498 14.0448 30.2537 14.1915 30.0958 14.3164L29.2137 15.0278C29.1102 15.1147 28.8924 15.2776 28.8053 15.1744L28.7726 15.1309L28.6746 15.2124L28.7345 15.2884C28.7617 15.321 28.7998 15.3427 28.8325 15.3699C28.8706 15.4025 28.9033 15.4351 28.9359 15.4731C28.9632 15.5111 28.9958 15.5491 29.0176 15.5925C29.034 15.6305 29.0503 15.674 29.0775 15.7066L29.1374 15.7826L29.2354 15.7011L29.2028 15.6577C29.1156 15.5491 29.3226 15.3753 29.4315 15.2884L30.3136 14.577C30.4715 14.4521 30.6567 14.2892 30.7492 14.4033L30.7819 14.4467L30.8799 14.3652L30.8255 14.3001C30.7983 14.2675 30.7656 14.2403 30.7329 14.2078C30.7002 14.1752 30.6621 14.1426 30.6295 14.1046C30.5968 14.0666 30.575 14.0231 30.5478 13.9851C30.526 13.9471 30.5042 13.9091 30.477 13.8765L30.4225 13.8059ZM30.9997 14.7182L31.0379 14.7617C31.0651 14.7943 31.0487 14.8486 30.9888 14.8757C30.8582 14.9463 30.673 14.93 30.5369 14.9246C30.3735 14.9192 30.1993 14.93 29.9433 14.9354C29.8508 15.2558 29.7255 15.5871 29.6711 15.7229C29.5458 16.0541 29.4696 16.2279 29.6057 16.3908C29.6711 16.4723 29.7037 16.4723 29.8181 16.5429L29.9161 16.4614C29.8235 16.4234 29.7963 16.3908 29.78 16.3745C29.731 16.3148 29.8018 16.1682 29.8508 16.0596C29.9216 15.8912 29.9923 15.712 30.0577 15.5437C30.1176 15.3862 30.1884 15.2341 30.1339 15.0223C30.1884 15.0278 30.2156 15.0278 30.2646 15.0278C30.3953 15.0278 30.2809 15.0223 30.6131 15.0386C31.223 15.0712 31.2666 15.0495 31.3646 15.1744L31.3864 15.2015L31.4844 15.1201L31.4463 15.0766C31.4299 15.0549 31.4081 15.0386 31.3864 15.0223C31.3428 14.9843 31.2992 14.9463 31.2666 14.9029C31.2284 14.854 31.1958 14.7997 31.1685 14.7399C31.1522 14.7128 31.1359 14.6911 31.1195 14.6694L31.0869 14.6259L30.9997 14.7182Z" fill="#3BA6B3"/>
<path fill-rule="evenodd" clip-rule="evenodd" d="M32.0996 16.1086L31.9853 16.1629L32.0071 16.2118C32.0724 16.3584 31.7892 16.4616 31.6095 16.5431L30.7056 16.9612C30.5477 17.0373 30.2591 17.173 30.1938 17.0318L30.172 16.9829L30.0576 17.0373L30.0794 17.0861C30.123 17.173 30.1556 17.2056 30.1938 17.2545C30.2482 17.3196 30.2428 17.3522 30.2591 17.4228C30.27 17.4717 30.2809 17.5151 30.2972 17.5586C30.319 17.6346 30.3517 17.7052 30.3843 17.7758C30.5913 18.2211 30.9833 18.1451 31.2447 18.0256C31.5279 17.8953 31.7293 17.602 31.5333 17.1839C31.5006 17.1187 31.4625 17.0535 31.4244 16.9884L31.7566 16.8363C32.0016 16.7223 32.2031 16.6137 32.2684 16.7494L32.2902 16.7983L32.4046 16.744L32.3665 16.6626C32.3501 16.6245 32.3229 16.5865 32.2957 16.5539C32.2684 16.5159 32.2412 16.4725 32.2249 16.429C32.2031 16.3856 32.1922 16.3367 32.1759 16.2933C32.165 16.2498 32.1541 16.2064 32.1378 16.1684L32.0996 16.1086ZM31.3264 17.0535C31.3373 17.0753 31.3482 17.097 31.3591 17.1187C31.4789 17.3685 31.3591 17.602 31.0541 17.7432C30.7546 17.8844 30.5368 17.8138 30.466 17.6672C30.3952 17.5151 30.4878 17.4445 30.6784 17.3522L31.3264 17.0535ZM32.7585 17.5206L32.6442 17.5749L32.666 17.6237C32.7313 17.7649 32.4536 17.8735 32.2521 17.9659L31.3482 18.3894C31.2066 18.4546 30.918 18.5958 30.8526 18.46L30.8309 18.4112L30.7165 18.4655L30.7546 18.5524C30.771 18.5904 30.8036 18.623 30.8309 18.6555C30.8581 18.6935 30.8853 18.737 30.9017 18.7804C30.9234 18.8239 30.9398 18.8673 30.9507 18.9162C30.9615 18.9596 30.9615 19.0031 30.9779 19.0411L31.016 19.128L31.1304 19.0737L31.1086 19.0248C31.0487 18.8999 31.2937 18.7859 31.468 18.7044L32.3991 18.27C32.5843 18.1831 32.8457 18.0365 32.9164 18.1831L32.9382 18.232L33.0526 18.1777L33.0145 18.0962C32.9981 18.0582 32.9709 18.0202 32.9437 17.9876C32.9164 17.9496 32.8892 17.9061 32.8729 17.8627C32.8511 17.8192 32.8402 17.7704 32.8239 17.7269C32.813 17.6835 32.8021 17.64 32.7858 17.602L32.7585 17.5206Z" fill="#3BA6B3"/>
<path fill-rule="evenodd" clip-rule="evenodd" d="M31.7567 19.4864L31.6859 19.5027C31.4681 19.557 31.2285 19.5732 31.2122 19.9371C31.2067 20.024 31.2122 20.1054 31.234 20.1869C31.3537 20.6648 31.8003 20.7517 32.0998 20.6811C32.4973 20.5833 32.5681 20.2249 32.5245 20.0457L32.5136 20.0023L32.5463 19.9914C32.6225 20.1597 32.8077 20.3987 33.1507 20.3172C33.374 20.2629 33.619 20.1109 33.5265 19.7416C33.4448 19.4212 33.3631 19.3778 33.3631 19.1931L33.276 19.2148C33.1943 19.2366 32.9438 19.2854 32.8403 19.3072L32.8621 19.3995C33.1181 19.3886 33.3141 19.4049 33.3685 19.6167C33.4121 19.7905 33.2869 19.9317 33.0527 19.986C32.7913 20.0511 32.5844 19.9208 32.5408 19.747C32.53 19.709 32.5245 19.6656 32.5191 19.6276L32.3448 19.671C32.3611 19.7036 32.3775 19.7362 32.3884 19.7905C32.4701 20.1163 32.2196 20.2792 31.9527 20.3444C31.6097 20.4313 31.3919 20.3064 31.3483 20.1109C31.3102 19.9588 31.3592 19.7362 31.773 19.5624L31.7567 19.4864Z" fill="#3BA6B3"/>
<path fill-rule="evenodd" clip-rule="evenodd" d="M31.5332 21.2781L31.5386 21.3596C31.5441 21.4519 31.5931 21.5388 31.5931 21.604C31.5985 21.6854 31.5659 21.7832 31.5713 21.832L31.5768 21.8918L31.702 21.8809L31.6966 21.8212C31.6857 21.6691 31.9743 21.68 32.0777 21.6746C32.3391 21.6583 33.0198 21.642 33.1668 21.6311L33.2213 21.6257V21.6528C33.1505 21.6691 32.9817 21.718 32.4317 21.9841C32.203 22.0927 32.0832 22.1633 31.898 22.2448C31.7891 22.2936 31.7891 22.2936 31.6639 22.3534L31.6693 22.4511C31.8545 22.5054 31.8763 22.5109 31.9688 22.5434C32.1866 22.6086 32.2139 22.6195 32.5079 22.7118C32.7693 22.7878 32.8837 22.8258 33.0035 22.8584C33.2812 22.9344 33.145 22.891 33.3084 22.9399V22.9562L33.1341 22.9616L32.1159 23.0811C31.8218 23.1136 31.7782 23.0539 31.7728 22.9724V22.9344L31.6476 22.9453L31.653 23.0105C31.6584 23.0539 31.6693 23.0919 31.6802 23.1354C31.6911 23.1897 31.7075 23.2385 31.7129 23.2928C31.7183 23.3471 31.7183 23.4015 31.7075 23.4612C31.702 23.4992 31.6911 23.5426 31.6911 23.5861L31.702 23.6621L31.8273 23.6513L31.8218 23.6132C31.8055 23.4123 32.252 23.396 32.5678 23.358L33.4336 23.2548C33.5371 23.244 33.646 23.2277 33.7549 23.2168C33.7767 23.2168 33.7985 23.2114 33.8203 23.2114C33.8747 23.206 33.9183 23.2005 34 23.1897C33.9673 23.1136 33.9455 23.0376 33.9292 22.9507C33.8802 22.9399 33.646 22.891 33.0634 22.7172C32.655 22.5923 32.4426 22.4946 32.1213 22.4457V22.424C32.2357 22.3914 32.3228 22.3479 32.4317 22.3045L33.8965 21.6637C33.8638 21.6148 33.842 21.5551 33.8257 21.4954C33.7386 21.5008 33.401 21.5171 33.1287 21.5171H32.1758C31.7674 21.5171 31.6748 21.3976 31.6693 21.3107L31.6639 21.2727L31.5332 21.2781Z" fill="#3BA6B3"/>
<path fill-rule="evenodd" clip-rule="evenodd" d="M31.5988 24.0696L31.5879 24.1565C31.5824 24.1836 31.5933 24.2162 31.5933 24.2434C31.5988 24.2922 31.5879 24.3411 31.5824 24.3845C31.5443 24.6126 31.5443 24.428 31.5116 24.6235L31.5062 24.6724L31.6314 24.6941L31.6423 24.6344C31.6478 24.58 31.6913 24.466 31.9037 24.5638L32.2849 24.7321C32.2577 24.8787 32.2413 24.9059 32.2359 24.971C32.2195 25.0796 32.2032 25.1991 32.2032 25.2534L31.7349 25.3023C31.6205 25.3132 31.5443 25.2534 31.5552 25.1774L31.5661 25.1177L31.4408 25.0959L31.4245 25.21C31.4191 25.2589 31.4245 25.3132 31.4245 25.362C31.4245 25.4055 31.4191 25.4489 31.4136 25.4924C31.4027 25.5521 31.3918 25.6064 31.3701 25.6661C31.3537 25.7096 31.3374 25.753 31.3319 25.7965L31.321 25.8616L31.4463 25.8834L31.4517 25.8562C31.4626 25.7856 31.4463 25.7042 31.7186 25.6607C31.9745 25.6173 31.7294 25.639 32.9274 25.4978C33.4611 25.4381 33.5863 25.4218 33.7606 25.4163C33.7388 25.3512 33.7225 25.2806 33.717 25.2046C33.5319 25.1448 33.3467 25.0634 32.5626 24.7049C32.3992 24.6289 32.1596 24.5149 31.9309 24.3845C31.8275 24.3248 31.7077 24.2488 31.724 24.1456L31.7349 24.0913L31.5988 24.0696ZM33.2269 25.1557C33.0363 25.1502 32.9873 25.1828 32.3448 25.2426C32.3393 25.1828 32.3448 25.1285 32.3557 25.0362C32.372 24.9276 32.3883 24.8624 32.4156 24.7973C33.0745 25.0851 33.1126 25.1068 33.2269 25.134V25.1557Z" fill="#3BA6B3"/>
<path fill-rule="evenodd" clip-rule="evenodd" d="M32.9547 27.5613L31.6151 27.0997C31.4082 27.0291 31.076 26.9096 31.125 26.7684L31.1414 26.7141L31.0216 26.6707L30.9889 26.7684C30.9726 26.8118 30.978 26.8553 30.9726 26.8987C30.9671 26.9476 30.9508 26.9965 30.9399 27.0399C30.9236 27.0834 30.9072 27.1322 30.88 27.1703C30.8582 27.2083 30.8255 27.2409 30.8147 27.2843L30.782 27.3766L30.9018 27.4201L30.9181 27.3658C30.9671 27.2137 31.3047 27.344 31.5117 27.4146L32.8512 27.8762L32.7859 28.0717C32.7532 28.1695 32.677 28.3595 32.4374 28.2781C32.4265 28.2726 32.3666 28.2564 32.3012 28.2183L32.2686 28.3161C32.5136 28.441 32.5517 28.4736 32.8022 28.5768C32.8621 28.3595 32.9492 28.012 33.0364 27.7622C33.069 27.6644 33.1562 27.4255 33.1943 27.344C33.2324 27.2517 33.2433 27.2354 33.3413 27.0291C33.1671 26.9585 33.1017 26.9205 32.8077 26.7793L32.775 26.8716C33.069 27.0508 33.0963 27.2028 33.0418 27.3603L32.9547 27.5613Z" fill="#3BA6B3"/>
<path fill-rule="evenodd" clip-rule="evenodd" d="M32.2797 29.4838L32.1708 29.4186L32.1436 29.4675C32.0565 29.6032 31.8114 29.4186 31.6481 29.3154L30.7986 28.7887C30.6516 28.6963 30.3738 28.528 30.4555 28.3977L30.4827 28.3542L30.3738 28.2891L30.3466 28.3379C30.2922 28.4194 30.2867 28.4683 30.2649 28.5226C30.2377 28.604 30.2105 28.6203 30.156 28.6692C30.1179 28.7018 30.0907 28.7398 30.0635 28.7778C30.0144 28.8375 29.9709 28.9027 29.9273 28.9679C29.6659 29.386 29.9382 29.6684 30.1887 29.8205C30.4501 29.9834 30.8095 29.9942 31.0545 29.6087C31.0926 29.5435 31.1253 29.4783 31.158 29.4132L31.4684 29.6032C31.6971 29.7444 31.8985 29.853 31.8169 29.9834L31.7896 30.0322L31.8985 30.0974L31.9476 30.0214C31.9693 29.9834 31.9857 29.9399 32.002 29.9019C32.0238 29.8585 32.0401 29.815 32.0674 29.7716C32.0946 29.7336 32.1273 29.6901 32.1545 29.6575C32.1817 29.625 32.2144 29.5924 32.2362 29.5544L32.2797 29.4838ZM31.0654 29.348C31.0545 29.3697 31.0436 29.3914 31.0273 29.4132C30.8803 29.6467 30.6243 29.6738 30.3357 29.4946C30.0526 29.3209 29.9927 29.0982 30.0798 28.9624C30.1669 28.8212 30.2813 28.8538 30.4555 28.9679L31.0654 29.348ZM31.452 30.7979L31.3431 30.7328L31.3159 30.7817C31.2342 30.9174 30.9892 30.7382 30.804 30.6242L29.96 30.0974C29.8239 30.016 29.5516 29.8476 29.6333 29.7227L29.6605 29.6793L29.5516 29.6141L29.5026 29.6956C29.4808 29.7336 29.4699 29.777 29.459 29.815C29.4427 29.8585 29.4209 29.9019 29.3937 29.9454C29.3664 29.9834 29.3392 30.0214 29.3065 30.0594C29.2739 30.092 29.2412 30.1191 29.2194 30.1517L29.1704 30.2332L29.2793 30.2983L29.3065 30.2549C29.3773 30.1409 29.606 30.2766 29.7694 30.3798L30.6407 30.9228C30.8095 31.0315 31.0817 31.1726 30.9946 31.3084L30.9674 31.3573L31.0763 31.4224L31.1253 31.3464C31.1471 31.3084 31.1634 31.265 31.1798 31.227C31.2015 31.1835 31.2179 31.1401 31.2451 31.0966C31.2723 31.0586 31.305 31.0152 31.3322 30.9826C31.3595 30.95 31.3921 30.9174 31.4139 30.8794L31.452 30.7979Z" fill="#3BA6B3"/>
</svg>
