<svg width="40" height="40" viewBox="0 0 40 40" fill="none" xmlns="http://www.w3.org/2000/svg">
<rect x="0.5" y="0.5" width="39" height="39" rx="5.5" fill="white" stroke="#EEEEEE"/>
<path d="M29.7499 8.94997L27.7999 7L25.8499 8.94997L23.8999 7L21.95 8.94997L20 7L18.05 8.94997L16.1001 7L14.1501 8.94997L12.2001 7V25.1997H8.30017V29.0997C8.30017 31.2576 10.0421 32.9996 12.2001 32.9996H27.7999C29.9579 32.9996 31.6998 31.2576 31.6998 29.0997V7L29.7499 8.94997ZM29.0999 29.0997C29.0999 29.8147 28.5149 30.3997 27.7999 30.3997C27.0849 30.3997 26.4999 29.8147 26.4999 29.0997V25.1997H14.8001V10.8999H29.0999V29.0997Z" fill="#3BA6B3"/>
<path d="M23.9 13.4998H16.1001V16.0997H23.9V13.4998Z" fill="#767676"/>
<path d="M27.7998 13.4998H25.1998V16.0997H27.7998V13.4998Z" fill="#767676"/>
<path d="M23.9 17.3997H16.1001V19.9996H23.9V17.3997Z" fill="#767676"/>
<path d="M27.7998 17.3997H25.1998V19.9996H27.7998V17.3997Z" fill="#767676"/>
</svg>
