<svg width="40" height="40" viewBox="0 0 40 40" fill="none" xmlns="http://www.w3.org/2000/svg">
<rect x="0.5" y="0.5" width="39" height="39" rx="5.5" fill="white" stroke="#EEEEEE"/>
<path d="M31.6667 5H8.33333C6.5 5 5 6.5 5 8.33333V31.6667C5 33.5 6.5 35 8.33333 35H31.6667C33.5 35 35 33.5 35 31.6667V8.33333C35 6.5 33.5 5 31.6667 5ZM15 28.3333H11.6667V20H15V28.3333ZM21.6667 28.3333H18.3333V23.3333H21.6667V28.3333ZM21.6667 20H18.3333V16.6667H21.6667V20ZM28.3333 28.3333H25V11.6667H28.3333V28.3333Z" fill="#F7A803"/>
</svg>
