<svg width="40" height="40" viewBox="0 0 40 40" fill="none" xmlns="http://www.w3.org/2000/svg">
<rect x="0.5" y="0.5" width="39" height="39" rx="5.5" fill="white" stroke="#EEEEEE"/>
<path d="M9.13513 8H26.7285C31.2807 8 34.9997 11.5987 34.9997 16.0024C34.9997 20.3961 31.2795 24.0048 26.7285 24.0048H5.00439V11.9965C5.00792 10.9376 5.44426 9.92307 6.21816 9.17432C6.99206 8.42557 8.04068 8.00341 9.13513 8V8Z" fill="url(#paint0_linear_531_81)"/>
<path d="M9.5662 8V16.0024H9.13561C8.03878 16.0024 6.98687 15.5809 6.21129 14.8305C5.43571 14.0801 5 13.0624 5 12.0012C5 10.94 5.43571 9.9223 6.21129 9.17193C6.98687 8.42155 8.03878 8 9.13561 8H9.5662Z" fill="url(#paint1_linear_531_81)"/>
<path d="M9.33 16.0024H26.7287C31.2809 16.0024 34.9999 19.6012 34.9999 24.0048C34.9999 28.3991 31.2797 31.9978 26.7287 31.9978H9.13538C8.04176 31.9944 6.99387 31.5729 6.22011 30.8252C5.44635 30.0775 5.00945 29.0641 5.00464 28.006V28.006V12.0012C5.00752 13.0607 5.4435 14.0761 6.2174 14.8258C6.9913 15.5754 8.04028 15.9984 9.13538 16.0024H9.33Z" fill="url(#paint2_linear_531_81)"/>
<path d="M5.00463 28.006V12.0012C5.00752 13.0607 5.44349 14.0761 6.21739 14.8258C6.99129 15.5754 8.04027 15.9984 9.13537 16.0024H9.56596V28.006C9.57029 29.0652 10.0077 30.0797 10.7825 30.828C11.5574 31.5762 12.6068 31.9974 13.7016 31.9996H8.91886C8.88608 32.0012 8.85325 31.9978 8.82155 31.9896C8.78532 31.9913 8.74903 31.9878 8.7139 31.979C8.68108 31.9808 8.64819 31.9772 8.61659 31.9684C8.57281 31.9684 8.54057 31.9578 8.50834 31.9578C8.4755 31.9472 8.44326 31.9472 8.41103 31.9372C8.36785 31.9372 8.33501 31.9266 8.30278 31.9266C8.27172 31.9146 8.23887 31.9074 8.20547 31.9055L8.10816 31.8743C8.07476 31.8723 8.04191 31.8651 8.01085 31.8531L7.91354 31.8219L7.81623 31.7907L7.71893 31.7589L7.62162 31.7278C7.59171 31.7161 7.56283 31.7021 7.53526 31.686C7.501 31.6764 7.46826 31.6624 7.43795 31.6442C7.40841 31.6353 7.37938 31.6249 7.35098 31.613C7.31875 31.5918 7.28651 31.5812 7.25367 31.5607C7.22393 31.5486 7.19508 31.5347 7.16731 31.5189C7.13508 31.5083 7.11318 31.4871 7.08095 31.4765C7.05466 31.4556 7.02562 31.4382 6.99459 31.4247C6.96733 31.4047 6.93822 31.3872 6.90762 31.3724C6.88633 31.3512 6.85349 31.3406 6.8322 31.32C6.80593 31.2989 6.77689 31.2813 6.74584 31.2676C6.72395 31.2464 6.69172 31.2258 6.66982 31.2047C6.64348 31.1837 6.61446 31.1661 6.58346 31.1523C6.56049 31.1289 6.53501 31.108 6.50744 31.0899C6.48615 31.0687 6.45392 31.0476 6.43202 31.027C6.40918 31.0035 6.38391 30.9824 6.35661 30.964L6.29154 30.901L6.21551 30.8304L6.15105 30.7675L6.07503 30.6945C6.05374 30.6733 6.03184 30.6421 6.01056 30.621C5.98927 30.5998 5.96677 30.5692 5.94548 30.548C5.9242 30.5268 5.9023 30.4956 5.88041 30.475C5.8664 30.4447 5.84819 30.4164 5.82628 30.3909C5.80214 30.3689 5.78053 30.3444 5.76181 30.3179C5.75087 30.2967 5.72897 30.2656 5.70769 30.2344C5.68579 30.2132 5.67484 30.182 5.65356 30.1608C5.63166 30.1296 5.62072 30.1084 5.59943 30.0773C5.58848 30.0461 5.5672 30.0249 5.55625 29.9937C5.53434 29.9682 5.51613 29.9399 5.50212 29.9096C5.48983 29.8807 5.4754 29.8528 5.45894 29.826C5.4398 29.7969 5.42525 29.7651 5.41576 29.7319C5.39475 29.7077 5.37996 29.6791 5.37258 29.6483C5.3535 29.6191 5.33876 29.5874 5.32879 29.5542C5.31258 29.5272 5.29816 29.4993 5.28561 29.4706L5.25338 29.3765L5.22115 29.2823L5.18709 29.1858L5.15485 29.0917C5.14391 29.0599 5.14391 29.0287 5.13296 28.9975L5.10073 28.9034C5.09869 28.8709 5.09129 28.8389 5.07883 28.8086C5.07883 28.7775 5.06849 28.7463 5.06849 28.7045C5.05755 28.6727 5.05755 28.6415 5.0466 28.6103C5.0466 28.5786 5.03565 28.5474 5.03565 28.5162C5.02759 28.4819 5.02412 28.4467 5.02531 28.4115C5.01569 28.3774 5.01199 28.342 5.01437 28.3067C5.01437 28.2755 5.00342 28.2438 5.00342 28.2126H5.00463V28.006Z" fill="url(#paint3_linear_531_81)"/>
<path d="M34.9881 23.7763C34.9975 23.8527 35.0011 23.9295 34.9991 24.0064C34.9972 24.6731 34.9119 25.3372 34.7449 25.984C34.5605 26.6631 34.2881 27.317 33.9342 27.9299C34.7248 26.12 32.7659 25.9946 32.3334 25.984H27.5617C27.0572 25.9833 26.5737 25.789 26.217 25.4439C25.8602 25.0988 25.6595 24.631 25.6587 24.1429C25.6616 23.6564 25.8633 23.1907 26.2199 22.8477C26.5764 22.5046 27.0588 22.3119 27.5617 22.3118H33.4336C33.8389 22.3119 34.228 22.4651 34.5183 22.7386C34.8086 23.0121 34.9772 23.3844 34.9881 23.7763Z" fill="url(#paint4_linear_531_81)"/>
<path d="M34.9878 23.7764C34.9972 23.8527 35.0008 23.9296 34.9988 24.0065C34.997 24.388 34.9682 24.769 34.9124 25.1468C34.5767 24.4878 33.5392 24.4254 33.2363 24.4148H28.4591C27.9578 24.4125 27.4778 24.2188 27.1234 23.8759C26.769 23.533 26.5688 23.0686 26.5664 22.5837C26.8645 22.4031 27.2097 22.3087 27.5614 22.3118H33.4333C33.8386 22.312 34.2277 22.4651 34.518 22.7386C34.8084 23.0122 34.9769 23.3845 34.9878 23.7764Z" fill="url(#paint5_linear_531_81)"/>
<path d="M27.9938 23.3892C28.0969 23.3884 28.1991 23.4073 28.2947 23.4448C28.3902 23.4822 28.4772 23.5375 28.5506 23.6076C28.624 23.6776 28.6825 23.7609 28.7226 23.8527C28.7627 23.9446 28.7837 24.0432 28.7845 24.143C28.7845 24.3458 28.7012 24.5404 28.5529 24.6839C28.4046 24.8273 28.2035 24.9079 27.9938 24.9079C27.8908 24.9072 27.7889 24.8868 27.694 24.8479C27.5992 24.809 27.5131 24.7525 27.4408 24.6814C27.3685 24.6104 27.3114 24.5263 27.2727 24.4339C27.2341 24.3415 27.2146 24.2427 27.2154 24.143C27.2149 24.0439 27.2347 23.9457 27.2736 23.8541C27.3126 23.7625 27.3699 23.6792 27.4422 23.6091C27.5146 23.539 27.6006 23.4835 27.6953 23.4458C27.79 23.408 27.8914 23.3888 27.9938 23.3892Z" fill="#89ED14"/>
<path d="M27.9938 23.3894C28.0974 23.3906 28.2002 23.4083 28.2979 23.4418C28.3203 23.5095 28.3313 23.5802 28.3307 23.6512C28.3297 23.8538 28.2461 24.0478 28.0981 24.1911C27.95 24.3343 27.7495 24.4152 27.5401 24.4161C27.439 24.4176 27.339 24.396 27.2482 24.3532C27.2258 24.2857 27.2147 24.2152 27.2154 24.1443C27.2147 24.0451 27.2344 23.9468 27.2733 23.8551C27.3121 23.7633 27.3694 23.6799 27.4418 23.6097C27.5142 23.5395 27.6002 23.4839 27.695 23.4461C27.7897 23.4083 27.8913 23.389 27.9938 23.3894Z" fill="#99FF00"/>
<path d="M32.244 25.9843H27.5611C27.1597 25.9837 26.7689 25.8603 26.4446 25.6315C26.1203 25.4027 25.8792 25.0805 25.756 24.7109C25.6912 24.8927 25.6584 25.0836 25.6587 25.2758C25.6593 25.7639 25.86 26.2319 26.2168 26.577C26.5735 26.9222 27.0572 27.1163 27.5617 27.117H32.3304C32.6345 27.1275 33.6282 27.1905 33.9852 27.7972C34.6123 26.1231 32.7525 25.9872 32.3304 25.9872L32.244 25.9843Z" fill="url(#paint6_linear_531_81)"/>
<path d="M13.2784 22.6199C13.4363 23.5629 13.3893 23.7656 13.2348 24.1486C13.2247 24.1743 13.3322 24.2612 13.3725 24.1647C13.4968 23.8557 13.4968 23.8525 13.5169 23.5822C13.5371 23.241 13.2717 22.5941 13.2784 22.6199ZM19.7344 22.3045C19.7411 22.2755 19.291 23.1992 19.3179 23.5725C19.3414 23.8686 19.328 23.9587 19.4791 24.2934C19.5261 24.3996 19.6571 24.3031 19.6471 24.2741C19.4354 23.6143 19.4019 23.5757 19.7344 22.3045ZM20.4431 22.3946C20.4499 22.3656 20.1308 23.1123 20.1576 23.4856C20.1811 23.7817 20.1711 23.7366 20.3222 24.0713C20.3692 24.1776 20.507 24.0874 20.4935 24.0617C20.3088 23.6433 20.2517 23.4245 20.4431 22.3946ZM21.2325 22.5459C21.2359 22.5233 20.9638 23.0898 20.9873 23.3891C21.0074 23.6272 21.0074 23.6304 21.1351 23.8976C21.1754 23.9812 21.2862 23.9072 21.2762 23.8847C21.1183 23.5532 21.0679 23.373 21.2325 22.5459ZM15.9925 21.9859C15.9421 21.9215 15.8615 21.8539 15.9018 21.9312C16.0059 22.1436 16.1302 22.2466 16.3183 22.2852C16.54 22.3302 16.718 22.1951 16.8322 21.9601C16.8692 21.8797 16.6508 22.1532 16.3788 22.1468C16.2142 22.1436 16.0933 22.1114 15.9925 21.9859ZM16.0126 22.9481C15.9623 22.8838 15.8816 22.8162 15.9219 22.8934C16.0261 23.1058 16.1504 23.2088 16.3385 23.2475C16.5602 23.2925 16.7382 23.1573 16.8524 22.9224C16.8893 22.8419 16.671 23.1155 16.3989 23.1091C16.2343 23.1058 16.1134 23.0769 16.0126 22.9481ZM16.0328 23.9845C15.9824 23.9201 15.9018 23.8525 15.9421 23.933C16.0462 24.1454 16.1705 24.2484 16.3586 24.287C16.5803 24.332 16.7583 24.1969 16.8725 23.9619C16.9095 23.8815 16.6912 24.155 16.4191 24.1486C16.2545 24.1422 16.1302 24.1132 16.0328 23.9845ZM16.0865 24.8727C16.0362 24.8083 15.9555 24.7408 15.9958 24.8212C16.1 25.0336 16.2243 25.1366 16.4124 25.1752C16.6341 25.2203 16.8121 25.0851 16.9263 24.8502C16.9632 24.7697 16.7449 25.0433 16.4728 25.0369C16.3116 25.0304 16.1873 25.0014 16.0865 24.8727ZM16.9464 21.4838C16.8961 21.4194 16.8154 21.3519 16.8557 21.4291C16.9599 21.6415 17.0842 21.7445 17.2723 21.7831C17.494 21.8282 17.672 21.693 17.7862 21.4581C17.8231 21.3776 17.6048 21.6512 17.3327 21.6447C17.1681 21.6383 17.0472 21.6093 16.9464 21.4838ZM16.9632 22.4461C16.9128 22.3817 16.8322 22.3141 16.8725 22.3914C16.9767 22.6038 17.1009 22.7068 17.2891 22.7454C17.5107 22.7905 17.6888 22.6553 17.803 22.4203C17.8399 22.3399 17.6216 22.6134 17.3495 22.607C17.1849 22.6038 17.064 22.5716 16.9632 22.4461ZM16.9834 23.4824C16.933 23.418 16.8524 23.3504 16.8927 23.4277C16.9968 23.6401 17.1211 23.7431 17.3092 23.7817C17.5309 23.8268 17.7089 23.6916 17.8231 23.4566C17.8601 23.3762 17.6417 23.6497 17.3697 23.6433C17.2051 23.6401 17.0842 23.6079 16.9834 23.4824ZM17.0405 24.3707C16.9901 24.3063 16.9095 24.2387 16.9498 24.3192C17.0539 24.5316 17.1782 24.6346 17.3663 24.6732C17.588 24.7182 17.766 24.5831 17.8802 24.3481C17.9172 24.2677 17.6988 24.5412 17.4268 24.5348C17.2622 24.5284 17.1413 24.4994 17.0405 24.3707ZM17.8265 22.0341C17.7761 21.9698 17.6955 21.9022 17.7358 21.9794C17.8399 22.1918 17.9642 22.2948 18.1523 22.3334C18.374 22.3785 18.552 22.2433 18.6662 22.0084C18.7032 21.9279 18.4849 22.2015 18.2128 22.1951C18.0482 22.1886 17.9239 22.1597 17.8265 22.0341ZM17.8433 22.9964C17.7929 22.9321 17.7123 22.8645 17.7526 22.9417C17.8567 23.1541 17.981 23.2571 18.1691 23.2957C18.3908 23.3408 18.5688 23.2056 18.683 22.9707C18.72 22.8902 18.5016 23.1638 18.2296 23.1573C18.065 23.1541 17.9441 23.1219 17.8433 22.9964ZM17.8634 24.0327C17.8131 23.9684 17.7324 23.9008 17.7727 23.9812C17.8769 24.1936 18.0012 24.2966 18.1893 24.3353C18.411 24.3803 18.589 24.2451 18.7032 24.0102C18.7401 23.9297 18.5218 24.2033 18.2497 24.1969C18.0851 24.1904 17.9608 24.1615 17.8634 24.0327ZM17.9205 24.921C17.8702 24.8566 17.7895 24.789 17.8298 24.8663C17.934 25.0787 18.0583 25.1817 18.2464 25.2203C18.4681 25.2654 18.6461 25.1302 18.7603 24.8952C18.7972 24.8148 18.5789 25.0883 18.3068 25.0819C18.1422 25.0787 18.018 25.0497 17.9205 24.921ZM14.7261 22.3463C15.0486 23.7978 15.015 23.8396 14.8101 24.5959C14.8 24.6281 14.9277 24.7375 14.9714 24.6185C15.1158 24.2355 15.1057 24.1293 15.1259 23.7946C15.1527 23.3665 14.7194 22.3141 14.7261 22.3463ZM14.0443 22.4493C14.229 23.624 14.1719 23.875 13.9939 24.3513C13.9805 24.3835 14.1148 24.4833 14.1618 24.3642C14.3063 23.9812 14.2996 24.0327 14.3197 23.6948C14.3466 23.2668 14.0376 22.4139 14.0443 22.4493ZM17.0338 18.7257C16.9532 18.7257 16.8893 18.7901 16.8893 18.8673C16.8893 18.9252 16.9599 19.0089 17.0237 19.0121C17.3159 19.025 17.2152 18.8641 17.2823 18.8641C17.3327 18.8641 17.6753 18.8576 17.6753 18.996C17.6753 19.0507 17.7123 19.0604 17.7123 19.0025C17.7089 18.8126 17.1849 18.7257 17.0338 18.7257ZM20.2114 19.8682C21.2258 19.9712 22.2436 21.7767 22.2335 23.0994C22.2335 23.2989 21.8505 22.9707 21.9379 23.1509C22.2167 23.7206 22.079 24.3674 22.1058 24.715C22.126 24.9371 21.8304 24.9821 21.8304 24.9821C21.8304 25.6773 21.7431 26.189 21.4408 26.8262C21.2224 27.2929 20.8025 27.8304 20.6749 28.2874C20.3894 28.2101 20.1475 27.8239 20.1475 27.6341C20.1475 27.3219 20.5641 26.5656 20.7824 26.0217C20.8832 25.732 20.9302 25.5035 21.0813 25.3716C20.8025 25.584 20.7555 25.8125 20.6212 26.0828C20.423 26.4915 20.0972 27.1256 20.0065 27.5246C19.7915 27.3508 19.5933 27.1095 19.5933 26.881C19.5933 26.7619 20.161 25.4617 20.339 25.1849C19.8116 25.5679 19.7478 26.2244 19.4825 26.7844C19.3179 26.6525 19.1466 26.3757 19.1466 26.1761C19.1466 26.0056 19.5866 25.0143 19.6941 24.9178C19.3212 25.0916 19.1499 25.7127 19.0391 26.0667C18.7872 25.8447 18.7502 25.5453 18.7368 25.304C18.6461 25.7095 18.28 26.6525 18.28 26.7941C18.28 26.9035 18.5755 27.6373 18.6696 27.7531C18.7401 27.7596 18.8678 27.6373 19.0962 27.7596C19.2037 27.8658 19.2507 27.7853 19.375 28.0396C19.3044 28.0428 19.1936 27.9494 19.1466 27.9334C19.0021 27.8851 19.0458 27.9366 18.945 27.9848C18.8342 28.0363 18.72 27.9301 18.6965 27.9462C18.9585 28.149 19.0995 28.1651 18.9887 28.4483C18.9685 28.503 18.8946 28.6575 18.8711 28.6864C18.8275 28.6382 18.8443 28.4258 18.8006 28.3131C18.4815 28.3099 18.6696 28.0138 18.4949 27.9945C18.4277 28.3067 18.0986 28.0299 18.0146 28.3389L17.9172 28.4386C17.8802 27.8658 18.3572 27.8593 18.3505 27.8304C18.1691 27.0451 17.3294 26.366 17.3294 26.366C16.9901 26.7876 16.6374 26.9518 16.3284 27.8304C16.3183 27.8593 16.7919 27.9366 16.8557 28.5127L16.7953 28.4901C16.7785 28.4097 16.6844 28.3035 16.5803 28.2842C16.4191 28.252 16.231 28.3035 16.2679 28.0299C16.2075 28.0717 16.2041 28.1329 16.1235 28.252C16.0597 28.3453 15.8951 28.4612 15.8749 28.5899C15.8615 28.6736 15.9287 28.7669 15.9757 28.8538C15.9421 28.812 15.7238 28.6253 15.7506 28.5706C15.9186 28.2166 15.5793 28.2745 15.979 27.9462C15.9589 27.9269 15.8413 28.075 15.7305 28.0235C15.5928 27.9591 15.6364 28.1232 15.3509 28.1168C15.5222 28.0106 15.5558 27.8336 15.7137 27.7692C15.7809 27.7435 15.9858 27.7467 16.0563 27.7403C16.1504 27.6244 16.3922 26.9035 16.3922 26.7941C16.3922 26.6525 16.0261 25.7095 15.9354 25.304C15.9219 25.5453 15.8884 25.8447 15.6331 26.0667C15.5222 25.7127 15.3509 25.0916 14.9781 24.9178C15.0856 25.0143 15.5256 26.0056 15.5256 26.1761C15.5256 26.3757 15.3543 26.6525 15.1897 26.7844C14.9243 26.2244 14.8605 25.5647 14.3331 25.1849C14.5112 25.4617 15.0788 26.7619 15.0788 26.881C15.0788 27.1062 14.8807 27.3476 14.6657 27.5246C14.575 27.1288 14.2492 26.4915 14.051 26.0828C13.9166 25.8125 13.8696 25.584 13.5908 25.3716C13.742 25.5035 13.789 25.732 13.8898 26.0217C14.1081 26.5623 14.5246 27.3187 14.5246 27.6341C14.5246 27.8207 14.2794 28.2101 13.9973 28.2874C13.8662 27.8304 13.48 27.28 13.2314 26.8262C12.5831 25.6419 12.9157 25.3973 12.8115 24.7729C12.7779 24.5734 12.5831 24.8019 12.6033 24.4447C12.6033 24.4447 12.2539 23.2121 12.8653 22.3624C12.8753 22.224 12.5126 22.5233 12.5294 22.3946C12.6066 21.8604 13.3221 19.9808 14.4641 19.8682C15.1427 19.8006 15.1091 20.6599 15.5357 20.9528C15.6331 21.0204 15.754 21.059 15.9119 21.059C16.2007 21.059 16.3721 20.8788 16.4728 20.6535C16.6105 20.3574 16.6206 19.9873 16.6206 19.8779C16.6206 19.5818 16.6508 19.1891 16.0563 19.2052C16.1604 19.1441 16.2746 19.128 16.3351 19.128C16.5098 19.128 16.6878 19.2052 16.8557 19.3179L16.8927 19.2792C16.7751 19.0894 16.4661 19.0314 16.3217 19.0314C16.2209 19.0314 15.8984 19.1022 15.8413 19.2213C15.8044 19.1956 15.7775 19.173 15.7775 19.1151C15.7742 18.9799 15.8111 18.8061 15.8917 18.7482C16.1705 18.5519 16.4325 18.6806 16.5769 18.5873C16.8222 18.4264 16.9263 18.3652 17.1379 18.3652C17.1984 18.3652 17.7224 18.436 18.0247 18.5101C18.0515 18.5358 18.0549 18.5197 18.0549 18.5809C18.0549 18.642 18.028 18.6742 18.0045 18.6871C18.1758 18.7514 18.2531 19.1859 18.2531 19.3372V20.1675C18.2531 20.5505 18.3908 20.9624 18.9081 20.9689C19.7713 20.9817 19.4556 19.7942 20.2114 19.8682ZM16.0227 25.938L16.2914 26.7619C16.1672 27.103 16.147 27.4184 16.0126 27.6341C15.969 27.7016 15.6801 27.6598 15.6028 27.7081C15.5088 27.7692 15.3912 27.9623 15.2837 28.0331L16.0227 25.938ZM16.1907 29.0276C16.1302 29.0276 15.5659 29.0212 15.5021 29.0212C15.324 29.0212 15.052 28.9664 15.052 28.6929C15.052 28.6317 15.1527 28.3646 15.2636 28.1908C15.3005 28.2455 15.314 28.1812 15.3744 28.1812C15.4349 28.1812 15.5054 28.1908 15.5592 28.1651C15.5592 28.1651 15.6767 28.12 15.7103 28.1136C15.6633 28.2262 15.7271 28.3421 15.707 28.429C15.67 28.577 15.6532 28.635 15.6902 28.6832C15.7473 28.7572 15.8212 28.8924 15.9925 28.9149C16.0731 28.9182 15.9488 28.7218 15.9488 28.6156C15.9522 28.4773 16.1369 28.4097 16.2075 28.2455C16.2276 28.3646 16.4191 28.3389 16.5702 28.3871C16.6844 28.4386 16.6441 28.5674 16.8557 28.6317C16.9632 28.6639 16.933 28.4612 16.933 28.429C16.933 28.2262 16.6912 27.8819 16.4661 27.8143C16.5669 27.2575 17.3394 26.543 17.363 26.5173C17.5914 26.7522 18.1187 27.2768 18.196 27.7692C18.112 27.8593 17.9172 27.8497 17.8332 28.2681C17.8265 28.3002 17.8131 28.5287 17.9172 28.5738C17.9911 28.606 18.1154 28.4193 18.1355 28.3131C18.1624 28.1779 18.3471 28.3775 18.4781 28.1747C18.5218 28.2294 18.5453 28.2809 18.5722 28.355C18.5957 28.4193 18.7233 28.3678 18.7435 28.429C18.7905 28.577 18.7536 28.7927 18.8476 28.7894C18.9585 28.7669 19.0928 28.5481 19.0928 28.4193C19.0928 28.3582 19.1902 28.1651 18.9618 28.0557C18.9887 28.0267 19.1533 28.017 19.1533 28.017C19.207 28.0428 19.2977 28.1458 19.4556 28.194C19.5664 28.3678 19.6672 28.635 19.6672 28.6961C19.6672 28.9664 19.4354 29.0244 19.2541 29.0244C19.197 29.0212 16.7583 29.0276 16.1907 29.0276ZM18.6797 25.8704L19.3716 27.8658C19.2641 27.795 19.1734 27.692 19.0794 27.6341C19.0021 27.5858 18.7972 27.692 18.7536 27.6212C18.5688 27.3154 18.4949 27.1256 18.3706 26.7844L18.6797 25.8704Z" fill="white"/>
<defs>
<linearGradient id="paint0_linear_531_81" x1="4.96509" y1="16.0796" x2="28.5374" y2="16.0796" gradientUnits="userSpaceOnUse">
<stop stop-color="#7EB1B1"/>
<stop offset="1" stop-color="#99E1E1"/>
</linearGradient>
<linearGradient id="paint1_linear_531_81" x1="4.25278" y1="15.9494" x2="4.25278" y2="9.09087" gradientUnits="userSpaceOnUse">
<stop stop-color="#62919B"/>
<stop offset="1" stop-color="#80B5B5"/>
</linearGradient>
<linearGradient id="paint2_linear_531_81" x1="24.7327" y1="30.2045" x2="0.793581" y2="13.1214" gradientUnits="userSpaceOnUse">
<stop stop-color="#15AE5D"/>
<stop offset="1" stop-color="#007479"/>
</linearGradient>
<linearGradient id="paint3_linear_531_81" x1="6.25962" y1="17.2789" x2="6.26061" y2="31.6358" gradientUnits="userSpaceOnUse">
<stop stop-color="#058272"/>
<stop offset="1" stop-color="#0C765D"/>
</linearGradient>
<linearGradient id="paint4_linear_531_81" x1="29.4337" y1="24.9438" x2="23.149" y2="24.9438" gradientUnits="userSpaceOnUse">
<stop stop-color="#51B13C"/>
<stop offset="1" stop-color="#63C340"/>
</linearGradient>
<linearGradient id="paint5_linear_531_81" x1="28.8996" y1="24.3652" x2="4.96065" y2="7.28209" gradientUnits="userSpaceOnUse">
<stop stop-color="#65CA3D"/>
<stop offset="1" stop-color="#59A44F"/>
</linearGradient>
<linearGradient id="paint6_linear_531_81" x1="30.7321" y1="26.0425" x2="23.0765" y2="26.0425" gradientUnits="userSpaceOnUse">
<stop stop-color="#0C8051"/>
<stop offset="1" stop-color="#12A561"/>
</linearGradient>
</defs>
</svg>
