<svg width="49" height="40" viewBox="0 0 49 40" fill="none" xmlns="http://www.w3.org/2000/svg">
<path d="M12.726 21.1636C13.1713 23.9356 13.0387 24.5316 12.6028 25.6575C12.5744 25.7331 12.8776 25.9886 12.9913 25.7048C13.3419 24.7965 13.3419 24.7871 13.3988 23.9924C13.4556 22.9895 12.707 21.0879 12.726 21.1636ZM30.9385 20.2364C30.9575 20.1513 29.6877 22.8665 29.7635 23.964C29.8298 24.8344 29.7919 25.0993 30.2183 26.0832C30.351 26.3954 30.7206 26.1116 30.6921 26.0264C30.0952 24.087 30.0004 23.9734 30.9385 20.2364ZM32.9379 20.5013C32.9569 20.4162 32.0567 22.6111 32.1325 23.7085C32.1988 24.5789 32.1704 24.4465 32.5968 25.4304C32.7294 25.7426 33.1179 25.4777 33.08 25.402C32.5589 24.1721 32.3978 23.5288 32.9379 20.5013ZM35.1647 20.946C35.1742 20.8798 34.4067 22.5449 34.473 23.4247C34.5298 24.1248 34.5298 24.1343 34.8899 24.9195C35.0036 25.1655 35.3163 24.9479 35.2879 24.8817C34.8425 23.9072 34.7004 23.3774 35.1647 20.946ZM20.3824 19.2998C20.2403 19.1106 20.0129 18.9119 20.1266 19.139C20.4203 19.7634 20.7709 20.0662 21.3016 20.1797C21.927 20.3121 22.4292 19.9148 22.7514 19.2241C22.8556 18.9876 22.2397 19.7918 21.4722 19.7729C21.0078 19.7634 20.6667 19.6688 20.3824 19.2998ZM20.4393 22.1286C20.2972 21.9394 20.0697 21.7407 20.1834 21.9678C20.4772 22.5922 20.8278 22.8949 21.3584 23.0084C21.9839 23.1409 22.4861 22.7435 22.8082 22.0529C22.9125 21.8164 22.2966 22.6206 21.529 22.6016C21.0647 22.5922 20.7236 22.507 20.4393 22.1286ZM20.4961 25.175C20.354 24.9857 20.1266 24.7871 20.2403 25.0236C20.5341 25.648 20.8847 25.9507 21.4153 26.0643C22.0407 26.1967 22.5429 25.7994 22.8651 25.1087C22.9693 24.8722 22.3534 25.6764 21.5859 25.6575C21.1216 25.6385 20.7709 25.5534 20.4961 25.175ZM20.6478 27.7861C20.5056 27.5969 20.2782 27.3982 20.3919 27.6347C20.6857 28.2592 21.0363 28.5619 21.5669 28.6754C22.1923 28.8079 22.6945 28.4105 23.0167 27.7199C23.121 27.4834 22.505 28.2875 21.7375 28.2686C21.2826 28.2497 20.932 28.1645 20.6478 27.7861ZM23.0736 17.824C22.9314 17.6347 22.704 17.4361 22.8177 17.6631C23.1115 18.2875 23.4621 18.5903 23.9927 18.7038C24.6181 18.8363 25.1203 18.4389 25.4425 17.7483C25.5468 17.5118 24.9308 18.3159 24.1633 18.297C23.699 18.2781 23.3578 18.1929 23.0736 17.824ZM23.1209 20.6527C22.9788 20.4635 22.7514 20.2648 22.8651 20.4919C23.1589 21.1163 23.5095 21.419 24.0401 21.5326C24.6655 21.665 25.1677 21.2677 25.4899 20.577C25.5941 20.3405 24.9782 21.1447 24.2107 21.1258C23.7464 21.1163 23.4052 21.0217 23.1209 20.6527ZM23.1778 23.6991C23.0357 23.5099 22.8082 23.3112 22.922 23.5382C23.2157 24.1627 23.5663 24.4654 24.097 24.5789C24.7224 24.7114 25.2246 24.314 25.5468 23.6234C25.651 23.3869 25.0351 24.191 24.2675 24.1721C23.8032 24.1627 23.4621 24.068 23.1778 23.6991ZM23.3389 26.3102C23.1968 26.121 22.9693 25.9224 23.083 26.1589C23.3768 26.7833 23.7274 27.086 24.258 27.1996C24.8835 27.332 25.3857 26.9347 25.7078 26.244C25.8121 26.0075 25.1962 26.8117 24.4286 26.7927C23.9643 26.7738 23.6232 26.6887 23.3389 26.3102ZM25.5562 19.4417C25.4141 19.2525 25.1867 19.0539 25.3004 19.2809C25.5941 19.9053 25.9447 20.2081 26.4754 20.3216C27.1008 20.454 27.603 20.0567 27.9252 19.3661C28.0294 19.1295 27.4135 19.9337 26.646 19.9148C26.1816 19.8959 25.831 19.8107 25.5562 19.4417ZM25.6036 22.2705C25.4615 22.0813 25.2341 21.8826 25.3478 22.1097C25.6415 22.7341 25.9921 23.0368 26.5228 23.1504C27.1482 23.2828 27.6504 22.8855 27.9726 22.1948C28.0768 21.9583 27.4609 22.7625 26.6933 22.7435C26.229 22.7341 25.8879 22.6395 25.6036 22.2705ZM25.6605 25.3169C25.5183 25.1276 25.2909 24.929 25.4046 25.1655C25.6984 25.7899 26.049 26.0926 26.5796 26.2062C27.205 26.3386 27.7072 25.9413 28.0294 25.2506C28.1337 25.0141 27.5177 25.8183 26.7502 25.7994C26.2859 25.7804 25.9353 25.6953 25.6605 25.3169ZM25.8216 27.928C25.6794 27.7388 25.452 27.5401 25.5657 27.7672C25.8595 28.3916 26.2101 28.6944 26.7407 28.8079C27.3661 28.9403 27.8683 28.543 28.1905 27.8523C28.2947 27.6158 27.6788 28.42 26.9113 28.4011C26.447 28.3916 26.0964 28.3065 25.8216 27.928ZM16.8101 20.3594C17.7197 24.6262 17.625 24.7492 17.0469 26.9725C17.0185 27.0671 17.3786 27.3888 17.5018 27.0387C17.9092 25.9129 17.8808 25.6007 17.9377 24.6168C18.0135 23.3585 16.7911 20.2648 16.8101 20.3594ZM14.8865 20.6622C15.4076 24.1153 15.2465 24.8533 14.7443 26.2535C14.7064 26.3481 15.0855 26.6414 15.2181 26.2913C15.6256 25.1655 15.6066 25.3169 15.6635 24.3235C15.7393 23.0652 14.8675 20.5581 14.8865 20.6622ZM23.3199 9.7161C23.0925 9.7161 22.9125 9.90531 22.9125 10.1324C22.9125 10.3027 23.1115 10.5486 23.2915 10.5581C24.1159 10.5959 23.8316 10.1229 24.0212 10.1229C24.1633 10.1229 25.1298 10.104 25.1298 10.5108C25.1298 10.6716 25.2341 10.7 25.2341 10.5297C25.2246 9.97154 23.7464 9.7161 23.3199 9.7161ZM32.2841 13.0747C35.1458 13.3774 38.0169 18.6849 37.9885 22.5732C37.9885 23.1598 36.9083 22.1948 37.1546 22.7246C37.9411 24.3992 37.5526 26.3008 37.6284 27.3225C37.6853 27.9753 36.8514 28.1078 36.8514 28.1078C36.8514 30.1513 36.605 31.6556 35.7522 33.5288C35.1363 34.9006 33.9518 36.4805 33.5917 37.824C32.7863 37.5969 32.104 36.4616 32.104 35.9034C32.104 34.9857 33.279 32.7625 33.895 31.1636C34.1792 30.3121 34.3119 29.6404 34.7383 29.2525C33.9518 29.8769 33.8192 30.5487 33.4401 31.3434C32.881 32.5449 31.9619 34.4086 31.706 35.5818C31.0996 35.0709 30.5405 34.3613 30.5405 33.6896C30.5405 33.3396 32.1419 29.5174 32.6442 28.7038C31.1564 29.8296 30.9764 31.7596 30.2278 33.4058C29.7635 33.0179 29.2802 32.2043 29.2802 31.6177C29.2802 31.1163 30.5216 28.2024 30.8248 27.9186C29.773 28.4294 29.2897 30.2554 28.977 31.2961C28.2663 30.6433 28.1621 29.7634 28.1242 29.0539C27.8683 30.2459 26.8355 33.0179 26.8355 33.4342C26.8355 33.7558 27.6693 35.9129 27.9347 36.2535C28.1337 36.2724 28.4937 35.9129 29.1381 36.2724C29.4413 36.5846 29.574 36.3481 29.9246 37.0955C29.7256 37.1049 29.4129 36.8306 29.2802 36.7833C28.8728 36.6414 28.996 36.7927 28.7117 36.9347C28.399 37.086 28.0768 36.7738 28.0105 36.8211C28.7496 37.4172 29.1476 37.4645 28.8349 38.297C28.778 38.4578 28.5695 38.912 28.5032 38.9971C28.38 38.8552 28.4274 38.2308 28.3042 37.8997C27.404 37.8902 27.9347 37.0198 27.4419 36.963C27.2524 37.8807 26.3238 37.0671 26.0869 37.9753L25.8121 38.2686C25.7078 36.5846 27.0534 36.5657 27.0345 36.4805C26.5228 34.1721 24.1538 32.1759 24.1538 32.1759C23.1968 33.4153 22.2018 33.8978 21.33 36.4805C21.3016 36.5657 22.6377 36.7927 22.8177 38.4862L22.6472 38.42C22.5998 38.1835 22.3345 37.8713 22.0407 37.8145C21.5859 37.7199 21.0552 37.8713 21.1595 37.0671C20.9889 37.1901 20.9794 37.3699 20.752 37.7199C20.572 37.9943 20.1076 38.3348 20.0508 38.7133C20.0129 38.9593 20.2024 39.2336 20.3351 39.4891C20.2403 39.3661 19.6244 38.8173 19.7002 38.6565C20.174 37.6158 19.2169 37.7861 20.3445 36.8211C20.2877 36.7644 19.956 37.1996 19.6433 37.0482C19.2548 36.859 19.378 37.3415 18.5726 37.3225C19.0558 37.0103 19.1506 36.49 19.5959 36.3008C19.7855 36.2251 20.3635 36.2346 20.5625 36.2156C20.8278 35.8751 21.5101 33.7558 21.5101 33.4342C21.5101 33.0179 20.4772 30.2459 20.2213 29.0539C20.1834 29.7634 20.0887 30.6433 19.3685 31.2961C19.0558 30.2554 18.5726 28.4294 17.5207 27.9186C17.824 28.2024 19.0653 31.1163 19.0653 31.6177C19.0653 32.2043 18.582 33.0179 18.1177 33.4058C17.3691 31.7596 17.1891 29.8202 15.7014 28.7038C16.2036 29.5174 17.805 33.3396 17.805 33.6896C17.805 34.3519 17.2459 35.0614 16.6395 35.5818C16.3836 34.4181 15.4645 32.5449 14.9054 31.3434C14.5264 30.5487 14.3937 29.8769 13.6072 29.2525C14.0336 29.6404 14.1663 30.3121 14.4506 31.1636C15.0665 32.753 16.2415 34.9763 16.2415 35.9034C16.2415 36.4522 15.5498 37.5969 14.7538 37.824C14.3842 36.4805 13.2945 34.8628 12.5933 33.5288C10.7645 30.0472 11.7026 29.3282 11.4088 27.4928C11.3141 26.9063 10.7645 27.578 10.8213 26.5278C10.8213 26.5278 9.83585 22.9044 11.5604 20.4067C11.5889 19.9999 10.5655 20.8798 10.6129 20.5013C10.8308 18.9309 12.8492 13.4058 16.0709 13.0747C17.9851 12.876 17.8903 15.402 19.0937 16.2629C19.3685 16.4616 19.7097 16.5751 20.155 16.5751C20.9699 16.5751 21.4532 16.0453 21.7375 15.3831C22.126 14.5127 22.1544 13.4247 22.1544 13.103C22.1544 12.2327 22.2397 11.0784 20.5625 11.1257C20.8562 10.946 21.1784 10.8987 21.349 10.8987C21.8417 10.8987 22.3439 11.1257 22.8177 11.4569L22.922 11.3433C22.5903 10.7852 21.7185 10.6149 21.3111 10.6149C21.0268 10.6149 20.1171 10.823 19.956 11.1731C19.8518 11.0974 19.776 11.0311 19.776 10.8608C19.7665 10.4635 19.8707 9.95262 20.0982 9.78232C20.8847 9.20522 21.6238 9.58365 22.0312 9.30929C22.723 8.83625 23.0167 8.65649 23.6137 8.65649C23.7843 8.65649 25.2625 8.86463 26.1153 9.08223C26.1911 9.15791 26.2006 9.11061 26.2006 9.29036C26.2006 9.47012 26.1248 9.56473 26.0585 9.60257C26.5417 9.79178 26.7597 11.069 26.7597 11.5136V13.9545C26.7597 15.0803 27.1482 16.2913 28.6075 16.3102C31.0427 16.3481 30.152 12.8571 32.2841 13.0747ZM20.4677 30.9176L21.2258 33.3396C20.8752 34.3424 20.8183 35.2696 20.4393 35.9034C20.3161 36.1021 19.5012 35.9791 19.2832 36.121C19.0179 36.3008 18.6863 36.8684 18.383 37.0766L20.4677 30.9176ZM20.9415 39.9999C20.7709 39.9999 19.179 39.981 18.999 39.981C18.4967 39.981 17.7292 39.8202 17.7292 39.016C17.7292 38.8363 18.0135 38.051 18.3262 37.5401C18.4304 37.701 18.4683 37.5118 18.6389 37.5118C18.8095 37.5118 19.0084 37.5401 19.1601 37.4645C19.1601 37.4645 19.4917 37.332 19.5865 37.3131C19.4538 37.6442 19.6338 37.9848 19.577 38.2402C19.4728 38.6754 19.4254 38.8457 19.5296 38.9876C19.6907 39.2052 19.8992 39.6026 20.3824 39.6688C20.6099 39.6783 20.2593 39.1012 20.2593 38.789C20.2687 38.3822 20.7899 38.1835 20.9889 37.701C21.0457 38.051 21.5859 37.9753 22.0123 38.1173C22.3345 38.2686 22.2207 38.6471 22.8177 38.8363C23.1209 38.9309 23.0357 38.3348 23.0357 38.2402C23.0357 37.6442 22.3534 36.6319 21.7185 36.4332C22.0028 34.7965 24.1822 32.6962 24.2486 32.6206C24.8929 33.3112 26.3806 34.8533 26.5986 36.3008C26.3617 36.5657 25.8121 36.5373 25.5752 37.7672C25.5562 37.8618 25.5183 38.5335 25.8121 38.666C26.0206 38.7606 26.3712 38.2119 26.428 37.8997C26.5038 37.5023 27.025 38.0889 27.3945 37.4928C27.5177 37.6537 27.5841 37.805 27.6599 38.0226C27.7262 38.2119 28.0863 38.0605 28.1431 38.2402C28.2758 38.6754 28.1716 39.3093 28.4369 39.2998C28.7496 39.2336 29.1286 38.5903 29.1286 38.2119C29.1286 38.0321 29.4034 37.4645 28.7591 37.1428C28.8349 37.0576 29.2992 37.0293 29.2992 37.0293C29.4508 37.1049 29.7066 37.4077 30.152 37.5496C30.4647 38.0605 30.749 38.8457 30.749 39.0255C30.749 39.8202 30.0952 39.9905 29.5835 39.9905C29.4224 39.981 22.5429 39.9999 20.9415 39.9999ZM27.9631 30.719L29.9151 36.5846C29.6119 36.3765 29.356 36.0737 29.0907 35.9034C28.8728 35.7615 28.2947 36.0737 28.1716 35.8656C27.6504 34.9668 27.4419 34.4086 27.0913 33.4058L27.9631 30.719Z" fill="#3BA6B3"/>
<path fill-rule="evenodd" clip-rule="evenodd" d="M5.01282 39.0916L5.19286 38.9686L5.14548 38.8835C5.00335 38.6754 5.35395 38.4483 5.6477 38.2402L7.26807 37.1049C7.45759 36.9724 7.85557 36.7075 7.99771 36.9062L8.05456 36.9819L8.2346 36.8589L8.13985 36.7265C8.10194 36.6697 8.03561 36.6224 7.97876 36.5751C7.9219 36.5183 7.86505 36.4521 7.81767 36.3764C7.77029 36.3102 7.72291 36.2345 7.69448 36.1588C7.6471 36.0831 7.62815 36.0074 7.58077 35.9507L7.48601 35.8182L7.30597 35.9412L7.36283 36.0169C7.50496 36.2156 7.11646 36.4994 6.92694 36.6318L5.30657 37.7671C5.0223 37.9658 4.68117 38.2213 4.52956 38.0131L4.4727 37.9374L4.29266 38.0604L4.37794 38.1834C4.41585 38.2402 4.48218 38.2969 4.52956 38.3537C4.58641 38.4105 4.64327 38.4767 4.69064 38.5429C4.73802 38.6091 4.77593 38.6848 4.81383 38.7605C4.84226 38.8267 4.88016 38.9024 4.91806 38.9592L5.01282 39.0916ZM4.1221 37.436L4.06524 37.3509C4.02734 37.2941 4.05576 37.1995 4.16 37.1522C4.39689 37.0387 4.7096 37.0954 4.94649 37.1238C5.23077 37.1522 5.53399 37.1522 5.97936 37.1711C6.17835 36.6224 6.44367 36.0642 6.54791 35.8371C6.81323 35.279 6.95537 34.9857 6.73742 34.6829C6.63319 34.541 6.58581 34.5316 6.38682 34.3896L6.20678 34.5221C6.36787 34.5978 6.40577 34.6546 6.42472 34.6829C6.50053 34.7965 6.35839 35.0424 6.26363 35.2222C6.12149 35.506 5.97936 35.8088 5.8467 36.0926C5.72351 36.3575 5.58137 36.6129 5.65718 36.9914C5.56242 36.9819 5.51504 36.9724 5.42976 36.963C5.20234 36.9441 5.40133 36.9724 4.82331 36.8967C3.77149 36.7643 3.69568 36.7927 3.53459 36.5751L3.49669 36.5183L3.31665 36.6413L3.37351 36.7265C3.40193 36.7643 3.43984 36.7927 3.46826 36.8305C3.53459 36.8967 3.6104 36.9724 3.66726 37.0481C3.73359 37.1427 3.77149 37.2373 3.81887 37.3414C3.8473 37.3887 3.86625 37.4265 3.89468 37.4644L3.95153 37.5401L4.1221 37.436Z" fill="#3BA6B3"/>
<path fill-rule="evenodd" clip-rule="evenodd" d="M2.42569 34.9573L2.62469 34.8722L2.58678 34.787C2.49202 34.5316 3.00372 34.3707 3.31642 34.2478L4.92731 33.595C5.21159 33.4814 5.72328 33.2638 5.82751 33.5193L5.86542 33.6044L6.06441 33.5193L6.02651 33.4341C5.96018 33.2733 5.90332 33.2165 5.84647 33.1314C5.76118 33.0084 5.77066 32.9516 5.75171 32.8286C5.74223 32.7435 5.7138 32.6678 5.69485 32.5921C5.65695 32.4597 5.60957 32.3367 5.56219 32.2042C5.24001 31.4095 4.55775 31.5041 4.09344 31.6934C3.59122 31.892 3.21219 32.3935 3.51541 33.1314C3.56279 33.2544 3.61965 33.3679 3.68598 33.4814L3.09848 33.718C2.66259 33.8882 2.30251 34.068 2.19827 33.822L2.16037 33.7369L1.96138 33.822L2.01823 33.9639C2.04666 34.0302 2.09404 34.0964 2.13194 34.1626C2.16985 34.2383 2.21722 34.3045 2.24565 34.3802C2.27408 34.4559 2.30251 34.541 2.32146 34.6262C2.34041 34.7019 2.34989 34.7776 2.37831 34.8438L2.42569 34.9573ZM3.86602 33.3868C3.84707 33.349 3.82811 33.3111 3.80916 33.2733C3.62912 32.8286 3.85654 32.4408 4.39666 32.2137C4.92731 31.9961 5.30634 32.138 5.41058 32.3935C5.52429 32.6678 5.35372 32.7813 5.01259 32.9233L3.86602 33.3868ZM1.41178 32.4502L1.61077 32.3651L1.57287 32.2799C1.46863 32.0245 1.97085 31.8636 2.32146 31.7217L3.93235 31.0689C4.1882 30.9649 4.69989 30.7473 4.79465 30.9933L4.83255 31.0784L5.03154 30.9933L4.97469 30.8419C4.94626 30.7757 4.88941 30.7189 4.8515 30.6527C4.80412 30.5865 4.76622 30.5108 4.73779 30.4351C4.70937 30.3594 4.68094 30.2837 4.66199 30.1986C4.65251 30.1229 4.65251 30.0472 4.62408 29.981L4.55775 29.8296L4.35876 29.9053L4.39666 29.9904C4.48195 30.208 4.05553 30.3878 3.74283 30.5108L2.08456 31.1825C1.76239 31.3149 1.27912 31.5514 1.17488 31.2865L1.13698 31.1919L0.937988 31.2771L0.994843 31.419C1.02327 31.4852 1.07065 31.5514 1.10855 31.6177C1.14646 31.6934 1.19384 31.7596 1.22226 31.8353C1.25069 31.911 1.27912 31.9961 1.29807 32.0812C1.31702 32.1664 1.3265 32.2421 1.35492 32.3083L1.41178 32.4502Z" fill="#3BA6B3"/>
<path fill-rule="evenodd" clip-rule="evenodd" d="M4.17884 27.5685L3.9609 27.6063L3.98933 27.7293C4.04618 28.0037 3.3734 28.0983 3.03227 28.1645L1.18448 28.524L0.634887 28.6281C0.615935 28.5808 0.615935 28.543 0.60646 28.4957C0.521177 28.0605 0.824404 27.7293 1.4119 27.6158C2.09416 27.4834 2.39739 27.7861 2.36896 28.0983L2.55848 28.0605C2.55848 27.9753 2.55848 27.8902 2.53953 27.805C2.40687 27.1428 1.80041 26.9346 1.20344 27.0482C0.862307 27.1144 0.132668 27.3982 0.322185 28.3537C0.341136 28.4578 0.37904 28.5619 0.416943 28.6659C0.464322 28.7984 0.511701 28.9308 0.540129 29.0728C0.55908 29.1579 0.568556 29.2525 0.578032 29.3377C0.578032 29.385 0.587508 29.4417 0.596984 29.489L0.615935 29.5836L0.833879 29.5458L0.814928 29.4512C0.767549 29.2052 1.30767 29.1011 1.73408 29.016L2.81433 28.8079C3.01332 28.77 3.50606 28.6849 3.71453 28.647C3.84719 28.6281 4.17884 28.5808 4.22622 28.7795L4.24518 28.8741L4.46312 28.8362L4.43469 28.6659C4.41574 28.5903 4.37784 28.524 4.34941 28.4578C4.32098 28.3821 4.29255 28.3064 4.28308 28.2213C4.26413 28.1361 4.25465 28.051 4.25465 27.9659C4.25465 27.8902 4.2736 27.8145 4.25465 27.7388L4.17884 27.5685Z" fill="#3BA6B3"/>
<path fill-rule="evenodd" clip-rule="evenodd" d="M0.0663308 25.7901L0.284275 25.7806V25.6766C0.274799 25.4401 0.767542 25.4211 1.08024 25.4117L2.95646 25.3454C3.25968 25.336 3.74295 25.3076 3.75243 25.563V25.6577L3.97037 25.6482L3.96089 25.4779C3.96089 25.4022 3.92299 25.336 3.90404 25.2603C3.88509 25.1752 3.87561 25.0995 3.87561 25.0143C3.87561 24.9292 3.87561 24.8535 3.89456 24.7683C3.91352 24.6927 3.93247 24.617 3.93247 24.5507L3.92299 24.3237L3.70505 24.3331L3.71452 24.494C3.724 24.7305 3.25968 24.7589 2.89013 24.7683L0.303226 24.863L0.293751 24.5413C0.284275 24.3237 0.208468 24.0115 0.720163 23.9926C0.8623 23.9831 1.00444 24.0115 1.03286 24.0209L1.02339 23.8412C0.74859 23.775 0.397985 23.7182 0 23.6709C0.0379033 24.2953 0.0568549 24.2669 0.0758066 24.5981C0.0758066 24.7021 0.0852824 24.9765 0.0852824 25.1089C0.0852824 25.4022 0.0568549 25.3265 0.0568549 25.582L0.0663308 25.7901Z" fill="#3BA6B3"/>
<path fill-rule="evenodd" clip-rule="evenodd" d="M0.0664062 22.0813L0.28435 22.1191L0.303302 22.0245C0.350681 21.7502 0.862375 21.8732 1.19403 21.9299L2.90915 22.2043C3.21238 22.2516 3.76198 22.3367 3.72407 22.6016L3.70512 22.6962L3.92307 22.7341L3.94202 22.6395C3.97045 22.4692 3.95149 22.3935 3.94202 22.2894C3.93254 22.1475 3.97045 22.1002 4.01782 21.9772C4.05573 21.9015 4.07468 21.8259 4.09363 21.7407C4.13154 21.6083 4.15996 21.4758 4.17891 21.3434C4.31158 20.4919 3.6767 20.227 3.18395 20.1513C2.65331 20.0662 2.07528 20.2932 1.94262 21.0785C1.92367 21.2014 1.91419 21.3339 1.91419 21.4663L1.28879 21.3623C0.824472 21.2866 0.426488 21.2582 0.464391 20.9933L0.483343 20.8987L0.265399 20.8609L0.246447 21.0122C0.236971 21.0879 0.236971 21.1636 0.236971 21.2393C0.236971 21.3244 0.236971 21.4096 0.218019 21.4853C0.208544 21.5704 0.180116 21.6556 0.151689 21.7312C0.132737 21.7975 0.0948337 21.8732 0.0853579 21.9488L0.0664062 22.0813ZM2.10371 21.4758C2.10371 21.438 2.11318 21.3907 2.12266 21.3434C2.19847 20.8703 2.59645 20.6527 3.17448 20.7379C3.74303 20.8325 3.9894 21.1447 3.95149 21.4096C3.90412 21.7029 3.70512 21.7123 3.34504 21.6556L2.10371 21.4758ZM0.492818 19.4039L0.710762 19.4417L0.729714 19.3471C0.777093 19.0728 1.28879 19.1958 1.65834 19.2525L3.37347 19.5269C3.64827 19.5742 4.18839 19.6499 4.15049 19.9053L4.13154 19.9999L4.34948 20.0378L4.37791 19.8675C4.38738 19.7918 4.36843 19.7161 4.36843 19.6404C4.36843 19.5553 4.36843 19.4701 4.38738 19.3944C4.39686 19.3093 4.41581 19.2336 4.44424 19.1579C4.47266 19.0917 4.51057 19.016 4.52004 18.9498L4.54847 18.789L4.33053 18.7511L4.32105 18.8457C4.28315 19.0822 3.81883 19.016 3.49665 18.9593L1.73415 18.6754C1.38355 18.6187 0.862376 18.5808 0.900279 18.3065L0.919231 18.2119L0.691811 18.1646L0.663383 18.3159C0.653907 18.3916 0.653907 18.4673 0.653907 18.543C0.653907 18.6281 0.653907 18.7133 0.634956 18.789C0.62548 18.8741 0.597052 18.9593 0.568625 19.0349C0.549673 19.1012 0.521246 19.1768 0.502294 19.2525L0.492818 19.4039Z" fill="#3BA6B3"/>
<path fill-rule="evenodd" clip-rule="evenodd" d="M3.94188 17.5212L4.05559 17.5685C4.42515 17.7104 4.77575 17.9185 5.16426 17.4266C5.25902 17.3131 5.33483 17.1806 5.38221 17.0482C5.69491 16.244 5.13583 15.6763 4.64309 15.4871C3.97978 15.2317 3.51547 15.6669 3.40176 15.9696L3.37333 16.0453L3.31648 16.0075C3.37333 15.6953 3.35438 15.1655 2.78583 14.9479C2.41627 14.806 1.90458 14.7776 1.66768 15.3925C1.45921 15.9318 1.53502 16.0737 1.35498 16.3386L1.49712 16.3954C1.63926 16.4521 2.03724 16.6224 2.2078 16.6981L2.26466 16.5373C1.8951 16.3008 1.62978 16.0737 1.76244 15.7236C1.87615 15.4398 2.18885 15.3547 2.58684 15.506C3.02273 15.6763 3.18381 16.0642 3.0701 16.3575C3.05115 16.4143 3.01325 16.49 2.97535 16.5467L3.2691 16.6603C3.27857 16.594 3.28805 16.5373 3.32595 16.4521C3.53442 15.9034 4.05559 15.9223 4.50095 16.0926C5.07898 16.3102 5.25902 16.7076 5.13583 17.0292C5.04108 17.2847 4.74733 17.5496 3.97978 17.3887L3.94188 17.5212Z" fill="#3BA6B3"/>
<path fill-rule="evenodd" clip-rule="evenodd" d="M6.85085 12.1571C7.16355 12.545 7.13512 13.1032 6.96456 13.3775C6.68028 13.8506 5.80851 14.1439 4.74722 13.51C3.86596 12.9802 3.47745 12.2139 3.88491 11.5327C4.09338 11.1826 4.5577 10.9461 5.06939 11.2489L5.16415 11.0975C5.12625 11.0786 5.09782 11.0596 5.05992 11.0407C4.8704 10.9272 4.51032 10.6907 4.31133 10.5393C4.2829 10.6339 4.21657 10.738 4.15971 10.8421C4.02705 11.0596 3.81858 11.1921 3.57221 11.5894C2.95628 12.6112 3.52483 13.5478 4.36818 14.0492C5.42 14.6831 6.57605 14.5034 7.13512 13.5762C7.28674 13.3302 7.40992 12.9896 7.40992 12.7153C7.40992 12.5355 7.37202 12.3652 6.94561 12.0152L6.85085 12.1571Z" fill="#3BA6B3"/>
<path fill-rule="evenodd" clip-rule="evenodd" d="M6.25393 8.50511L8.09224 10.1513C8.37652 10.4067 8.83136 10.823 8.65132 11.0217L8.58499 11.0974L8.74607 11.2393L8.86926 11.1068C8.92612 11.0501 8.95454 10.9744 8.98297 10.9081C9.02087 10.8325 9.07773 10.7662 9.13458 10.7095C9.19144 10.6527 9.25777 10.5865 9.3241 10.5392C9.39043 10.4919 9.45676 10.4635 9.51362 10.4067L9.62733 10.2837L9.46624 10.1418L9.39991 10.2175C9.21987 10.4256 8.76503 9.99045 8.48075 9.74447L6.64244 8.06992L6.88881 7.79556C7.012 7.66311 7.2489 7.40767 7.59002 7.71041C7.60898 7.72933 7.68478 7.79556 7.77007 7.89963L7.89325 7.76718C7.57107 7.39821 7.53317 7.31306 7.21099 6.98193C6.96462 7.29414 6.58559 7.79556 6.28236 8.13614C6.15918 8.2686 5.85595 8.59972 5.74224 8.70379C5.61905 8.82678 5.59063 8.8457 5.29688 9.1106C5.52429 9.34712 5.6001 9.45119 5.98861 9.87692L6.10232 9.74447C5.76119 9.26197 5.80857 8.99707 6.00756 8.77947L6.25393 8.50511Z" fill="#3BA6B3"/>
<path fill-rule="evenodd" clip-rule="evenodd" d="M10.6507 9.22419L10.7739 9.12958C10.8118 9.1012 10.8402 9.04444 10.8686 9.0066C10.916 8.94037 10.9823 8.89307 11.0487 8.8363C11.3614 8.58086 11.1434 8.82684 11.4182 8.59978L11.4845 8.55248L11.3424 8.38219L11.2571 8.44841C11.1813 8.50518 11.0013 8.60924 10.8307 8.23081L10.5275 7.56856C10.7359 7.41719 10.7833 7.38881 10.8781 7.31312C11.0202 7.19013 11.1813 7.04822 11.2476 6.982L11.911 7.46449C12.072 7.58748 12.1005 7.74832 11.9962 7.83346L11.911 7.89969L12.0531 8.06998L12.2047 7.94699C12.271 7.89023 12.3279 7.81454 12.3847 7.74832C12.4416 7.69155 12.489 7.63479 12.5553 7.58748C12.6311 7.52126 12.7164 7.46449 12.8112 7.40773C12.8775 7.36989 12.9533 7.33204 13.0196 7.28474L13.1049 7.20905L12.9628 7.03876L12.9343 7.09552C12.8396 7.17121 12.7638 7.2942 12.3658 7.03876C11.9868 6.79278 12.3184 7.04822 10.6128 5.83725C9.8547 5.29798 9.67466 5.16553 9.43776 4.97632C9.39038 5.08985 9.32405 5.20338 9.23877 5.30744C9.40933 5.60073 9.55147 5.92239 10.1484 7.2942C10.2716 7.57802 10.4517 8.01322 10.5938 8.43895C10.6601 8.62817 10.7265 8.87414 10.5843 8.98767L10.5085 9.04444L10.6507 9.22419ZM9.80732 5.92239C10.0442 6.14945 10.1484 6.16837 11.0487 6.84008C10.9823 6.92523 10.916 6.99146 10.7833 7.09552C10.6412 7.21851 10.537 7.28474 10.4327 7.3415C9.91155 6.20622 9.8926 6.13053 9.77889 5.96024L9.80732 5.92239Z" fill="#3BA6B3"/>
<path fill-rule="evenodd" clip-rule="evenodd" d="M12.1384 3.33019L12.2332 3.52886L12.3185 3.49102C12.4985 3.40587 12.6217 3.61401 12.707 3.77484C12.7828 3.92621 12.9249 4.20058 13.0007 4.35195L13.7304 5.85621C13.8346 6.06434 14.0336 6.49954 13.8156 6.60361L13.7304 6.64145L13.8251 6.84012L13.9767 6.76444C14.0431 6.73606 14.0999 6.66983 14.1568 6.62253C14.2231 6.57522 14.2989 6.52792 14.3747 6.49008C14.4505 6.45223 14.5263 6.42385 14.6116 6.40493C14.6874 6.38601 14.7632 6.38601 14.8296 6.34817L14.9812 6.27248L14.8864 6.0738L14.8011 6.11165C14.6116 6.20625 14.4126 5.87513 14.2705 5.58185L13.8441 4.702C13.9673 4.66415 14.1094 4.59793 14.3179 4.50332C14.4126 4.45602 14.5169 4.40871 14.6116 4.36141C14.7064 4.31411 14.8106 4.2668 14.9054 4.2195C15.1138 4.11543 15.2465 4.03974 15.3507 3.96406L15.7771 4.84391C15.9193 5.13719 16.0614 5.4967 15.8719 5.59131L15.7866 5.62915L15.8814 5.82782L16.033 5.75214C16.0993 5.72376 16.1562 5.65753 16.213 5.61023C16.2794 5.56292 16.3552 5.51562 16.431 5.47778C16.5068 5.43993 16.5826 5.41155 16.6679 5.39263C16.7437 5.37371 16.8195 5.37371 16.8858 5.33587L17.0374 5.26018L16.9427 5.0615L16.8574 5.09935C16.6394 5.20342 16.4215 4.77768 16.3173 4.56955L15.5876 3.06529C15.3792 2.64901 15.0665 2.11921 15.3318 1.98676L15.4171 1.94892L15.3223 1.75024L15.1896 1.81647C15.1044 1.89216 15.038 1.93946 14.9812 1.98676C14.9148 2.03407 14.839 2.08137 14.7632 2.11921C14.6874 2.15706 14.6116 2.18544 14.5263 2.20436C14.4505 2.22328 14.3747 2.2422 14.3084 2.28005L14.1663 2.34627L14.261 2.54495L14.3463 2.5071C14.5453 2.4125 14.6874 2.68686 14.7443 2.79093C14.7917 2.87607 14.9812 3.24504 15.038 3.37749L15.2181 3.74646C15.1044 3.82215 14.9338 3.94514 14.4884 4.16273C14.0431 4.38033 13.8441 4.44656 13.7114 4.4844L13.5314 4.11543C13.465 3.98298 13.285 3.60455 13.2471 3.5194C13.1997 3.40587 13.0671 3.12205 13.2661 3.02744L13.3513 2.9896L13.2661 2.78147L13.1239 2.84769C13.0576 2.87607 12.9913 2.93284 12.9344 2.97068C12.8681 3.01798 12.7923 3.06529 12.7259 3.10313C12.6501 3.14097 12.5648 3.16936 12.489 3.19774C12.4132 3.21666 12.3374 3.23558 12.2711 3.27342L12.1384 3.33019Z" fill="#3BA6B3"/>
<path fill-rule="evenodd" clip-rule="evenodd" d="M22.0408 3.18826C21.9555 3.68022 21.5291 4.03027 21.2069 4.09649C20.6573 4.20056 19.8613 3.75591 19.6245 2.54493C19.4255 1.53263 19.7382 0.72847 20.5152 0.577098C20.9226 0.501412 21.4059 0.681166 21.5196 1.26773L21.6997 1.22989C21.6902 1.19205 21.6807 1.1542 21.6712 1.11636C21.6333 0.898763 21.5575 0.47303 21.548 0.227051C21.4533 0.264894 21.3396 0.293276 21.2164 0.312197C20.97 0.359501 20.7236 0.293276 20.2688 0.378423C19.0938 0.60548 18.7811 1.64616 18.9706 2.61116C19.2075 3.81267 20.1077 4.55061 21.169 4.34247C21.4533 4.28571 21.7849 4.15326 21.9934 3.9735C22.1261 3.85051 22.2303 3.7086 22.2019 3.15042L22.0408 3.18826Z" fill="#3BA6B3"/>
<path fill-rule="evenodd" clip-rule="evenodd" d="M23.1589 4.03028H23.3105C23.3579 4.03028 23.4148 4.01136 23.4622 4.00189C23.5474 3.98297 23.6233 3.98297 23.7085 3.99243C24.1065 4.00189 23.7938 4.0492 24.1444 4.0492H24.2297V3.8316H24.1255C24.0307 3.8316 23.8317 3.79376 23.936 3.39641L24.1349 2.69631C24.3908 2.71523 24.4382 2.72469 24.5614 2.72469C24.7509 2.72469 24.9688 2.72469 25.0636 2.71523L25.2531 3.50994C25.3005 3.70861 25.2152 3.85052 25.0825 3.84106H24.9783V4.05866H25.1773C25.2626 4.05866 25.3479 4.03974 25.4426 4.02082C25.5184 4.01136 25.5942 4.00189 25.67 4.01135C25.7743 4.01135 25.8785 4.02082 25.9733 4.03974C26.0491 4.0492 26.1249 4.07758 26.2102 4.07758H26.3239V3.85998H26.2765C26.1533 3.85998 26.0206 3.90729 25.8785 3.45317C25.7458 3.01798 25.8406 3.43425 25.3099 1.40965C25.0731 0.51088 25.0162 0.293283 24.9593 0C24.8551 0.0567645 24.7319 0.104068 24.5993 0.12299C24.5424 0.454116 24.4476 0.794702 24.0118 2.23274C23.9265 2.53548 23.7843 2.98013 23.6138 3.39641C23.538 3.58562 23.4337 3.81268 23.2537 3.81268H23.1589V4.03028ZM24.6372 0.955535C24.6751 1.28666 24.7414 1.36235 24.9972 2.45033C24.893 2.47871 24.7983 2.48818 24.6372 2.47871C24.4476 2.47871 24.3339 2.45979 24.2108 2.44087C24.5424 1.23936 24.5803 1.16367 24.5993 0.964996L24.6372 0.955535Z" fill="#3BA6B3"/>
<path fill-rule="evenodd" clip-rule="evenodd" d="M26.9492 4.19097L27.1387 4.22881C27.243 4.24773 27.3377 4.20043 27.5272 4.23827C27.622 4.25719 27.7168 4.29504 27.8115 4.33288C27.8684 4.3518 27.9158 4.38018 27.9726 4.38964L28.0484 4.40857L28.0863 4.19097L27.9821 4.16259C27.8873 4.14367 27.7452 4.05852 27.9442 3.63278L28.7496 1.92039C28.8444 1.71225 28.9012 1.59873 28.9391 1.40951L28.977 1.41897C28.9676 1.55142 28.9581 1.58926 28.9676 1.65549L29.1192 3.62332C29.1381 3.90715 29.2139 4.39911 28.8444 4.32342L28.7875 4.31396L28.7496 4.54102L28.977 4.58832C29.0529 4.59778 29.1192 4.58832 29.195 4.57886C29.2803 4.5694 29.3656 4.58832 29.4508 4.60724C29.5456 4.62616 29.6309 4.64508 29.7162 4.69239C29.773 4.72077 29.8393 4.75861 29.8962 4.76807L30.0478 4.79646L30.0857 4.57886L29.991 4.55994C29.773 4.51263 29.7162 3.91661 29.6593 3.34896C29.5456 2.13799 29.4887 1.52304 29.4603 0.586426C29.3466 0.595887 29.2234 0.595887 29.1002 0.595887C28.8349 1.24868 28.5791 1.7501 28.3137 2.26098C27.8399 3.19759 27.8399 3.15975 27.6599 3.50033C27.5557 3.68955 27.3472 4.05852 27.1008 4.00175L26.9871 3.97337L26.9492 4.19097Z" fill="#3BA6B3"/>
<path fill-rule="evenodd" clip-rule="evenodd" d="M32.4642 1.51367L32.3789 1.71235L32.4642 1.75019C32.72 1.86372 32.4642 2.3273 32.322 2.6395L31.6113 4.22891C31.4882 4.50327 31.2607 5.01415 31.0238 4.91008L30.9386 4.87224L30.8533 5.07091L30.9386 5.10875C31.0902 5.17498 31.1754 5.18444 31.2797 5.20336C31.4218 5.23174 31.4597 5.27905 31.564 5.35473C31.6303 5.4115 31.6966 5.44934 31.7724 5.48718C31.8956 5.56287 32.0093 5.61964 32.1325 5.6764C32.919 6.02645 33.3454 5.48718 33.5444 5.02361C33.7623 4.53165 33.696 3.9167 32.9664 3.58557C32.8527 3.53827 32.7295 3.49097 32.6063 3.45312L32.8621 2.87602C33.0517 2.45029 33.1938 2.07186 33.4307 2.17592L33.516 2.21377L33.6013 2.01509L33.4591 1.95833C33.3928 1.92994 33.317 1.91102 33.2412 1.8921C33.1559 1.87318 33.0801 1.8448 33.0043 1.80695C32.9285 1.77857 32.8527 1.73127 32.7863 1.68397C32.72 1.64612 32.6632 1.59882 32.5968 1.57044L32.4642 1.51367ZM32.5305 3.63288C32.5684 3.64234 32.6158 3.66126 32.6537 3.68018C33.099 3.87886 33.2033 4.31405 32.9664 4.85331C32.7295 5.38312 32.3599 5.53449 32.1136 5.42096C31.8388 5.30743 31.8767 5.10875 32.0283 4.76817L32.5305 3.63288ZM34.9468 2.62058L34.8615 2.81925L34.9468 2.8571C35.2027 2.97063 34.9563 3.4342 34.7952 3.77479L34.0845 5.36419C33.9708 5.61964 33.7529 6.12105 33.516 6.01699L33.4307 5.97914L33.3454 6.17782L33.497 6.24404C33.5634 6.27243 33.6392 6.28189 33.715 6.29135C33.8003 6.31027 33.8761 6.33865 33.9519 6.36703C34.0277 6.40488 34.1035 6.44272 34.1698 6.49002C34.2267 6.53733 34.2835 6.59409 34.3498 6.62247L34.5015 6.6887L34.5867 6.49002L34.5015 6.45218C34.2835 6.35757 34.473 5.93184 34.6057 5.61964L35.3353 3.98293C35.4775 3.66126 35.6575 3.15984 35.9134 3.27337L36.0081 3.33013L36.0934 3.13146L35.9513 3.06523C35.8849 3.03685 35.8091 3.01793 35.7333 2.99901C35.648 2.98009 35.5722 2.9517 35.4964 2.91386C35.4206 2.88548 35.3543 2.83818 35.2785 2.80033C35.2121 2.76249 35.1553 2.71519 35.0795 2.6868L34.9468 2.62058Z" fill="#3BA6B3"/>
<path fill-rule="evenodd" clip-rule="evenodd" d="M37.6285 4.12476L37.4958 4.30451L37.5716 4.36127C37.7801 4.51265 37.5148 4.84377 37.3063 5.12759L36.1408 6.72646C35.9986 6.91568 35.7143 7.29411 35.5154 7.15219L35.4395 7.09543L35.3069 7.27518L35.4395 7.36979C35.4964 7.41709 35.5722 7.43602 35.648 7.4644C35.7238 7.50224 35.7996 7.54954 35.866 7.59685C35.9323 7.64415 35.9986 7.70092 36.0555 7.76714C36.1029 7.82391 36.1502 7.89013 36.2071 7.93744L36.3398 8.03204L36.4724 7.85229L36.3966 7.79552C36.2071 7.65361 36.4724 7.26572 36.6145 7.06705L37.7801 5.46818C37.9885 5.18436 38.2254 4.83431 38.4339 4.98568L38.5097 5.04245L38.6424 4.86269L38.5192 4.77755C38.4623 4.73024 38.396 4.70186 38.3297 4.67348C38.2539 4.63564 38.1781 4.58833 38.1117 4.54103C38.0454 4.49372 37.9791 4.4275 37.9222 4.37073C37.8654 4.31397 37.818 4.25721 37.7611 4.21936L37.6285 4.12476ZM39.0119 5.40196L39.0972 5.45872C39.1541 5.50602 39.1541 5.59117 39.0688 5.67632C38.8793 5.85607 38.5666 5.90338 38.3297 5.96014C38.0549 6.02637 37.7706 6.12097 37.3347 6.24396C37.3252 6.83053 37.2589 7.43602 37.24 7.69146C37.1736 8.3064 37.1357 8.62807 37.4295 8.84567C37.5716 8.94974 37.6285 8.94028 37.8559 9.0065L37.9885 8.82675C37.8085 8.80782 37.7517 8.76052 37.7232 8.7416C37.6095 8.65645 37.6664 8.38209 37.7043 8.17395C37.7517 7.86175 37.7801 7.53062 37.818 7.20896C37.8559 6.92514 37.9033 6.63185 37.7043 6.30073C37.799 6.28181 37.8464 6.27234 37.9317 6.25342C38.1496 6.19666 37.9601 6.2345 38.5287 6.12097C39.571 5.90338 39.6279 5.84661 39.8553 6.00744L39.9027 6.04529L40.0353 5.86553L39.95 5.80877C39.9121 5.78039 39.8648 5.76146 39.8269 5.74254C39.7416 5.7047 39.6468 5.6574 39.571 5.60063C39.4857 5.53441 39.4099 5.45872 39.3341 5.37357C39.2962 5.33573 39.2583 5.30735 39.2204 5.27897L39.1351 5.2222L39.0119 5.40196Z" fill="#3BA6B3"/>
<path fill-rule="evenodd" clip-rule="evenodd" d="M42.499 8.3728L42.3284 8.51471L42.3853 8.5904C42.5464 8.78908 42.2053 9.04452 41.9305 9.26211L40.3954 10.5015C40.2153 10.6528 39.8363 10.9367 39.6847 10.7569L39.6278 10.6812L39.4573 10.8231L39.5615 10.9556C39.6089 11.0124 39.6752 11.0502 39.7321 11.0975C39.7984 11.1543 39.8553 11.211 39.9121 11.2773C39.9595 11.3435 40.0163 11.4097 40.0543 11.4854C40.0827 11.5516 40.1111 11.6273 40.1585 11.6841L40.2627 11.8165L40.4333 11.6746L40.3764 11.5989C40.2248 11.4097 40.5849 11.107 40.7744 10.9556L42.3095 9.71623C42.5843 9.49863 42.9065 9.21481 43.0676 9.41348L43.1244 9.48917L43.295 9.34726L43.2002 9.23373C43.1528 9.17697 43.096 9.12966 43.0391 9.0729C42.9823 9.01613 42.9159 8.95937 42.8591 8.89314C42.8022 8.82692 42.7643 8.75123 42.717 8.68501C42.6791 8.61878 42.6412 8.55256 42.5938 8.49579L42.499 8.3728ZM43.5034 9.96221L43.5698 10.0379C43.6172 10.0947 43.5887 10.1893 43.4845 10.2366C43.2571 10.3596 42.9349 10.3312 42.698 10.3217C42.4137 10.3123 42.1105 10.3312 41.6651 10.3406C41.5041 10.8988 41.2861 11.4759 41.1914 11.7124C40.9734 12.2896 40.8407 12.5923 41.0776 12.8761C41.1913 13.018 41.2482 13.018 41.4472 13.141L41.6178 12.9991C41.4567 12.9329 41.4093 12.8761 41.3809 12.8477C41.2956 12.7437 41.4188 12.4882 41.5041 12.299C41.6272 12.0057 41.7504 11.6935 41.8641 11.4002C41.9684 11.1259 42.0916 10.861 41.9968 10.492C42.0916 10.5015 42.1389 10.5015 42.2242 10.5015C42.4516 10.5015 42.2526 10.492 42.8307 10.5204C43.892 10.5772 43.9678 10.5393 44.1383 10.7569L44.1762 10.8042L44.3468 10.6623L44.2805 10.5866C44.252 10.5488 44.2141 10.5204 44.1762 10.492C44.1004 10.4258 44.0246 10.3596 43.9678 10.2839C43.9014 10.1987 43.8446 10.1041 43.7972 10.0001C43.7688 9.95275 43.7403 9.9149 43.7119 9.87706L43.6551 9.80137L43.5034 9.96221Z" fill="#3BA6B3"/>
<path fill-rule="evenodd" clip-rule="evenodd" d="M45.4174 12.384L45.2185 12.4786L45.2564 12.5638C45.3701 12.8192 44.8773 12.999 44.5646 13.1409L42.9916 13.8694C42.7168 14.0018 42.2146 14.2383 42.1009 13.9924L42.063 13.9072L41.864 14.0018L41.9019 14.087C41.9777 14.2383 42.0346 14.2951 42.1009 14.3802C42.1957 14.4938 42.1862 14.5505 42.2146 14.6735C42.2336 14.7587 42.2525 14.8344 42.2809 14.9101C42.3189 15.0425 42.3757 15.1655 42.4326 15.2885C42.7926 16.0643 43.4749 15.9318 43.9297 15.7237C44.4225 15.4966 44.7731 14.9857 44.432 14.2573C44.3751 14.1437 44.3088 14.0302 44.2424 13.9167L44.8205 13.6518C45.2469 13.4531 45.5975 13.2639 45.7112 13.5004L45.7491 13.5855L45.9481 13.4909L45.8818 13.349C45.8533 13.2828 45.806 13.2166 45.7586 13.1598C45.7112 13.0936 45.6638 13.0179 45.6354 12.9422C45.5975 12.8665 45.5785 12.7814 45.5501 12.7057C45.5312 12.63 45.5122 12.5543 45.4838 12.4881L45.4174 12.384ZM44.0719 14.0302C44.0908 14.068 44.1098 14.1059 44.1287 14.1437C44.3372 14.5789 44.1287 14.9857 43.5981 15.2317C43.0769 15.4777 42.6979 15.3547 42.5747 15.0993C42.4515 14.8344 42.6126 14.7114 42.9443 14.5505L44.0719 14.0302ZM46.564 14.8438L46.365 14.9384L46.4029 15.0236C46.5166 15.2696 46.0334 15.4588 45.6828 15.6196L44.1098 16.3575C43.8634 16.4711 43.3612 16.7171 43.2475 16.4805L43.2096 16.3954L43.0106 16.49L43.0769 16.6414C43.1053 16.7076 43.1622 16.7644 43.2096 16.8211C43.257 16.8873 43.3043 16.963 43.3328 17.0387C43.3707 17.1144 43.3991 17.1901 43.418 17.2752C43.437 17.3509 43.437 17.4266 43.4654 17.4928L43.5318 17.6442L43.7308 17.5496L43.6928 17.4645C43.5886 17.2469 44.015 17.0482 44.3183 16.9063L45.9386 16.1494C46.2608 15.998 46.7156 15.7426 46.8388 15.998L46.8767 16.0832L47.0757 15.9886L47.0094 15.8467C46.981 15.7804 46.9336 15.7142 46.8862 15.6574C46.8388 15.5912 46.7914 15.5155 46.763 15.4399C46.7251 15.3642 46.7062 15.279 46.6777 15.2033C46.6588 15.1276 46.6398 15.052 46.6114 14.9857L46.564 14.8438Z" fill="#3BA6B3"/>
<path fill-rule="evenodd" clip-rule="evenodd" d="M44.8206 18.2687L44.6974 18.2971C44.3184 18.3917 43.9015 18.4201 43.873 19.0539C43.8636 19.2053 43.873 19.3472 43.911 19.4891C44.1194 20.3217 44.8964 20.473 45.4176 20.3501C46.1093 20.1798 46.2325 19.5554 46.1567 19.2432L46.1378 19.1675L46.1946 19.1485C46.3273 19.4418 46.6495 19.8581 47.2464 19.7162C47.635 19.6216 48.0614 19.3567 47.9003 18.7133C47.7581 18.1552 47.616 18.0795 47.616 17.7578L47.4644 17.7957C47.3222 17.8335 46.8864 17.9186 46.7063 17.9565L46.7442 18.1173C47.1896 18.0984 47.5307 18.1268 47.6255 18.4957C47.7013 18.7985 47.4833 19.0445 47.0759 19.1391C46.621 19.2526 46.261 19.0256 46.1852 18.7228C46.1662 18.6566 46.1567 18.5809 46.1472 18.5147L45.844 18.5904C45.8724 18.6471 45.9009 18.7039 45.9198 18.7985C46.062 19.3661 45.6261 19.65 45.1618 19.7635C44.5648 19.9149 44.1857 19.6973 44.1099 19.3567C44.0436 19.0918 44.1289 18.7039 44.8491 18.4011L44.8206 18.2687Z" fill="#3BA6B3"/>
<path fill-rule="evenodd" clip-rule="evenodd" d="M44.4319 21.3908L44.4414 21.5327C44.4508 21.6936 44.5361 21.8449 44.5361 21.9585C44.5456 22.1004 44.4887 22.2707 44.4982 22.3558L44.5077 22.4599L44.7256 22.441L44.7162 22.3369C44.6972 22.072 45.1994 22.0909 45.3795 22.0814C45.8343 22.0531 47.0188 22.0247 47.2746 22.0058L47.3694 21.9963V22.0436C47.2462 22.072 46.9525 22.1571 45.9954 22.6207C45.5974 22.8099 45.3889 22.9329 45.0668 23.0748C44.8773 23.16 44.8773 23.16 44.6593 23.264L44.6688 23.4343C44.991 23.5289 45.0289 23.5384 45.1899 23.5952C45.569 23.7087 45.6164 23.7276 46.1281 23.8884C46.5829 24.0209 46.7819 24.0871 46.9904 24.1439C47.4736 24.2763 47.2367 24.2006 47.521 24.2858V24.3142L47.2178 24.3236L45.4458 24.5318C44.9341 24.5885 44.8583 24.4845 44.8488 24.3426V24.2763L44.6309 24.2953L44.6404 24.4088C44.6498 24.4845 44.6688 24.5507 44.6877 24.6264C44.7067 24.721 44.7351 24.8061 44.7446 24.9007C44.7541 24.9954 44.7541 25.09 44.7351 25.194C44.7256 25.2603 44.7067 25.3359 44.7067 25.4116L44.7256 25.5441L44.9436 25.5252L44.9341 25.4589C44.9057 25.1089 45.6827 25.0805 46.2323 25.0143L47.7389 24.8345C47.919 24.8156 48.1085 24.7872 48.298 24.7683C48.3359 24.7683 48.3738 24.7588 48.4117 24.7588C48.5065 24.7494 48.5823 24.7399 48.7244 24.721C48.6676 24.5885 48.6297 24.4561 48.6012 24.3047C48.516 24.2858 48.1085 24.2007 47.0946 23.8979C46.3839 23.6803 46.0143 23.51 45.4553 23.4249V23.387C45.6543 23.3303 45.8059 23.2546 45.9954 23.1789L48.5444 22.0625C48.4875 21.9774 48.4496 21.8733 48.4212 21.7692C48.2696 21.7787 47.6821 21.8071 47.2083 21.8071H45.55C44.8393 21.8071 44.6783 21.5989 44.6688 21.4476L44.6593 21.3813L44.4319 21.3908Z" fill="#3BA6B3"/>
<path fill-rule="evenodd" clip-rule="evenodd" d="M44.5458 26.2534L44.5268 26.4048C44.5173 26.4521 44.5363 26.5089 44.5363 26.5562C44.5458 26.6413 44.5268 26.7265 44.5173 26.8021C44.451 27.1995 44.451 26.8778 44.3942 27.2184L44.3847 27.3036L44.6026 27.3414L44.6216 27.2373C44.631 27.1427 44.7069 26.9441 45.0764 27.1143L45.7397 27.4076C45.6923 27.6631 45.6639 27.7104 45.6544 27.8239C45.626 28.0131 45.5976 28.2213 45.5976 28.3159L44.7827 28.401C44.5837 28.4199 44.451 28.3159 44.47 28.1834L44.4889 28.0793L44.271 28.0415L44.2425 28.2402C44.2331 28.3253 44.2425 28.4199 44.2425 28.5051C44.2425 28.5808 44.2331 28.6564 44.2236 28.7321C44.2046 28.8362 44.1857 28.9308 44.1478 29.0349C44.1194 29.1106 44.0909 29.1863 44.0815 29.2619L44.0625 29.3755L44.2804 29.4133L44.2899 29.366C44.3089 29.243 44.2804 29.1011 44.7542 29.0254C45.1996 28.9497 44.7732 28.9876 46.8579 28.7416C47.7865 28.6375 48.0044 28.6091 48.3077 28.5997C48.2698 28.4862 48.2413 28.3632 48.2319 28.2307C47.9097 28.1266 47.5875 27.9847 46.223 27.3603C45.9387 27.2279 45.5218 27.0292 45.1238 26.8021C44.9438 26.6981 44.7353 26.5656 44.7637 26.3859L44.7827 26.2913L44.5458 26.2534ZM47.379 28.1456C47.0474 28.1361 46.9621 28.1929 45.844 28.2969C45.8345 28.1929 45.844 28.0983 45.8629 27.9374C45.8913 27.7482 45.9198 27.6347 45.9671 27.5212C47.1137 28.0226 47.18 28.0604 47.379 28.1077V28.1456Z" fill="#3BA6B3"/>
<path fill-rule="evenodd" clip-rule="evenodd" d="M46.9054 32.3367L44.5743 31.5326C44.2142 31.4096 43.6362 31.2014 43.7215 30.9554L43.7499 30.8608L43.5415 30.7852L43.4846 30.9554C43.4562 31.0311 43.4656 31.1068 43.4562 31.1825C43.4467 31.2677 43.4183 31.3528 43.3993 31.4285C43.3709 31.5042 43.3425 31.5893 43.2951 31.6555C43.2572 31.7218 43.2003 31.7785 43.1814 31.8542L43.1245 32.0151L43.333 32.0907L43.3614 31.9961C43.4467 31.7312 44.0342 31.9583 44.3943 32.0813L46.7253 32.8854L46.6116 33.226C46.5548 33.3963 46.4221 33.7274 46.0052 33.5855C45.9862 33.5761 45.882 33.5477 45.7683 33.4815L45.7114 33.6518C46.1378 33.8694 46.2042 33.9261 46.64 34.1059C46.7443 33.7274 46.8959 33.122 47.0475 32.6868C47.1044 32.5165 47.256 32.1002 47.3223 31.9583C47.3886 31.7975 47.4076 31.7691 47.5782 31.4096C47.2749 31.2866 47.1612 31.2204 46.6495 30.9744L46.5927 31.1352C47.1044 31.4474 47.1517 31.7123 47.057 31.9867L46.9054 32.3367Z" fill="#3BA6B3"/>
<path fill-rule="evenodd" clip-rule="evenodd" d="M45.7305 35.6859L45.541 35.5723L45.4936 35.6575C45.342 35.894 44.9156 35.5723 44.6313 35.3926L43.1531 34.4749C42.8973 34.314 42.414 34.0208 42.5561 33.7937L42.6035 33.718L42.414 33.6045L42.3666 33.6896C42.2718 33.8316 42.2624 33.9167 42.2245 34.0113C42.1771 34.1532 42.1297 34.1816 42.035 34.2667C41.9686 34.3235 41.9212 34.3897 41.8739 34.456C41.7886 34.56 41.7128 34.6736 41.637 34.7871C41.1821 35.5156 41.6559 36.0075 42.0918 36.2724C42.5466 36.5562 43.172 36.5752 43.5985 35.9035C43.6648 35.7899 43.7216 35.6764 43.7785 35.5629L44.3186 35.894C44.7166 36.14 45.0672 36.3292 44.9251 36.5562L44.8777 36.6414L45.0672 36.7549L45.1525 36.6225C45.1904 36.5562 45.2188 36.4806 45.2473 36.4143C45.2852 36.3386 45.3136 36.263 45.361 36.1873C45.4083 36.1211 45.4652 36.0454 45.5126 35.9886C45.56 35.9318 45.6168 35.8751 45.6547 35.8088L45.7305 35.6859ZM43.6174 35.4493C43.5985 35.4872 43.5795 35.525 43.5511 35.5629C43.2952 35.9697 42.8499 36.017 42.3477 35.7048C41.8549 35.402 41.7507 35.0141 41.9023 34.7776C42.0539 34.5316 42.2529 34.5884 42.5561 34.7871L43.6174 35.4493ZM44.2902 37.9754L44.1007 37.8618L44.0533 37.947C43.9112 38.1835 43.4848 37.8713 43.1626 37.6726L41.6938 36.7549C41.4569 36.613 40.9831 36.3197 41.1253 36.1021L41.1727 36.0264L40.9831 35.9129L40.8979 36.0548C40.8599 36.1211 40.841 36.1967 40.822 36.263C40.7936 36.3386 40.7557 36.4143 40.7083 36.49C40.661 36.5562 40.6136 36.6225 40.5567 36.6887C40.4999 36.7455 40.443 36.7928 40.4051 36.8495L40.3198 36.9914L40.5093 37.105L40.5567 37.0293C40.6799 36.8306 41.0779 37.0671 41.3622 37.2469L42.8783 38.193C43.172 38.3822 43.6458 38.6282 43.4942 38.8647L43.4468 38.9498L43.6364 39.0633L43.7216 38.9309C43.7596 38.8647 43.788 38.789 43.8164 38.7228C43.8543 38.6471 43.8827 38.5714 43.9301 38.4957C43.9775 38.4295 44.0344 38.3538 44.0817 38.297C44.1291 38.2403 44.186 38.1835 44.2239 38.1173L44.2902 37.9754Z" fill="#3BA6B3"/>
</svg>
