<svg width="40" height="40" viewBox="0 0 40 40" fill="none" xmlns="http://www.w3.org/2000/svg">
<rect x="0.5" y="0.5" width="39" height="39" rx="5.5" fill="white" stroke="#EEEEEE"/>
<path d="M17 13.4V17H13.4V13.4H17ZM18.8 11.6H11.6V18.8H18.8V11.6ZM17 23V26.6H13.4V23H17ZM18.8 21.2H11.6V28.4H18.8V21.2ZM26.6 13.4V17H23V13.4H26.6ZM28.4 11.6H21.2V18.8H28.4V11.6ZM21.2 21.2H23V23H21.2V21.2ZM23 23H24.8V24.8H23V23ZM24.8 21.2H26.6V23H24.8V21.2ZM21.2 24.8H23V26.6H21.2V24.8ZM23 26.6H24.8V28.4H23V26.6ZM24.8 24.8H26.6V26.6H24.8V24.8ZM26.6 23H28.4V24.8H26.6V23ZM26.6 26.6H28.4V28.4H26.6V26.6ZM32 14H29.6V10.4H26V8H32V14ZM32 32V26H29.6V29.6H26V32H32ZM8 32H14V29.6H10.4V26H8V32ZM8 8V14H10.4V10.4H14V8H8Z" fill="#3BA6B3"/>
</svg>
