<svg width="127" height="34" viewBox="0 0 127 34" fill="none" xmlns="http://www.w3.org/2000/svg">
<path fill-rule="evenodd" clip-rule="evenodd" d="M20.1643 0V14.1603L34.3471 0H20.1643Z" fill="#3BA6B3"/>
<path fill-rule="evenodd" clip-rule="evenodd" d="M14.8381 19.4778V33.6381L0.655273 19.4778H14.8381Z" fill="#E53712"/>
<path d="M121.688 15.9229H119.25V8.36477H116.407V6.46777H124.531V8.36477H121.688V15.9229ZM105.935 9.17137C105.935 8.63364 105.665 8.36477 105.127 8.36477H102.419V11.3372H105.127C105.665 11.3372 105.935 11.0684 105.935 10.5306V9.17137ZM99.9803 6.46777H105.665C106.608 6.46777 107.296 6.67689 107.73 7.11006C108.164 7.54324 108.373 8.23034 108.373 9.17137V10.5157C108.373 11.4567 108.164 12.1438 107.73 12.577C107.296 13.0102 106.608 13.2193 105.665 13.2193H102.419V15.9229H99.9803V6.46777ZM85.7825 12.4874H87.9518L86.8746 9.3058L85.7825 12.4874ZM84.5557 15.9229H81.9226L85.5132 6.46777H88.2211L91.8117 15.9229H89.1786L88.5652 14.235H85.1841L84.5557 15.9229ZM71.3004 10.6651L69.4004 14.0408H67.5004L65.6004 10.6651V15.9378H63.1618V6.48271H65.735L68.4429 11.4717L71.1508 6.48271H73.7241V15.9378H71.2855V10.6651H71.3004ZM49.5923 15.9677C48.7096 15.9677 48.0513 15.7586 47.6474 15.3553C47.2285 14.952 47.019 14.3097 47.019 13.4284V9.14149C47.019 8.20046 47.2285 7.5283 47.6624 7.09513C48.0962 6.67689 48.7844 6.46777 49.7269 6.46777H54.6042V8.36477H50.2805C49.7419 8.36477 49.4726 8.63364 49.4726 9.17137V13.4732C49.4726 13.6823 49.5325 13.8466 49.6521 13.9661C49.7718 14.0856 49.9364 14.1454 50.1458 14.1454C50.3104 14.1454 50.5199 14.1454 50.7443 14.1454C50.9687 14.1454 51.2081 14.1454 51.4474 14.1454C51.6868 14.1454 51.9411 14.1454 52.1805 14.1454C52.4348 14.1454 52.6742 14.1006 52.8986 14.0259C53.4522 14.0259 54.0207 14.0259 54.6042 14.0259V15.7885C54.0057 15.908 53.4073 15.9677 52.8089 15.9677C52.3002 15.9677 51.7467 15.9677 51.1781 15.9677C50.5947 15.9677 50.071 15.9677 49.5923 15.9677Z" fill="#3BA6B3"/>
<path fill-rule="evenodd" clip-rule="evenodd" d="M14.8381 14.1603V0L0.655273 14.1603H14.8381Z" fill="#F7A803"/>
<path fill-rule="evenodd" clip-rule="evenodd" d="M20.1643 33.6381V19.4778L34.3471 33.6381H20.1643Z" fill="#F7A803"/>
<path d="M101.88 25.6469C101.88 25.1091 101.611 24.8403 101.072 24.8403H98.4992V27.275H101.072C101.611 27.275 101.88 27.0061 101.88 26.4684V25.6469ZM107.835 29.172H105.396V19.7169H107.835V29.172ZM98.4992 22.9582H101.611C102.554 22.9582 103.242 23.1673 103.676 23.6005C104.109 24.0337 104.319 24.7208 104.319 25.6618V26.4684C104.319 27.4094 104.109 28.0965 103.676 28.5297C103.242 28.9629 102.554 29.172 101.611 29.172H96.0606V19.7169H98.4992V22.9582ZM81.9226 27.2003C81.8777 27.8426 81.6683 28.3654 81.2942 28.7388C80.9202 29.1123 80.4265 29.3064 79.8131 29.3064C79.6486 29.3064 79.469 29.3064 79.3044 29.2915C79.1399 29.2766 78.9903 29.2616 78.8556 29.2467C78.6911 29.2318 78.5415 29.2019 78.3918 29.1869V27.3646H79.0052C79.1698 27.3646 79.3194 27.3049 79.4391 27.1854C79.5438 27.0659 79.6186 26.9315 79.6186 26.7522L80.0226 19.7318H87.5329V29.1869H85.0943V21.6288H82.2517L81.9226 27.2003ZM65.4956 25.7216H67.665L66.5728 22.5549L65.4956 25.7216ZM64.2688 29.172H61.6357L65.2263 19.7169H67.9342L71.5248 29.172H68.8917L68.2783 27.4841H64.8972L64.2688 29.172ZM124.217 23.8992L122.317 27.275H120.432L118.532 23.8992V29.172H116.093V19.7169H118.666L121.374 24.7208L124.082 19.7169H126.655V29.172H124.217V23.8992ZM49.5923 29.2019C48.7096 29.2019 48.0513 28.9928 47.6474 28.5895C47.2285 28.1862 47.019 27.5289 47.019 26.6626V22.3757C47.019 21.4346 47.2285 20.7625 47.6624 20.3293C48.0962 19.9111 48.7844 19.687 49.7269 19.687H54.6042V21.584H50.2805C49.7419 21.584 49.4726 21.8529 49.4726 22.3906V26.6925C49.4726 26.9016 49.5325 27.0659 49.6521 27.1854C49.7718 27.3049 49.9364 27.3646 50.1458 27.3646C50.3104 27.3646 50.5199 27.3646 50.7443 27.3646C50.9687 27.3646 51.2081 27.3646 51.4474 27.3646C51.6868 27.3646 51.9411 27.3646 52.1805 27.3646C52.4348 27.3646 52.6742 27.3198 52.8986 27.2451C53.4522 27.2451 54.0207 27.2451 54.6042 27.2451V29.0077C54.0057 29.1272 53.4073 29.1869 52.8089 29.1869C52.3002 29.1869 51.7467 29.1869 51.1781 29.1869C50.5947 29.2019 50.071 29.2019 49.5923 29.2019Z" fill="#E53712"/>
</svg>
