<svg width="74" height="60" viewBox="0 0 74 60" fill="none" xmlns="http://www.w3.org/2000/svg">
<path d="M19.089 31.7455C19.757 35.9035 19.558 36.7975 18.9042 38.4863C18.8615 38.5998 19.3164 38.983 19.4869 38.5572C20.0128 37.1949 20.0128 37.1807 20.0981 35.9886C20.1834 34.4844 19.0605 31.632 19.089 31.7455ZM46.4077 30.3548C46.4362 30.2271 44.5315 34.2999 44.6452 35.9461C44.7447 37.2517 44.6879 37.649 45.3275 39.1249C45.5265 39.5932 46.0808 39.1675 46.0382 39.0397C45.1427 36.1306 45.0006 35.9603 46.4077 30.3548ZM49.4068 30.7521C49.4353 30.6244 48.085 33.9167 48.1987 35.5629C48.2982 36.8685 48.2555 36.6698 48.8951 38.1457C49.0941 38.614 49.6769 38.2167 49.62 38.1031C48.8383 36.2583 48.5966 35.2933 49.4068 30.7521ZM52.7471 31.4191C52.7613 31.3198 51.61 33.8174 51.7095 35.1372C51.7947 36.1873 51.7947 36.2015 52.3349 37.3794C52.5054 37.7483 52.9745 37.4219 52.9318 37.3226C52.2638 35.8609 52.0506 35.0662 52.7471 31.4191ZM30.5736 28.9499C30.3604 28.666 30.0193 28.368 30.1899 28.7086C30.6305 29.6452 31.1564 30.0993 31.9524 30.2696C32.8905 30.4683 33.6438 29.8723 34.1271 28.8363C34.2834 28.4816 33.3595 29.6878 32.2082 29.6594C31.5118 29.6452 31.0001 29.5033 30.5736 28.9499ZM30.6589 33.193C30.4457 32.9092 30.1046 32.6112 30.2752 32.9517C30.7158 33.8884 31.2417 34.3425 32.0377 34.5128C32.9758 34.7114 33.7291 34.1154 34.2124 33.0795C34.3687 32.7247 33.4448 33.9309 32.2935 33.9026C31.597 33.8884 31.0853 33.7606 30.6589 33.193ZM30.7442 37.7625C30.531 37.4787 30.1899 37.1807 30.3604 37.5355C30.8011 38.4721 31.327 38.9262 32.1229 39.0965C33.061 39.2952 33.8144 38.6991 34.2976 37.6632C34.454 37.3084 33.5301 38.5147 32.3788 38.4863C31.6823 38.4579 31.1564 38.3302 30.7442 37.7625ZM30.9716 41.6793C30.7584 41.3955 30.4173 41.0974 30.5879 41.4522C31.0285 42.3888 31.5544 42.8429 32.3504 43.0132C33.2885 43.2119 34.0418 42.6159 34.5251 41.5799C34.6814 41.2252 33.7575 42.4314 32.6062 42.403C31.9239 42.3746 31.398 42.2469 30.9716 41.6793ZM34.6103 26.736C34.3971 26.4522 34.056 26.1542 34.2266 26.4948C34.6672 27.4314 35.1931 27.8855 35.9891 28.0558C36.9272 28.2545 37.6805 27.6585 38.1638 26.6225C38.3201 26.2677 37.3962 27.474 36.2449 27.4456C35.5484 27.4172 35.0368 27.2895 34.6103 26.736ZM34.6814 30.9792C34.4682 30.6954 34.1271 30.3974 34.2976 30.7379C34.7383 31.6745 35.2642 32.1287 36.0601 32.299C36.9982 32.4976 37.7516 31.9016 38.2348 30.8657C38.3912 30.5109 37.4673 31.7171 36.316 31.6887C35.6195 31.6745 35.1078 31.5326 34.6814 30.9792ZM34.7667 35.5487C34.5535 35.2649 34.2124 34.9669 34.3829 35.3075C34.8235 36.2441 35.3495 36.6982 36.1454 36.8685C37.0835 37.0672 37.8369 36.4711 38.3201 35.4352C38.4765 35.0804 37.5526 36.2867 36.4013 36.2583C35.7048 36.2441 35.1931 36.1022 34.7667 35.5487ZM35.0083 39.4655C34.7951 39.1816 34.454 38.8836 34.6246 39.2384C35.0652 40.175 35.5911 40.6291 36.3871 40.7994C37.3252 40.9981 38.0785 40.4021 38.5618 39.3661C38.7181 39.0114 37.7942 40.2176 36.6429 40.1892C35.9464 40.1608 35.4347 40.0331 35.0083 39.4655ZM38.3343 29.1627C38.1211 28.8789 37.78 28.5809 37.9506 28.9215C38.3912 29.8581 38.9171 30.3122 39.7131 30.4825C40.6512 30.6812 41.4045 30.0851 41.8878 29.0492C42.0441 28.6944 41.1202 29.9007 39.9689 29.8723C39.2724 29.8439 38.7465 29.7162 38.3343 29.1627ZM38.4054 33.4059C38.1922 33.122 37.8511 32.824 38.0216 33.1646C38.4623 34.1012 38.9882 34.5553 39.7841 34.7256C40.7222 34.9243 41.4756 34.3283 41.9588 33.2923C42.1152 32.9376 41.1913 34.1438 40.04 34.1154C39.3435 34.1012 38.8318 33.9593 38.4054 33.4059ZM38.4907 37.9754C38.2775 37.6916 37.9364 37.3936 38.1069 37.7483C38.5475 38.685 39.0735 39.1391 39.8694 39.3094C40.8075 39.508 41.5609 38.912 42.0441 37.8761C42.2005 37.5213 41.2766 38.7275 40.1253 38.6991C39.4288 38.6708 38.9029 38.543 38.4907 37.9754ZM38.7323 41.8921C38.5191 41.6083 38.178 41.3103 38.3486 41.6509C38.7892 42.5875 39.3151 43.0416 40.1111 43.2119C41.0492 43.4106 41.8025 42.8146 42.2858 41.7786C42.4421 41.4238 41.5182 42.6301 40.3669 42.6017C39.6704 42.5875 39.1445 42.4598 38.7323 41.8921ZM25.2151 30.5393C26.5796 36.9395 26.4375 37.1239 25.5704 40.4588C25.5278 40.6008 26.0679 41.0833 26.2527 40.5582C26.8639 38.8694 26.8212 38.4011 26.9065 36.9253C27.0202 35.0378 25.1866 30.3974 25.2151 30.5393ZM22.3297 30.9934C23.1114 36.1731 22.8698 37.28 22.1165 39.3803C22.0596 39.5222 22.6282 39.9622 22.8272 39.4371C23.4384 37.7483 23.4099 37.9754 23.4952 36.4853C23.6089 34.5979 22.3013 30.8373 22.3297 30.9934ZM34.9799 14.5743C34.6388 14.5743 34.3687 14.8581 34.3687 15.1987C34.3687 15.4541 34.6672 15.8231 34.9373 15.8373C36.1739 15.894 35.7474 15.1845 36.0317 15.1845C36.2449 15.1845 37.6947 15.1561 37.6947 15.7663C37.6947 16.0076 37.8511 16.0501 37.8511 15.7947C37.8369 14.9574 35.6195 14.5743 34.9799 14.5743ZM48.4261 19.6121C52.7186 20.0662 57.0254 28.0274 56.9827 33.86C56.9827 34.7398 55.3624 33.2923 55.7319 34.087C56.9117 36.5989 56.3289 39.4513 56.4426 40.9839C56.5279 41.9631 55.2771 42.1618 55.2771 42.1618C55.2771 45.2271 54.9075 47.4834 53.6283 50.2933C52.7044 52.351 50.9277 54.7209 50.3876 56.736C49.1794 56.3955 48.156 54.6925 48.156 53.8552C48.156 52.4787 49.9185 49.1438 50.8424 46.7455C51.2688 45.4683 51.4678 44.4607 52.1074 43.8789C50.9277 44.8155 50.7287 45.8231 50.1602 47.0151C49.3215 48.8174 47.9428 51.6131 47.559 53.3727C46.6494 52.6064 45.8108 51.5421 45.8108 50.5345C45.8108 50.0095 48.2129 44.2763 48.9662 43.0558C46.7346 44.7446 46.4646 47.6395 45.3417 50.1088C44.6452 49.527 43.9203 48.3065 43.9203 47.4267C43.9203 46.6745 45.7823 42.3037 46.2372 41.878C44.6594 42.6443 43.9345 45.3832 43.4655 46.9442C42.3995 45.965 42.2431 44.6452 42.1863 43.5809C41.8025 45.369 40.2532 49.527 40.2532 50.1514C40.2532 50.6339 41.504 53.8694 41.902 54.3803C42.2005 54.4087 42.7406 53.8694 43.7071 54.4087C44.162 54.877 44.361 54.5222 44.8869 55.6433C44.5884 55.6575 44.1193 55.246 43.9203 55.175C43.3091 54.9622 43.4939 55.1892 43.0675 55.4021C42.5985 55.6291 42.1152 55.1608 42.0157 55.2318C43.1244 56.1258 43.7213 56.1968 43.2523 57.4456C43.167 57.6868 42.8543 58.368 42.7548 58.4957C42.57 58.2829 42.6411 57.3463 42.4563 56.8496C41.106 56.8354 41.902 55.5298 41.1629 55.4446C40.8786 56.8212 39.4857 55.6008 39.1303 56.9631L38.7181 57.403C38.5618 54.877 40.5801 54.8486 40.5517 54.7209C39.7841 51.2583 36.2307 48.264 36.2307 48.264C34.7951 50.123 33.3027 50.8467 31.995 54.7209C31.9524 54.8486 33.9565 55.1892 34.2266 57.7294L33.9707 57.6301C33.8997 57.2753 33.5017 56.807 33.061 56.7219C32.3788 56.5799 31.5828 56.807 31.7392 55.6008C31.4833 55.7852 31.4691 56.0549 31.128 56.5799C30.8579 56.9915 30.1614 57.5024 30.0762 58.07C30.0193 58.439 30.3036 58.8505 30.5026 59.2337C30.3604 59.0492 29.4365 58.2261 29.5503 57.9849C30.2609 56.4238 28.8254 56.6793 30.5168 55.2318C30.4315 55.1466 29.934 55.7994 29.465 55.5724C28.8822 55.2885 29.067 56.0123 27.8588 55.9839C28.5837 55.5156 28.7259 54.7351 29.3939 54.4513C29.6782 54.3377 30.5452 54.3519 30.8437 54.3236C31.2417 53.8127 32.2651 50.6339 32.2651 50.1514C32.2651 49.527 30.7158 45.369 30.332 43.5809C30.2752 44.6452 30.133 45.965 29.0528 46.9442C28.5837 45.3832 27.8588 42.6443 26.2811 41.878C26.7359 42.3037 28.5979 46.6745 28.5979 47.4267C28.5979 48.3065 27.873 49.527 27.1766 50.1088C26.0537 47.6395 25.7836 44.7304 23.5521 43.0558C24.3054 44.2763 26.7075 50.0095 26.7075 50.5345C26.7075 51.5279 25.8689 52.5922 24.9592 53.3727C24.5755 51.6272 23.1967 48.8174 22.3581 47.0151C21.7896 45.8231 21.5906 44.8155 20.4108 43.8789C21.0504 44.4607 21.2494 45.4683 21.6759 46.7455C22.5997 49.1296 24.3622 52.4645 24.3622 53.8552C24.3622 54.6783 23.3246 56.3955 22.1307 56.736C21.5764 54.7209 19.9418 52.2942 18.89 50.2933C16.1467 45.0709 17.5539 43.9924 17.1132 41.2394C16.9711 40.3595 16.1467 41.3671 16.232 39.7919C16.232 39.7919 14.7538 34.3567 17.3407 30.6102C17.3833 30 15.8482 31.3198 15.9193 30.7521C16.2462 28.3964 19.2737 20.1088 24.1064 19.6121C26.9776 19.3141 26.8354 23.1031 28.6406 24.3945C29.0528 24.6925 29.5645 24.8628 30.2325 24.8628C31.4549 24.8628 32.1798 24.0681 32.6062 23.0747C33.189 21.7692 33.2316 20.1372 33.2316 19.6547C33.2316 18.3491 33.3595 16.6178 30.8437 16.6887C31.2843 16.4191 31.7676 16.3482 32.0234 16.3482C32.7626 16.3482 33.5159 16.6887 34.2266 17.1854L34.3829 17.0151C33.8854 16.1779 32.5778 15.9224 31.9666 15.9224C31.5402 15.9224 30.1757 16.2346 29.934 16.7597C29.7777 16.6462 29.664 16.5468 29.664 16.2914C29.6498 15.6954 29.8061 14.929 30.1472 14.6736C31.327 13.8079 32.4356 14.3756 33.0468 13.9641C34.0844 13.2545 34.5251 12.9849 35.4205 12.9849C35.6764 12.9849 37.8937 13.2971 39.1729 13.6235C39.2867 13.737 39.3009 13.666 39.3009 13.9357C39.3009 14.2053 39.1872 14.3472 39.0877 14.404C39.8126 14.6878 40.1395 16.6036 40.1395 17.2706V20.9319C40.1395 22.6206 40.7222 24.4371 42.9112 24.4655C46.5641 24.5222 45.228 19.2857 48.4261 19.6121ZM30.7016 46.3765L31.8387 50.0095C31.3128 51.5137 31.2275 52.9044 30.6589 53.8552C30.4741 54.1533 29.2518 53.9688 28.9249 54.1816C28.5269 54.4513 28.0294 55.3027 27.5745 55.6149L30.7016 46.3765ZM31.4123 60C31.1564 60 28.7685 59.9716 28.4984 59.9716C27.7451 59.9716 26.5938 59.7304 26.5938 58.5241C26.5938 58.2545 27.0202 57.0766 27.4893 56.3103C27.6456 56.5516 27.7025 56.2677 27.9583 56.2677C28.2142 56.2677 28.5127 56.3103 28.7401 56.1968C28.7401 56.1968 29.2376 55.9981 29.3797 55.9697C29.1807 56.4664 29.4508 56.9773 29.3655 57.3604C29.2091 58.0132 29.1381 58.2687 29.2944 58.4815C29.536 58.8079 29.8487 59.404 30.5736 59.5033C30.9148 59.5175 30.3889 58.6518 30.3889 58.1835C30.4031 57.5733 31.1848 57.2753 31.4833 56.5516C31.5686 57.0766 32.3788 56.9631 33.0184 57.176C33.5017 57.403 33.3311 57.9707 34.2266 58.2545C34.6814 58.3964 34.5535 57.5024 34.5535 57.3604C34.5535 56.4664 33.5301 54.948 32.5778 54.6499C33.0042 52.1949 36.2733 49.0445 36.3728 48.9309C37.3394 49.9669 39.5709 52.28 39.8978 54.4513C39.5425 54.8486 38.7181 54.806 38.3628 56.6509C38.3343 56.7928 38.2775 57.8004 38.7181 57.9991C39.0308 58.141 39.5567 57.3179 39.642 56.8496C39.7557 56.2535 40.5375 57.1334 41.0918 56.2394C41.2766 56.4806 41.3761 56.7077 41.4898 57.0341C41.5893 57.3179 42.1294 57.0908 42.2147 57.3604C42.4137 58.0132 42.2573 58.964 42.6553 58.9499C43.1244 58.8505 43.6929 57.8855 43.6929 57.3179C43.6929 57.0482 44.1051 56.1968 43.1386 55.7143C43.2523 55.5866 43.9488 55.544 43.9488 55.544C44.1762 55.6575 44.5599 56.1116 45.228 56.3245C45.697 57.0908 46.1235 58.2687 46.1235 58.5383C46.1235 59.7304 45.1427 59.9858 44.3752 59.9858C44.1335 59.9716 33.8144 60 31.4123 60ZM41.9446 46.0785L44.8727 54.877C44.4178 54.5648 44.034 54.1107 43.6361 53.8552C43.3091 53.6424 42.4421 54.1107 42.2573 53.7985C41.4756 52.4503 41.1629 51.6131 40.637 50.1088L41.9446 46.0785Z" fill="#3BA6B3"/>
<path fill-rule="evenodd" clip-rule="evenodd" d="M7.51911 58.6377L7.78917 58.4532L7.7181 58.3255C7.5049 58.0133 8.0308 57.6727 8.47143 57.3605L10.902 55.6576C11.1863 55.4589 11.7832 55.0615 11.9964 55.3596L12.0817 55.4731L12.3518 55.2886L12.2096 55.0899C12.1528 55.0048 12.0533 54.9338 11.968 54.8629C11.8827 54.7777 11.7974 54.6784 11.7264 54.5649C11.6553 54.4655 11.5842 54.352 11.5416 54.2385C11.4705 54.1249 11.4421 54.0114 11.371 53.9263L11.2289 53.7276L10.9588 53.9121L11.0441 54.0256C11.2573 54.3236 10.6746 54.7493 10.3903 54.948L7.95974 56.6509C7.53332 56.949 7.02163 57.3321 6.79421 57.0199L6.70893 56.9064L6.43887 57.0909L6.56679 57.2754C6.62365 57.3605 6.72314 57.4456 6.79421 57.5308C6.87949 57.6159 6.96477 57.7153 7.03584 57.8146C7.10691 57.914 7.16377 58.0275 7.22062 58.141C7.26326 58.2404 7.32012 58.3539 7.37697 58.439L7.51911 58.6377ZM6.18302 56.1543L6.09774 56.0265C6.04088 55.9414 6.08352 55.7995 6.23987 55.7285C6.59522 55.5582 7.06427 55.6434 7.41961 55.686C7.84603 55.7285 8.30087 55.7285 8.96891 55.7569C9.2674 54.9338 9.66538 54.0965 9.82173 53.756C10.2197 52.9187 10.4329 52.4788 10.106 52.0246C9.94966 51.8118 9.87859 51.7976 9.5801 51.5847L9.31004 51.7834C9.55167 51.8969 9.60853 51.9821 9.63696 52.0246C9.75067 52.1949 9.53746 52.5639 9.39532 52.8335C9.18212 53.2593 8.96891 53.7134 8.76992 54.1391C8.58514 54.5365 8.37193 54.9196 8.48564 55.4873C8.34351 55.4731 8.27244 55.4589 8.14451 55.4447C7.80338 55.4163 8.10187 55.4589 7.23484 55.3454C5.65711 55.1467 5.5434 55.1893 5.30177 54.8629L5.24491 54.7777L4.97485 54.9622L5.06014 55.0899C5.10278 55.1467 5.15963 55.1893 5.20227 55.246C5.30177 55.3454 5.41548 55.4589 5.50076 55.5724C5.60026 55.7143 5.65711 55.8562 5.72818 56.0123C5.77082 56.0833 5.79925 56.1401 5.84189 56.1968L5.92717 56.3104L6.18302 56.1543Z" fill="#3BA6B3"/>
<path fill-rule="evenodd" clip-rule="evenodd" d="M3.63878 52.4362L3.93727 52.3085L3.88041 52.1808C3.73828 51.7976 4.50582 51.5564 4.97487 51.3719L7.39121 50.3927C7.81762 50.2224 8.58516 49.896 8.74151 50.2792L8.79836 50.4069L9.09685 50.2792L9.04 50.1514C8.9405 49.9102 8.85522 49.825 8.76994 49.6973C8.64201 49.5128 8.65623 49.4277 8.6278 49.2432C8.61359 49.1155 8.57095 49.002 8.54252 48.8884C8.48566 48.6898 8.41459 48.5053 8.34353 48.3066C7.86026 47.1145 6.83687 47.2565 6.1404 47.5403C5.38707 47.8383 4.81852 48.5904 5.27336 49.6973C5.34443 49.8818 5.42971 50.0521 5.52921 50.2224L4.64796 50.5772C3.99412 50.8326 3.454 51.1022 3.29765 50.7333L3.2408 50.6056L2.94231 50.7333L3.02759 50.9461C3.07023 51.0455 3.1413 51.1448 3.19816 51.2442C3.25501 51.3577 3.32608 51.457 3.36872 51.5706C3.41136 51.6841 3.454 51.8118 3.48243 51.9395C3.51086 52.053 3.52507 52.1666 3.56771 52.2659L3.63878 52.4362ZM5.79927 50.0805C5.77084 50.0237 5.74241 49.967 5.71399 49.9102C5.44392 49.2432 5.78505 48.6614 6.59524 48.3208C7.39121 47.9944 7.95975 48.2073 8.11611 48.5904C8.28667 49.002 8.03082 49.1723 7.51913 49.3851L5.79927 50.0805ZM2.11791 48.6756L2.4164 48.5478L2.35955 48.4201C2.2032 48.037 2.95652 47.7957 3.48243 47.5828L5.89876 46.6037C6.28254 46.4476 7.05008 46.1212 7.19221 46.4901L7.24907 46.6179L7.54756 46.4901L7.46227 46.2631C7.41963 46.1637 7.33435 46.0786 7.2775 45.9793C7.20643 45.8799 7.14957 45.7664 7.10693 45.6529C7.06429 45.5393 7.02165 45.4258 6.99322 45.2981C6.97901 45.1846 6.97901 45.071 6.93637 44.9717L6.83687 44.7446L6.53838 44.8582L6.59524 44.9859C6.72316 45.3123 6.08354 45.5819 5.61449 45.7664L3.12709 46.774C2.64382 46.9726 1.91892 47.3274 1.76257 46.9301L1.70571 46.7881L1.40723 46.9159L1.49251 47.1287C1.53515 47.2281 1.60622 47.3274 1.66307 47.4267C1.71993 47.5403 1.791 47.6396 1.83364 47.7531C1.87628 47.8667 1.91892 47.9944 1.94735 48.1221C1.97578 48.2498 1.98999 48.3634 2.03263 48.4627L2.11791 48.6756Z" fill="#3BA6B3"/>
<path fill-rule="evenodd" clip-rule="evenodd" d="M6.26814 41.3529L5.94123 41.4096L5.98387 41.5941C6.06915 42.0057 5.05997 42.1476 4.54828 42.2469L1.7766 42.7862L0.952208 42.9423C0.923781 42.8713 0.923781 42.8146 0.909567 42.7436C0.781643 42.0908 1.23648 41.5941 2.11773 41.4238C3.14112 41.2252 3.59596 41.6793 3.55332 42.1476L3.83759 42.0908C3.83759 41.9631 3.83759 41.8354 3.80917 41.7076C3.61017 40.7143 2.7005 40.4021 1.80503 40.5724C1.29334 40.6717 0.198881 41.0974 0.483155 42.5307C0.511583 42.6868 0.568438 42.8429 0.625292 42.999C0.696361 43.1977 0.76743 43.3964 0.810071 43.6093C0.838498 43.737 0.852712 43.8789 0.866926 44.0066C0.866926 44.0776 0.881139 44.1627 0.895353 44.2337L0.923781 44.3756L1.2507 44.3188L1.22227 44.1769C1.1512 43.8079 1.96138 43.6518 2.601 43.5241L4.22136 43.2119C4.51985 43.1551 5.25897 43.0274 5.57167 42.9707C5.77066 42.9423 6.26814 42.8713 6.33921 43.1693L6.36764 43.3112L6.69455 43.2545L6.65191 42.999C6.62348 42.8855 6.56663 42.7862 6.52399 42.6868C6.48135 42.5733 6.43871 42.4598 6.42449 42.3321C6.39606 42.2043 6.38185 42.0766 6.38185 41.9489C6.38185 41.8354 6.41028 41.7218 6.38185 41.6083L6.26814 41.3529Z" fill="#3BA6B3"/>
<path fill-rule="evenodd" clip-rule="evenodd" d="M0.0994961 38.6849L0.426412 38.6707V38.5146C0.412198 38.1598 1.15131 38.1315 1.62036 38.1173L4.43468 38.0179C4.88952 38.0037 5.61442 37.9612 5.62864 38.3443V38.4862L5.95555 38.472L5.94134 38.2166C5.94134 38.1031 5.88448 38.0037 5.85606 37.8902C5.82763 37.7625 5.81341 37.649 5.81341 37.5212C5.81341 37.3935 5.81341 37.28 5.84184 37.1523C5.87027 37.0387 5.8987 36.9252 5.8987 36.8259L5.88448 36.4853L5.55757 36.4995L5.57178 36.7407C5.58599 37.0955 4.88952 37.1381 4.33519 37.1523L0.454839 37.2942L0.440626 36.8117C0.426412 36.4853 0.312702 36.017 1.08024 35.9886C1.29345 35.9744 1.50666 36.017 1.5493 36.0312L1.53508 35.7615C1.12288 35.6622 0.596977 35.5771 0 35.5061C0.0568549 36.4427 0.0852824 36.4001 0.11371 36.8968C0.11371 37.0529 0.127924 37.4645 0.127924 37.6632C0.127924 38.1031 0.0852824 37.9895 0.0852824 38.3727L0.0994961 38.6849Z" fill="#3BA6B3"/>
<path fill-rule="evenodd" clip-rule="evenodd" d="M0.0996094 33.1219L0.426525 33.1787L0.454953 33.0368C0.526021 32.6253 1.29356 32.8097 1.79104 32.8949L4.36373 33.3064C4.81857 33.3774 5.64296 33.5051 5.58611 33.9025L5.55768 34.0444L5.8846 34.1011L5.91302 33.9592C5.95566 33.7038 5.92724 33.5902 5.91302 33.4341C5.89881 33.2213 5.95566 33.1503 6.02673 32.9658C6.08359 32.8523 6.11202 32.7388 6.14044 32.6111C6.1973 32.4124 6.23994 32.2137 6.26837 32.015C6.46736 30.7378 5.51504 30.3405 4.77593 30.227C3.97996 30.0992 3.11292 30.4398 2.91393 31.6177C2.8855 31.8022 2.87129 32.0008 2.87129 32.1995L1.93318 32.0434C1.23671 31.9299 0.639731 31.8873 0.696586 31.49L0.725013 31.3481L0.398098 31.2913L0.36967 31.5183C0.355456 31.6319 0.355456 31.7454 0.355456 31.8589C0.355456 31.9867 0.355456 32.1144 0.327029 32.2279C0.312815 32.3556 0.270174 32.4833 0.227533 32.5969C0.199105 32.6962 0.142251 32.8097 0.128037 32.9233L0.0996094 33.1219ZM3.15556 32.2137C3.15556 32.1569 3.16977 32.086 3.18399 32.015C3.2977 31.3055 3.89467 30.9791 4.76171 31.1068C5.61454 31.2487 5.98409 31.717 5.92724 32.1144C5.85617 32.5543 5.55768 32.5685 5.01756 32.4833L3.15556 32.2137ZM0.739227 29.1059L1.06614 29.1626L1.09457 29.0207C1.16564 28.6092 1.93318 28.7937 2.48752 28.8788L5.0602 29.2903C5.4724 29.3613 6.28258 29.4748 6.22573 29.858L6.1973 29.9999L6.52421 30.0567L6.56685 29.8012C6.58107 29.6877 6.55264 29.5742 6.55264 29.4606C6.55264 29.3329 6.55264 29.2052 6.58107 29.0917C6.59528 28.9639 6.62371 28.8504 6.66635 28.7369C6.70899 28.6376 6.76585 28.524 6.78006 28.4247L6.8227 28.1834L6.49579 28.1267L6.48157 28.2686C6.42472 28.6234 5.72825 28.524 5.24498 28.4389L2.60123 28.0131C2.07532 27.928 1.29356 27.8712 1.35042 27.4597L1.37884 27.3178L1.03772 27.2468L0.995074 27.4739C0.98086 27.5874 0.98086 27.7009 0.98086 27.8145C0.98086 27.9422 0.98086 28.0699 0.952433 28.1834C0.938219 28.3112 0.895578 28.4389 0.852937 28.5524C0.82451 28.6517 0.781868 28.7653 0.753441 28.8788L0.739227 29.1059Z" fill="#3BA6B3"/>
<path fill-rule="evenodd" clip-rule="evenodd" d="M5.91282 26.282L6.08338 26.353C6.63772 26.5658 7.16363 26.8781 7.74639 26.1401C7.88853 25.9698 8.00224 25.7711 8.0733 25.5725C8.54236 24.3662 7.70375 23.5148 6.96463 23.2309C5.96967 22.8478 5.2732 23.5006 5.10264 23.9547L5.05999 24.0682L4.97471 24.0114C5.05999 23.5431 5.03157 22.7484 4.17874 22.422C3.62441 22.2092 2.85687 22.1666 2.50152 23.089C2.18882 23.8979 2.30253 24.1108 2.03247 24.5081L2.24568 24.5933C2.45888 24.6784 3.05586 24.9339 3.31171 25.0474L3.39699 24.8061C2.84265 24.4514 2.44467 24.1108 2.64366 23.5857C2.81423 23.16 3.28328 23.0323 3.88026 23.2593C4.53409 23.5148 4.77572 24.0966 4.60516 24.5365C4.57673 24.6217 4.51987 24.7352 4.46302 24.8203L4.90364 24.9906C4.91786 24.8913 4.93207 24.8061 4.98893 24.6784C5.30163 23.8553 6.08338 23.8837 6.75143 24.1392C7.61847 24.4656 7.88853 25.0616 7.70375 25.5441C7.56161 25.9272 7.12098 26.3246 5.96967 26.0833L5.91282 26.282Z" fill="#3BA6B3"/>
<path fill-rule="evenodd" clip-rule="evenodd" d="M10.2765 18.2355C10.7456 18.8174 10.7029 19.6546 10.4471 20.0662C10.0207 20.7757 8.713 21.2156 7.12107 20.2648C5.79919 19.4701 5.21643 18.3207 5.82762 17.2989C6.14032 16.7738 6.83679 16.4191 7.60433 16.8732L7.74647 16.6461C7.68961 16.6177 7.64697 16.5893 7.59012 16.561C7.30584 16.3907 6.76572 16.0359 6.46723 15.8088C6.42459 15.9507 6.3251 16.1069 6.23981 16.263C6.04082 16.5893 5.72812 16.788 5.35856 17.3841C4.43467 18.9167 5.28749 20.3216 6.55252 21.0737C8.13024 22.0245 9.86431 21.7549 10.7029 20.3642C10.9303 19.9952 11.1151 19.4843 11.1151 19.0728C11.1151 18.8032 11.0583 18.5477 10.4186 18.0227L10.2765 18.2355Z" fill="#3BA6B3"/>
<path fill-rule="evenodd" clip-rule="evenodd" d="M9.3809 12.7579L12.1384 15.2272C12.5648 15.6103 13.247 16.2347 12.977 16.5327L12.8775 16.6463L13.1191 16.8591L13.3039 16.6605C13.3892 16.5753 13.4318 16.4618 13.4745 16.3625C13.5313 16.2489 13.6166 16.1496 13.7019 16.0644C13.7872 15.9793 13.8867 15.88 13.9861 15.809C14.0856 15.738 14.1851 15.6955 14.2704 15.6103L14.441 15.4258L14.1994 15.213L14.0999 15.3265C13.8298 15.6387 13.1475 14.9859 12.7211 14.6169L9.96366 12.1051L10.3332 11.6936C10.518 11.4949 10.8733 11.1117 11.385 11.5659C11.4135 11.5942 11.5272 11.6936 11.6551 11.8497L11.8399 11.651C11.3566 11.0976 11.2998 10.9698 10.8165 10.4731C10.4469 10.9415 9.87838 11.6936 9.42354 12.2045C9.23876 12.4031 8.78392 12.8998 8.61336 13.0559C8.42858 13.2404 8.38594 13.2688 7.94531 13.6661C8.28644 14.0209 8.40015 14.177 8.98291 14.8156L9.15348 14.6169C8.64179 13.8932 8.71285 13.4958 9.01134 13.1695L9.3809 12.7579Z" fill="#3BA6B3"/>
<path fill-rule="evenodd" clip-rule="evenodd" d="M15.9762 13.8364L16.161 13.6945C16.2179 13.6519 16.2605 13.5668 16.3032 13.51C16.3742 13.4107 16.4737 13.3397 16.5732 13.2546C17.0423 12.8714 16.7154 13.2404 17.1276 12.8998L17.2271 12.8288L17.0138 12.5734L16.8859 12.6727C16.7722 12.7579 16.5022 12.914 16.2463 12.3463L15.7915 11.353C16.1042 11.1259 16.1752 11.0833 16.3174 10.9698C16.5306 10.7853 16.7722 10.5725 16.8717 10.4731L17.8667 11.1969C18.1083 11.3813 18.1509 11.6226 17.9946 11.7503L17.8667 11.8497L18.0799 12.1051L18.3073 11.9206C18.4068 11.8355 18.4921 11.7219 18.5774 11.6226C18.6626 11.5374 18.7337 11.4523 18.8332 11.3813C18.9469 11.282 19.0748 11.1969 19.217 11.1117C19.3165 11.0549 19.4302 10.9982 19.5297 10.9272L19.6576 10.8137L19.4444 10.5583L19.4018 10.6434C19.2596 10.7569 19.1459 10.9414 18.5489 10.5583C17.9804 10.1893 18.4779 10.5725 15.9194 8.75599C14.7823 7.9471 14.5122 7.74842 14.1569 7.4646C14.0858 7.63489 13.9863 7.80519 13.8584 7.96129C14.1142 8.40121 14.3275 8.88371 15.2229 10.9414C15.4077 11.3672 15.6778 12.0199 15.891 12.6585C15.9905 12.9424 16.09 13.3113 15.8767 13.4816L15.763 13.5668L15.9762 13.8364ZM14.7112 8.88371C15.0666 9.2243 15.2229 9.25268 16.5732 10.2602C16.4737 10.388 16.3742 10.4873 16.1752 10.6434C15.962 10.8279 15.8057 10.9272 15.6493 11.0124C14.8676 9.30944 14.8391 9.19591 14.6686 8.94047L14.7112 8.88371Z" fill="#3BA6B3"/>
<path fill-rule="evenodd" clip-rule="evenodd" d="M18.2078 4.99516L18.3499 5.29317L18.4778 5.23641C18.7479 5.10869 18.9327 5.42089 19.0606 5.66214C19.1743 5.8892 19.3875 6.30074 19.5012 6.5278L20.5957 8.78418C20.752 9.09639 21.0505 9.74918 20.7236 9.90528L20.5957 9.96205L20.7378 10.2601L20.9652 10.1465C21.0647 10.104 21.15 10.0046 21.2353 9.93366C21.3348 9.86271 21.4485 9.79175 21.5622 9.73499C21.6759 9.67822 21.7896 9.63565 21.9175 9.60727C22.0313 9.57889 22.145 9.57889 22.2445 9.52212L22.4719 9.40859L22.3297 9.11058L22.2018 9.16734C21.9175 9.30926 21.6191 8.81257 21.4059 8.37264L20.7662 7.05287C20.951 6.9961 21.1642 6.89677 21.4769 6.75486C21.6191 6.6839 21.7754 6.61295 21.9175 6.54199C22.0597 6.47103 22.216 6.40008 22.3582 6.32912C22.6709 6.17302 22.8699 6.05949 23.0262 5.94596L23.6658 7.26574C23.879 7.70566 24.0922 8.24492 23.808 8.38683L23.68 8.4436L23.8222 8.74161L24.0496 8.62808C24.1491 8.58551 24.2344 8.48617 24.3197 8.41522C24.4192 8.34426 24.5329 8.2733 24.6466 8.21654C24.7603 8.15978 24.874 8.1172 25.0019 8.08882C25.1156 8.06044 25.2293 8.06044 25.3288 8.00367L25.5563 7.89014L25.4141 7.59213L25.2862 7.6489C24.9593 7.805 24.6324 7.1664 24.476 6.85419L23.3816 4.59781C23.0689 3.9734 22.5998 3.1787 22.9978 2.98002L23.1257 2.92326L22.9836 2.62524L22.7846 2.72458C22.6567 2.83811 22.5572 2.90907 22.4719 2.98002C22.3724 3.05098 22.2587 3.12193 22.145 3.1787C22.0313 3.23546 21.9175 3.27803 21.7896 3.30642C21.6759 3.3348 21.5622 3.36318 21.4627 3.41995L21.2495 3.51928L21.3916 3.8173L21.5196 3.76053C21.818 3.61862 22.0313 4.03016 22.1165 4.18627C22.1876 4.31399 22.4719 4.86744 22.5572 5.06611L22.8272 5.61957C22.6567 5.7331 22.4008 5.91758 21.7328 6.24398C21.0647 6.57037 20.7662 6.66971 20.5672 6.72647L20.2972 6.17302C20.1977 5.97435 19.9276 5.4067 19.8708 5.27898C19.7997 5.10869 19.6007 4.68295 19.8992 4.54104L20.0271 4.48428L19.8992 4.17207L19.686 4.27141C19.5865 4.31399 19.487 4.39913 19.4017 4.4559C19.3022 4.52685 19.1885 4.59781 19.089 4.65457C18.9753 4.71134 18.8474 4.75391 18.7337 4.79648C18.62 4.82487 18.5063 4.85325 18.4068 4.91001L18.2078 4.99516Z" fill="#3BA6B3"/>
<path fill-rule="evenodd" clip-rule="evenodd" d="M33.0611 4.78239C32.9331 5.52033 32.2935 6.0454 31.8102 6.14474C30.9859 6.30084 29.7919 5.63386 29.4366 3.8174C29.1381 2.29895 29.6071 1.0927 30.7726 0.865647C31.3838 0.752118 32.1087 1.02175 32.2793 1.9016L32.5494 1.84483C32.5351 1.78807 32.5209 1.7313 32.5067 1.67454C32.4499 1.34814 32.3362 0.709545 32.3219 0.340576C32.1798 0.397341 32.0092 0.439914 31.8245 0.468296C31.4549 0.539252 31.0853 0.439914 30.4031 0.567634C28.6406 0.90822 28.1715 2.46924 28.4558 3.91673C28.8112 5.71901 30.1615 6.82591 31.7534 6.51371C32.1798 6.42856 32.6773 6.22989 32.99 5.96025C33.189 5.77577 33.3453 5.5629 33.3027 4.72563L33.0611 4.78239Z" fill="#3BA6B3"/>
<path fill-rule="evenodd" clip-rule="evenodd" d="M34.7383 6.04541H34.9657C35.0368 6.04541 35.1221 6.01703 35.1931 6.00284C35.321 5.97446 35.4348 5.97445 35.5627 5.98865C36.1597 6.00284 35.6906 6.07379 36.2165 6.07379H36.3444V5.7474H36.1881C36.0459 5.7474 35.7475 5.69063 35.9038 5.09461L36.2023 4.04447C36.5861 4.07285 36.6571 4.08704 36.8419 4.08704C37.1262 4.08704 37.4531 4.08704 37.5952 4.07285L37.8795 5.2649C37.9506 5.56291 37.8227 5.77578 37.6237 5.76159H37.4673V6.08798H37.7658C37.8937 6.08798 38.0217 6.0596 38.1638 6.03122C38.2775 6.01703 38.3912 6.00284 38.5049 6.01703C38.6613 6.01703 38.8176 6.03122 38.9598 6.0596C39.0735 6.07379 39.1872 6.11637 39.3151 6.11637H39.4857V5.78997H39.4146C39.2298 5.78997 39.0308 5.86093 38.8176 5.17975C38.6186 4.52696 38.7608 5.15137 37.9648 2.11447C37.6095 0.76632 37.5242 0.439924 37.4389 0C37.2825 0.0851466 37.0978 0.156102 36.8988 0.184484C36.8135 0.681173 36.6713 1.19205 36.0175 3.3491C35.8896 3.80322 35.6764 4.4702 35.4205 5.09461C35.3068 5.37843 35.1505 5.71902 34.8804 5.71902H34.7383V6.04541ZM36.9556 1.4333C37.0125 1.92999 37.112 2.04352 37.4957 3.6755C37.3394 3.71807 37.1973 3.73226 36.9556 3.71807C36.6713 3.71807 36.5008 3.68969 36.316 3.66131C36.8135 1.85903 36.8703 1.74551 36.8988 1.44749L36.9556 1.4333Z" fill="#3BA6B3"/>
<path fill-rule="evenodd" clip-rule="evenodd" d="M40.4238 6.28669L40.7081 6.34346C40.8645 6.37184 41.0066 6.30088 41.2909 6.35765C41.433 6.38603 41.5751 6.4428 41.7173 6.49956C41.8026 6.52794 41.8736 6.57052 41.9589 6.58471L42.0726 6.61309L42.1295 6.28669L41.9731 6.24412C41.831 6.21574 41.6178 6.08802 41.9163 5.44942L43.1244 2.88083C43.2666 2.56862 43.3519 2.39833 43.4087 2.11451L43.4656 2.1287C43.4513 2.32738 43.4371 2.38414 43.4513 2.48348L43.6788 5.43523C43.7072 5.86096 43.8209 6.5989 43.2666 6.48537L43.1813 6.47118L43.1244 6.81176L43.4656 6.88272C43.5793 6.89691 43.6788 6.88272 43.7925 6.86853C43.9204 6.85434 44.0483 6.88272 44.1762 6.9111C44.3184 6.93948 44.4463 6.96787 44.5742 7.03882C44.6595 7.0814 44.759 7.13816 44.8443 7.15235L45.0717 7.19492L45.1286 6.86853L44.9864 6.84015C44.6595 6.76919 44.5742 5.87515 44.4889 5.02369C44.3184 3.20722 44.2331 2.2848 44.1905 0.879883C44.0199 0.894074 43.8351 0.894074 43.6503 0.894074C43.2524 1.87326 42.8686 2.62539 42.4706 3.39171C41.7599 4.79663 41.7599 4.73986 41.4899 5.25074C41.3335 5.53456 41.0208 6.08802 40.6512 6.00287L40.4807 5.9603L40.4238 6.28669Z" fill="#3BA6B3"/>
<path fill-rule="evenodd" clip-rule="evenodd" d="M48.6964 2.27051L48.5684 2.56852L48.6964 2.62529C49.0801 2.79558 48.6964 3.49094 48.4832 3.95925L47.4171 6.34336C47.2323 6.7549 46.8912 7.52122 46.5359 7.36512L46.408 7.30835L46.28 7.60636L46.408 7.66313C46.6354 7.76247 46.7633 7.77666 46.9196 7.80504C47.1328 7.84761 47.1897 7.91857 47.3461 8.0321C47.4456 8.11724 47.545 8.17401 47.6588 8.23077C47.8435 8.3443 48.0141 8.42945 48.1989 8.5146C49.3786 9.03967 50.0182 8.23077 50.3167 7.53541C50.6436 6.79747 50.5441 5.87505 49.4497 5.37836C49.2791 5.3074 49.0943 5.23645 48.9096 5.17968L49.2933 4.31403C49.5776 3.67543 49.7908 3.10778 50.1462 3.26389L50.2741 3.32065L50.402 3.02264L50.1888 2.93749C50.0893 2.89492 49.9756 2.86653 49.8619 2.83815C49.734 2.80977 49.6203 2.7672 49.5065 2.71043C49.3928 2.66786 49.2791 2.5969 49.1796 2.52595C49.0801 2.46918 48.9949 2.39823 48.8954 2.35565L48.6964 2.27051ZM48.7959 5.44932C48.8527 5.46351 48.9238 5.49189 48.9806 5.52027C49.6487 5.81828 49.805 6.47108 49.4497 7.27997C49.0943 8.07467 48.54 8.30173 48.1705 8.13143C47.7583 7.96114 47.8151 7.66313 48.0425 7.15225L48.7959 5.44932ZM52.4204 3.93087L52.2924 4.22888L52.4204 4.28564C52.8041 4.45594 52.4346 5.1513 52.1929 5.66218L51.1269 8.04629C50.9563 8.42945 50.6294 9.18158 50.2741 9.02548L50.1462 8.96871L50.0182 9.26672L50.2457 9.36606C50.3452 9.40863 50.4589 9.42283 50.5726 9.43702C50.7005 9.4654 50.8142 9.50797 50.9279 9.55055C51.0416 9.60731 51.1553 9.66407 51.2548 9.73503C51.3401 9.80599 51.4254 9.89113 51.5249 9.93371L51.7523 10.033L51.8802 9.73503L51.7523 9.67827C51.4254 9.53635 51.7097 8.89775 51.9087 8.42945L53.0031 5.97439C53.2163 5.49189 53.4864 4.73976 53.8702 4.91005L54.0123 4.9952L54.1402 4.69719L53.927 4.59785C53.8275 4.55528 53.7138 4.52689 53.6001 4.49851C53.4722 4.47013 53.3585 4.42756 53.2448 4.37079C53.131 4.32822 53.0315 4.25726 52.9178 4.2005C52.8183 4.14373 52.7331 4.07278 52.6193 4.0302L52.4204 3.93087Z" fill="#3BA6B3"/>
<path fill-rule="evenodd" clip-rule="evenodd" d="M56.4428 6.18726L56.2438 6.45689L56.3575 6.54203C56.6702 6.76909 56.2722 7.26578 55.9595 7.69151L54.2113 10.0898C53.9981 10.3736 53.5716 10.9413 53.2732 10.7284L53.1594 10.6433L52.9604 10.9129L53.1594 11.0548C53.2447 11.1258 53.3584 11.1541 53.4721 11.1967C53.5859 11.2535 53.6996 11.3244 53.7991 11.3954C53.8986 11.4663 53.9981 11.5515 54.0833 11.6508C54.1544 11.736 54.2255 11.8353 54.3108 11.9063L54.5097 12.0482L54.7087 11.7786L54.595 11.6934C54.3108 11.4805 54.7087 10.8987 54.9219 10.6007L56.6702 8.20239C56.9829 7.77666 57.3383 7.25159 57.651 7.47865L57.7647 7.56379L57.9637 7.29416L57.7789 7.16644C57.6936 7.09549 57.5941 7.05291 57.4946 7.01034C57.3809 6.95358 57.2672 6.88262 57.1677 6.81166C57.0682 6.74071 56.9687 6.64137 56.8834 6.55622C56.7982 6.47108 56.7271 6.38593 56.6418 6.32917L56.4428 6.18726ZM58.518 8.10306L58.6459 8.1882C58.7312 8.25916 58.7312 8.38688 58.6033 8.5146C58.319 8.78423 57.85 8.85518 57.4946 8.94033C57.0824 9.03967 56.656 9.18158 56.0022 9.36606C55.988 10.2459 55.8885 11.1541 55.8601 11.5373C55.7606 12.4597 55.7037 12.9422 56.1443 13.2686C56.3575 13.4247 56.4428 13.4105 56.7839 13.5099L56.9829 13.2402C56.7129 13.2119 56.6276 13.1409 56.585 13.1125C56.4144 12.9848 56.4997 12.5733 56.5565 12.261C56.6276 11.7927 56.6702 11.2961 56.7271 10.8136C56.7839 10.3878 56.855 9.9479 56.5565 9.45121C56.6987 9.42283 56.7697 9.40864 56.8977 9.38025C57.2246 9.29511 56.9403 9.35187 57.7931 9.18158C59.3566 8.85518 59.4419 8.77004 59.783 9.01129L59.8541 9.06805L60.0531 8.79842L59.9252 8.71327C59.8683 8.6707 59.7973 8.64232 59.7404 8.61394C59.6125 8.55717 59.4703 8.48622 59.3566 8.40107C59.2287 8.30173 59.115 8.1882 59.0013 8.06048C58.9444 8.00372 58.8876 7.96114 58.8307 7.91857L58.7028 7.83342L58.518 8.10306Z" fill="#3BA6B3"/>
<path fill-rule="evenodd" clip-rule="evenodd" d="M63.7484 12.5591L63.4925 12.7719L63.5778 12.8855C63.8195 13.1835 63.3078 13.5667 62.8956 13.893L60.593 15.7521C60.3229 15.9791 59.7543 16.4049 59.5269 16.1352L59.4416 16.0217L59.1858 16.2346L59.3421 16.4333C59.4132 16.5184 59.5127 16.5752 59.598 16.6461C59.6975 16.7313 59.7828 16.8164 59.868 16.9158C59.9391 17.0151 60.0244 17.1144 60.0813 17.228C60.1239 17.3273 60.1665 17.4408 60.2376 17.526L60.394 17.7246L60.6498 17.5118L60.5645 17.3982C60.3371 17.1144 60.8772 16.6603 61.1615 16.4333L63.4641 14.5742C63.8763 14.2478 64.3596 13.8221 64.6012 14.1201L64.6865 14.2336L64.9423 14.0208L64.8002 13.8505C64.7291 13.7653 64.6439 13.6944 64.5586 13.6092C64.4733 13.5241 64.3738 13.4389 64.2885 13.3396C64.2032 13.2403 64.1464 13.1267 64.0753 13.0274C64.0185 12.9281 63.9616 12.8287 63.8905 12.7436L63.7484 12.5591ZM65.255 14.9432L65.3545 15.0567C65.4256 15.1419 65.383 15.2838 65.2266 15.3547C64.8855 15.5392 64.4022 15.4966 64.0469 15.4824C63.6205 15.4683 63.1656 15.4966 62.4976 15.5108C62.256 16.3481 61.929 17.2138 61.7869 17.5685C61.46 18.4342 61.261 18.8883 61.6163 19.314C61.7869 19.5269 61.8722 19.5269 62.1707 19.7114L62.4265 19.4985C62.1849 19.3992 62.1138 19.314 62.0712 19.2715C61.9432 19.1154 62.128 18.7322 62.256 18.4484C62.4407 18.0085 62.6255 17.5402 62.7961 17.1002C62.9524 16.6887 63.1372 16.2913 62.9951 15.7379C63.1372 15.7521 63.2083 15.7521 63.3362 15.7521C63.6773 15.7521 63.3788 15.7379 64.2459 15.7805C65.8378 15.8656 65.9515 15.8088 66.2074 16.1352L66.2642 16.2062L66.5201 15.9933L66.4206 15.8798C66.3779 15.823 66.3211 15.7805 66.2642 15.7379C66.1505 15.6386 66.0368 15.5392 65.9515 15.4257C65.852 15.298 65.7667 15.1561 65.6957 15C65.653 14.929 65.6104 14.8722 65.5677 14.8155L65.4825 14.7019L65.255 14.9432Z" fill="#3BA6B3"/>
<path fill-rule="evenodd" clip-rule="evenodd" d="M68.1263 18.5762L67.8278 18.7181L67.8847 18.8458C68.0552 19.229 67.3161 19.4986 66.8471 19.7115L64.4876 20.8042C64.0754 21.0029 63.3221 21.3576 63.1515 20.9887L63.0946 20.8609L62.7961 21.0029L62.853 21.1306C62.9667 21.3576 63.052 21.4428 63.1515 21.5705C63.2936 21.7408 63.2794 21.8259 63.322 22.0104C63.3505 22.1381 63.3789 22.2517 63.4215 22.3652C63.4784 22.5639 63.5637 22.7484 63.649 22.9328C64.1891 24.0965 65.2125 23.8978 65.8947 23.5856C66.6338 23.245 67.1598 22.4787 66.6481 21.386C66.5628 21.2157 66.4633 21.0454 66.3638 20.8751L67.2308 20.4778C67.8704 20.1798 68.3964 19.8959 68.5669 20.2507L68.6238 20.3784L68.9223 20.2365L68.8228 20.0237C68.7801 19.9243 68.7091 19.825 68.638 19.7398C68.5669 19.6405 68.4958 19.527 68.4532 19.4134C68.3963 19.2999 68.3679 19.1722 68.3253 19.0587C68.2969 18.9451 68.2684 18.8316 68.2258 18.7323L68.1263 18.5762ZM66.1079 21.0454C66.1364 21.1022 66.1648 21.159 66.1932 21.2157C66.5059 21.8685 66.1932 22.4787 65.3973 22.8477C64.6155 23.2167 64.0469 23.0322 63.8622 22.649C63.6774 22.2517 63.919 22.0672 64.4165 21.8259L66.1079 21.0454ZM69.8461 22.2659L69.5477 22.4078L69.6045 22.5355C69.7751 22.9045 69.0502 23.1883 68.5243 23.4295L66.1648 24.5364C65.7952 24.7067 65.0419 25.0757 64.8713 24.7209L64.8145 24.5932L64.516 24.7351L64.6155 24.9622C64.6581 25.0615 64.7434 25.1467 64.8145 25.2318C64.8856 25.3311 64.9566 25.4447 64.9993 25.5582C65.0561 25.6717 65.0988 25.7853 65.1272 25.913C65.1556 26.0265 65.1556 26.14 65.1983 26.2394L65.2978 26.4664L65.5962 26.3245L65.5394 26.1968C65.383 25.8704 66.0227 25.5724 66.4775 25.3595L68.908 24.2242C69.3913 23.9972 70.0736 23.614 70.2583 23.9972L70.3152 24.1249L70.6137 23.983L70.5142 23.7701C70.4716 23.6708 70.4005 23.5714 70.3294 23.4863C70.2583 23.387 70.1873 23.2734 70.1446 23.1599C70.0878 23.0464 70.0594 22.9186 70.0167 22.8051C69.9883 22.6916 69.9599 22.5781 69.9172 22.4787L69.8461 22.2659Z" fill="#3BA6B3"/>
<path fill-rule="evenodd" clip-rule="evenodd" d="M67.2309 27.403L67.0462 27.4456C66.4776 27.5875 65.8522 27.6301 65.8096 28.5809C65.7954 28.808 65.8096 29.0208 65.8664 29.2337C66.1791 30.4825 67.3447 30.7096 68.1264 30.5251C69.164 30.2696 69.3488 29.333 69.2351 28.8647L69.2067 28.7512L69.2919 28.7228C69.4909 29.1627 69.9742 29.7871 70.8697 29.5743C71.4524 29.4324 72.092 29.035 71.8504 28.07C71.6372 27.2327 71.424 27.1192 71.424 26.6367L71.1966 26.6935C70.9834 26.7502 70.3295 26.878 70.0595 26.9347L70.1163 27.176C70.7844 27.1476 71.2961 27.1902 71.4382 27.7436C71.5519 28.1977 71.225 28.5667 70.6138 28.7086C69.9316 28.8789 69.3914 28.5383 69.2777 28.0842C69.2493 27.9849 69.2351 27.8713 69.2209 27.772L68.766 27.8855C68.8087 27.9707 68.8513 28.0558 68.8797 28.1977C69.0929 29.0492 68.4391 29.4749 67.7426 29.6452C66.8472 29.8723 66.2786 29.5459 66.1649 29.035C66.0654 28.6377 66.1933 28.0558 67.2736 27.6017L67.2309 27.403Z" fill="#3BA6B3"/>
<path fill-rule="evenodd" clip-rule="evenodd" d="M66.6479 32.086L66.6622 32.2988C66.6764 32.5401 66.8043 32.7671 66.8043 32.9374C66.8185 33.1503 66.7332 33.4057 66.7474 33.5335L66.7617 33.6896L67.0886 33.6612L67.0744 33.5051C67.0459 33.1077 67.7993 33.1361 68.0693 33.1219C68.7516 33.0793 70.5283 33.0368 70.9121 33.0084L71.0542 32.9942V33.0652C70.8694 33.1077 70.4288 33.2354 68.9932 33.9308C68.3962 34.2146 68.0835 34.3991 67.6003 34.612C67.316 34.7397 67.316 34.7397 66.9891 34.8958L67.0033 35.1512C67.4866 35.2932 67.5434 35.3074 67.785 35.3925C68.3536 35.5628 68.4247 35.5912 69.1922 35.8324C69.8745 36.0311 70.173 36.1304 70.4857 36.2156C71.2106 36.4143 70.8552 36.3007 71.2816 36.4284V36.471L70.8268 36.4852L68.1688 36.7974C67.4013 36.8826 67.2876 36.7265 67.2734 36.5136V36.4143L66.9464 36.4426L66.9607 36.6129C66.9749 36.7265 67.0033 36.8258 67.0317 36.9393C67.0601 37.0812 67.1028 37.209 67.117 37.3509C67.1312 37.4928 67.1312 37.6347 67.1028 37.7908C67.0886 37.8901 67.0601 38.0037 67.0601 38.1172L67.0886 38.3159L67.4155 38.2875L67.4013 38.1881C67.3586 37.6631 68.5242 37.6205 69.3486 37.5212L71.6085 37.2515C71.8786 37.2231 72.1629 37.1806 72.4472 37.1522C72.504 37.1522 72.5609 37.138 72.6177 37.138C72.7599 37.1238 72.8736 37.1096 73.0868 37.0812C73.0015 36.8826 72.9446 36.6839 72.902 36.4568C72.7741 36.4284 72.1629 36.3007 70.642 35.8466C69.576 35.5202 69.0216 35.2648 68.183 35.1371V35.0803C68.4815 34.9951 68.7089 34.8816 68.9932 34.7681L72.8167 33.0935C72.7314 32.9658 72.6746 32.8097 72.6319 32.6536C72.4045 32.6678 71.5233 32.7104 70.8126 32.7104H68.3252C67.2591 32.7104 67.0175 32.3982 67.0033 32.1711L66.9891 32.0718L66.6479 32.086Z" fill="#3BA6B3"/>
<path fill-rule="evenodd" clip-rule="evenodd" d="M66.8186 39.3804L66.7902 39.6074C66.776 39.6784 66.8044 39.7635 66.8044 39.8345C66.8186 39.9622 66.7902 40.0899 66.776 40.2035C66.6765 40.7995 66.6765 40.317 66.5912 40.8279L66.577 40.9556L66.9039 41.0123L66.9324 40.8562C66.9466 40.7143 67.0603 40.4163 67.6146 40.6718L68.6096 41.1117C68.5385 41.4948 68.4959 41.5658 68.4817 41.7361C68.439 42.0199 68.3964 42.3321 68.3964 42.474L67.174 42.6018C66.8755 42.6301 66.6765 42.474 66.7049 42.2754L66.7334 42.1193L66.4065 42.0625L66.3638 42.3605C66.3496 42.4882 66.3638 42.6301 66.3638 42.7579C66.3638 42.8714 66.3496 42.9849 66.3354 43.0984C66.307 43.2545 66.2785 43.3965 66.2217 43.5526C66.179 43.6661 66.1364 43.7796 66.1222 43.8931L66.0938 44.0634L66.4207 44.1202L66.4349 44.0492C66.4633 43.8648 66.4207 43.6519 67.1314 43.5384C67.7994 43.4248 67.1598 43.4816 70.2868 43.1126C71.6797 42.9565 72.0067 42.914 72.4615 42.8998C72.4046 42.7295 72.362 42.545 72.3478 42.3463C71.8645 42.1902 71.3813 41.9773 69.3345 41.0407C68.9081 40.8421 68.2827 40.544 67.6857 40.2035C67.4156 40.0474 67.1029 39.8487 67.1456 39.579L67.174 39.4371L66.8186 39.3804ZM71.0686 42.2186C70.5711 42.2044 70.4432 42.2895 68.7659 42.4457C68.7517 42.2895 68.7659 42.1476 68.7944 41.9064C68.837 41.6226 68.8796 41.4523 68.9507 41.282C70.6706 42.0341 70.7701 42.0909 71.0686 42.1618V42.2186Z" fill="#3BA6B3"/>
<path fill-rule="evenodd" clip-rule="evenodd" d="M70.358 48.5053L66.8615 47.2991C66.3214 47.1146 65.4543 46.8024 65.5822 46.4334L65.6249 46.2915L65.3122 46.178L65.2269 46.4334C65.1842 46.5469 65.1985 46.6605 65.1843 46.774C65.17 46.9017 65.1274 47.0294 65.099 47.143C65.0563 47.2565 65.0137 47.3842 64.9426 47.4836C64.8858 47.5829 64.8005 47.668 64.7721 47.7816L64.6868 48.0228L64.9995 48.1363L65.0421 47.9944C65.17 47.5971 66.0513 47.9377 66.5914 48.1222L70.088 49.3284L69.9174 49.8393C69.8321 50.0947 69.6331 50.5914 69.0077 50.3785C68.9793 50.3644 68.823 50.3218 68.6524 50.2224L68.5671 50.4779C69.2067 50.8043 69.3062 50.8894 69.9601 51.1591C70.1164 50.5914 70.3438 49.6832 70.5713 49.0304C70.6565 48.7749 70.884 48.1505 70.9835 47.9377C71.0829 47.6964 71.1114 47.6539 71.3672 47.1146C70.9124 46.9301 70.7418 46.8308 69.9743 46.4618L69.889 46.703C70.6565 47.1714 70.7276 47.5687 70.5855 47.9803L70.358 48.5053Z" fill="#3BA6B3"/>
<path fill-rule="evenodd" clip-rule="evenodd" d="M68.5955 53.5288L68.3113 53.3585L68.2402 53.4862C68.0128 53.841 67.3732 53.3585 66.9467 53.0889L64.7294 51.7123C64.3456 51.4711 63.6207 51.0311 63.8339 50.6906L63.905 50.577L63.6207 50.4067L63.5497 50.5345C63.4075 50.7473 63.3933 50.875 63.3365 51.017C63.2654 51.2298 63.1943 51.2724 63.0522 51.4001C62.9527 51.4853 62.8816 51.5846 62.8105 51.6839C62.6826 51.84 62.5689 52.0103 62.4552 52.1806C61.7729 53.2733 62.4836 54.0113 63.1375 54.4086C63.8197 54.8344 64.7578 54.8627 65.3974 53.8552C65.4969 53.6849 65.5822 53.5146 65.6675 53.3443L66.4777 53.841C67.0747 54.21 67.6006 54.4938 67.3874 54.8344L67.3163 54.9621L67.6006 55.1324L67.7285 54.9337C67.7854 54.8344 67.828 54.7208 67.8706 54.6215C67.9275 54.508 67.9701 54.3944 68.0412 54.2809C68.1123 54.1816 68.1976 54.068 68.2686 53.9829C68.3397 53.8978 68.425 53.8126 68.4818 53.7133L68.5955 53.5288ZM65.4259 53.174C65.3974 53.2308 65.369 53.2875 65.3264 53.3443C64.9426 53.9545 64.2746 54.0255 63.5212 53.5572C62.7821 53.1031 62.6258 52.5212 62.8532 52.1664C63.0806 51.7975 63.3791 51.8826 63.8339 52.1806L65.4259 53.174ZM66.4351 56.963L66.1508 56.7927L66.0797 56.9205C65.8665 57.2752 65.2269 56.8069 64.7436 56.5089L62.5405 55.1324C62.1851 54.9195 61.4745 54.4796 61.6877 54.1532L61.7587 54.0397L61.4745 53.8694L61.3465 54.0822C61.2897 54.1816 61.2613 54.2951 61.2328 54.3944C61.1902 54.508 61.1333 54.6215 61.0623 54.735C60.9912 54.8344 60.9201 54.9337 60.8348 55.033C60.7496 55.1182 60.6643 55.1891 60.6074 55.2743L60.4795 55.4872L60.7638 55.6575L60.8348 55.5439C61.0196 55.2459 61.6166 55.6007 62.043 55.8703L64.3172 57.2894C64.7578 57.5732 65.4685 57.9422 65.2411 58.297L65.17 58.4247L65.4543 58.595L65.5822 58.3963C65.6391 58.297 65.6817 58.1835 65.7244 58.0841C65.7812 57.9706 65.8239 57.8571 65.8949 57.7435C65.966 57.6442 66.0513 57.5307 66.1223 57.4455C66.1934 57.3604 66.2787 57.2752 66.3355 57.1759L66.4351 56.963Z" fill="#3BA6B3"/>
</svg>
