<svg width="20" height="20" viewBox="0 0 20 20" fill="none" xmlns="http://www.w3.org/2000/svg">
<path d="M7.19615 13.1916L10.3587 7.71403L6.6093 8.72476C6.39494 8.7822 6.16655 8.75213 5.97436 8.64117C5.78218 8.53021 5.64194 8.34745 5.5845 8.1331C5.52707 7.91874 5.55713 7.69035 5.66809 7.49816C5.77905 7.30597 5.96181 7.16574 6.17617 7.1083L11.8679 5.58319C11.9745 5.55712 12.0852 5.55234 12.1936 5.56914C12.411 5.5984 12.6081 5.71218 12.7421 5.88581C12.8108 5.9713 12.862 6.06953 12.8927 6.17486L14.4178 11.8666C14.4468 11.9728 14.4544 12.0836 14.4402 12.1927C14.4261 12.3018 14.3905 12.407 14.3355 12.5023C14.2805 12.5976 14.2072 12.681 14.1197 12.7478C14.0323 12.8146 13.9326 12.8634 13.8262 12.8914C13.72 12.9203 13.6092 12.9279 13.5001 12.9138C13.391 12.8997 13.2858 12.8641 13.1905 12.8091C13.0953 12.7541 13.0118 12.6807 12.945 12.5933C12.8782 12.5059 12.8294 12.4061 12.8014 12.2998L11.802 8.54736L8.63953 14.025C8.52902 14.2164 8.347 14.356 8.13352 14.4132C7.92004 14.4704 7.69258 14.4405 7.50117 14.33C7.30977 14.2195 7.1701 14.0375 7.1129 13.824C7.0557 13.6105 7.08565 13.383 7.19615 13.1916Z" fill="#27AE60"/>
</svg>
